SplineFontDB: 3.2
FontName: T_Font01
FullName: T_Font01
FamilyName: T_Font01
Weight: Regular
Copyright: 
Version: 2.00
ItalicAngle: 0
UnderlinePosition: -439
UnderlineWidth: 125
Ascent: 1556
Descent: 492
InvalidEm: 0
sfntRevision: 0x00020000
LayerCount: 2
Layer: 0 1 "Back" 1
Layer: 1 1 "Fore" 0
HasVMetrics: 1
XUID: [1021 615 1667192188 28715]
StyleMap: 0x0040
FSType: 8
OS2Version: 3
OS2_WeightWidthSlopeOnly: 0
OS2_UseTypoMetrics: 0
CreationTime: 1210768554
ModificationTime: 1773592195
PfmFamily: 81
TTFWeight: 400
TTFWidth: 5
LineGap: 0
VLineGap: 0
Panose: 0 0 0 0 0 0 0 0 0 0
OS2TypoAscent: 1556
OS2TypoAOffset: 0
OS2TypoDescent: -492
OS2TypoDOffset: 0
OS2TypoLinegap: 0
OS2WinAscent: 1858
OS2WinAOffset: 0
OS2WinDescent: 461
OS2WinDOffset: 0
HheadAscent: 1966
HheadAOffset: 0
HheadDescent: -492
HheadDOffset: 0
OS2SubXSize: 1434
OS2SubYSize: 1331
OS2SubXOff: 0
OS2SubYOff: 0
OS2SupXSize: 1434
OS2SupYSize: 1331
OS2SupXOff: 0
OS2SupYOff: 573
OS2StrikeYSize: 125
OS2StrikeYPos: 532
OS2CapHeight: 1417
OS2XHeight: 1038
OS2Vendor: 'URW '
OS2CodePages: 200000ff.ffff0000
OS2UnicodeRanges: a580aeaf.8000ffff.0000001a.00000000
MarkAttachClasses: 1
DEI: 91125
TtTable: prep
NPUSHB
 255
 161
 161
 52
 62
 171
 171
 51
 62
 172
 172
 51
 62
 164
 164
 51
 62
 173
 173
 51
 62
 59
 59
 51
 62
 79
 79
 51
 62
 166
 166
 51
 62
 114
 114
 51
 62
 71
 71
 51
 62
 65
 65
 51
 62
 178
 178
 51
 62
 119
 119
 51
 62
 176
 176
 52
 62
 148
 148
 51
 62
 106
 106
 51
 62
 120
 120
 51
 62
 179
 179
 51
 62
 151
 171
 52
 62
 154
 171
 51
 62
 155
 171
 51
 62
 121
 171
 52
 62
 156
 172
 51
 62
 122
 172
 52
 62
 157
 172
 51
 62
 169
 172
 52
 62
 123
 164
 52
 62
 88
 164
 51
 62
 110
 164
 52
 62
 89
 164
 51
 62
 111
 173
 52
 62
 158
 173
 51
 62
 124
 59
 52
 62
 127
 59
 51
 62
 137
 59
 52
 62
 60
 59
 52
 62
 68
 59
 51
 62
 69
 59
 52
 62
 125
 79
 52
 62
 159
 79
 51
 62
 165
 79
 51
 62
 91
 79
 52
 62
 85
 166
 52
 62
 128
 166
 51
 62
 138
 166
 52
 62
 97
 114
 52
 62
 112
 114

StartChar: .notdef
Encoding: 65536 -1 0
Width: 512
VWidth: 1433
GlyphClass: 1
Flags: W
LayerCount: 2
Fore
SplineSet
51 0 m 1,0,-1
 51 1417 l 1,1,-1
 461 1417 l 1,2,-1
 461 0 l 1,3,-1
 51 0 l 1,0,-1
410 51 m 1,4,-1
 410 1366 l 1,5,-1
 102 1366 l 1,6,-1
 102 51 l 1,7,-1
 410 51 l 1,4,-1
EndSplineSet
EndChar

StartChar: exclam
Encoding: 33 33 2
Width: 635
VWidth: 1433
GlyphClass: 1
Flags: W
LayerCount: 2
Fore
SplineSet
424 375 m 1,0,-1
 293 375 l 1,1,-1
 275 1325 l 1,2,-1
 443 1325 l 1,3,-1
 424 375 l 1,0,-1
361 222 m 0,4,5
 410 222 410 222 444 189 c 0,6,7
 480 154 480 154 480 101 c 0,8,9
 480 49 480 49 444 13 c 0,10,11
 410 -20 410 -20 359 -20 c 256,12,13
 308 -20 308 -20 274 13 c 0,14,15
 238 49 238 49 238 101 c 0,16,17
 238 154 238 154 274 189 c 0,18,19
 309 222 309 222 361 222 c 0,4,5
EndSplineSet
EndChar

StartChar: quotedbl
Encoding: 34 34 3
Width: 664
VWidth: 1433
GlyphClass: 1
Flags: W
LayerCount: 2
Fore
SplineSet
112 1034 m 1,0,-1
 102 1493 l 1,1,-1
 266 1493 l 1,2,-1
 256 1034 l 1,3,-1
 112 1034 l 1,0,-1
407 1038 m 1,4,-1
 397 1497 l 1,5,-1
 561 1497 l 1,6,-1
 551 1038 l 1,7,-1
 407 1038 l 1,4,-1
EndSplineSet
EndChar

StartChar: numbersign
Encoding: 35 35 4
Width: 1180
VWidth: 1433
GlyphClass: 1
Flags: W
LayerCount: 2
Fore
SplineSet
238 0 m 1,0,-1
 297 424 l 1,1,-1
 112 424 l 1,2,-1
 112 543 l 1,3,-1
 314 543 l 1,4,-1
 360 876 l 1,5,-1
 178 876 l 1,6,-1
 178 995 l 1,7,-1
 377 995 l 1,8,-1
 436 1417 l 1,9,-1
 558 1417 l 1,10,-1
 499 995 l 1,11,-1
 761 995 l 1,12,-1
 820 1417 l 1,13,-1
 943 1417 l 1,14,-1
 884 995 l 1,15,-1
 1068 995 l 1,16,-1
 1068 876 l 1,17,-1
 868 876 l 1,18,-1
 821 543 l 1,19,-1
 1003 543 l 1,20,-1
 1003 424 l 1,21,-1
 804 424 l 1,22,-1
 745 0 l 1,23,-1
 622 0 l 1,24,-1
 682 424 l 1,25,-1
 420 424 l 1,26,-1
 361 0 l 1,27,-1
 238 0 l 1,0,-1
437 543 m 1,28,-1
 698 543 l 1,29,-1
 745 876 l 1,30,-1
 483 876 l 1,31,-1
 437 543 l 1,28,-1
EndSplineSet
EndChar

StartChar: dollar
Encoding: 36 36 5
Width: 1180
VWidth: 1433
GlyphClass: 1
Flags: W
LayerCount: 2
Fore
SplineSet
177 43 m 1,0,-1
 197 186 l 1,1,2
 381 113 381 113 533 111 c 1,3,-1
 533 664 l 1,4,5
 358 744 358 744 313 775 c 0,6,7
 162 880 162 880 162 1055 c 0,8,9
 162 1194 162 1194 240 1291 c 0,10,11
 335 1408 335 1408 533 1433 c 1,12,-1
 533 1585 l 1,13,-1
 635 1585 l 1,14,-1
 635 1437 l 1,15,16
 765 1433 765 1433 940 1374 c 1,17,-1
 907 1227 l 1,18,19
 774 1297 774 1297 635 1306 c 1,20,-1
 635 799 l 1,21,22
 784 736 784 736 847 690 c 0,23,24
 1006 575 1006 575 1006 380 c 0,25,26
 1006 233 1006 233 921 131 c 0,27,28
 826 17 826 17 635 -14 c 1,29,-1
 635 -174 l 1,30,-1
 533 -174 l 1,31,-1
 533 -20 l 1,32,33
 361 -18 361 -18 177 43 c 1,0,-1
533 1300 m 1,34,35
 481 1288 481 1288 448 1271 c 0,36,37
 328 1209 328 1209 328 1084 c 0,38,39
 328 993 328 993 399 927 c 0,40,41
 444 886 444 886 533 844 c 1,42,-1
 533 1300 l 1,34,35
635 121 m 1,43,44
 840 173 840 173 840 367 c 0,45,46
 840 485 840 485 750 553 c 0,47,48
 718 577 718 577 635 617 c 1,49,-1
 635 121 l 1,43,44
EndSplineSet
EndChar

StartChar: percent
Encoding: 37 37 6
Width: 1544
VWidth: 1433
GlyphClass: 1
Flags: W
LayerCount: 2
Fore
SplineSet
368 1429 m 0,0,1
 543 1429 543 1429 609 1282 c 0,2,3
 651 1190 651 1190 651 1028 c 0,4,5
 651 846 651 846 598 752 c 0,6,7
 529 626 529 626 363 626 c 0,8,9
 185 626 185 626 118 773 c 0,10,11
 76 865 76 865 76 1028 c 0,12,13
 76 1209 76 1209 128 1304 c 0,14,15
 198 1429 198 1429 368 1429 c 0,0,1
362 1335 m 0,16,17
 274 1335 274 1335 233 1238 c 0,18,19
 203 1169 203 1169 203 1027 c 0,20,21
 203 720 203 720 364 720 c 0,22,23
 524 720 524 720 524 1028 c 0,24,25
 524 1335 524 1335 362 1335 c 0,16,17
435 -41 m 1,26,-1
 994 1458 l 1,27,-1
 1114 1458 l 1,28,-1
 555 -41 l 1,29,-1
 435 -41 l 1,26,-1
1186 791 m 0,30,31
 1361 791 1361 791 1427 644 c 0,32,33
 1469 551 1469 551 1469 390 c 0,34,35
 1469 209 1469 209 1416 114 c 0,36,37
 1347 -12 1347 -12 1181 -12 c 0,38,39
 1002 -12 1002 -12 935 135 c 0,40,41
 893 227 893 227 893 390 c 0,42,43
 893 571 893 571 946 666 c 0,44,45
 1015 791 1015 791 1186 791 c 0,30,31
1179 697 m 0,46,47
 1091 697 1091 697 1050 600 c 0,48,49
 1020 530 1020 530 1020 389 c 0,50,51
 1020 82 1020 82 1181 82 c 256,52,53
 1342 82 1342 82 1342 390 c 0,54,55
 1342 697 1342 697 1179 697 c 0,46,47
EndSplineSet
EndChar

StartChar: ampersand
Encoding: 38 38 7
Width: 1374
VWidth: 1433
GlyphClass: 1
Flags: W
LayerCount: 2
Fore
SplineSet
1098 0 m 1,0,-1
 988 135 l 1,1,2
 912 68 912 68 844 36 c 0,3,4
 725 -20 725 -20 568 -20 c 0,5,6
 387 -20 387 -20 274 62 c 0,7,8
 125 168 125 168 125 360 c 0,9,10
 125 545 125 545 264 663 c 0,11,12
 327 716 327 716 438 768 c 1,13,14
 379 836 379 836 343 889 c 0,15,16
 266 1005 266 1005 266 1118 c 0,17,18
 266 1259 266 1259 366 1349 c 0,19,20
 465 1437 465 1437 631 1437 c 0,21,22
 802 1437 802 1437 903 1350 c 0,23,24
 997 1268 997 1268 997 1125 c 0,25,26
 997 946 997 946 844 840 c 0,27,28
 786 800 786 800 655 742 c 1,29,-1
 988 354 l 1,30,31
 1050 435 1050 435 1085 547 c 0,32,33
 1115 647 1115 647 1122 745 c 1,34,-1
 1272 745 l 1,35,36
 1254 578 1254 578 1207 455 c 0,37,38
 1170 362 1170 362 1088 244 c 1,39,-1
 1292 0 l 1,40,-1
 1098 0 l 1,0,-1
580 837 m 1,41,-1
 606 849 l 2,42,43
 713 898 713 898 777 960 c 0,44,45
 833 1014 833 1014 833 1107 c 256,46,47
 833 1200 833 1200 784 1248 c 0,48,49
 727 1305 727 1305 631 1305 c 0,50,51
 536 1305 536 1305 481 1251 c 0,52,53
 430 1200 430 1200 430 1118 c 0,54,55
 430 994 430 994 580 837 c 1,41,-1
512 680 m 1,56,57
 418 627 418 627 370 572 c 0,58,59
 299 490 299 490 299 376 c 0,60,61
 299 242 299 242 393 174 c 0,62,63
 475 115 475 115 590 115 c 0,64,65
 766 115 766 115 893 239 c 1,66,-1
 512 680 l 1,56,57
EndSplineSet
EndChar

StartChar: quotesingle
Encoding: 39 39 8
Width: 369
VWidth: 1433
GlyphClass: 1
Flags: W
LayerCount: 2
Fore
SplineSet
112 1038 m 1,0,-1
 102 1497 l 1,1,-1
 266 1497 l 1,2,-1
 256 1038 l 1,3,-1
 112 1038 l 1,0,-1
EndSplineSet
EndChar

StartChar: parenleft
Encoding: 40 40 9
Width: 737
VWidth: 1433
GlyphClass: 1
Flags: W
LayerCount: 2
Fore
SplineSet
660 -231 m 1,0,-1
 582 -317 l 1,1,2
 465 -217 465 -217 368 -72 c 0,3,4
 154 247 154 247 154 623 c 0,5,6
 154 998 154 998 368 1317 c 0,7,8
 464 1461 464 1461 582 1563 c 1,9,-1
 660 1477 l 1,10,11
 568 1388 568 1388 489 1253 c 0,12,13
 318 962 318 962 318 623 c 0,14,15
 318 285 318 285 489 -7 c 0,16,17
 566 -140 566 -140 660 -231 c 1,0,-1
EndSplineSet
EndChar

StartChar: parenright
Encoding: 41 41 10
Width: 737
VWidth: 1433
GlyphClass: 1
Flags: W
LayerCount: 2
Fore
SplineSet
78 1477 m 1,0,-1
 156 1563 l 1,1,2
 273 1462 273 1462 370 1317 c 0,3,4
 584 998 584 998 584 622 c 0,5,6
 584 247 584 247 370 -72 c 0,7,8
 274 -216 274 -216 156 -317 c 1,9,-1
 78 -231 l 1,10,11
 170 -142 170 -142 249 -8 c 0,12,13
 420 283 420 283 420 623 c 0,14,15
 420 961 420 961 249 1253 c 0,16,17
 172 1385 172 1385 78 1477 c 1,0,-1
EndSplineSet
EndChar

StartChar: asterisk
Encoding: 42 42 11
Width: 1180
VWidth: 1433
GlyphClass: 1
Flags: W
LayerCount: 2
Fore
SplineSet
201 1154 m 1,0,-1
 250 1306 l 1,1,-1
 535 1189 l 1,2,-1
 510 1497 l 1,3,-1
 670 1497 l 1,4,-1
 643 1189 l 1,5,-1
 930 1306 l 1,6,-1
 979 1154 l 1,7,-1
 684 1083 l 1,8,-1
 875 862 l 1,9,-1
 746 768 l 1,10,-1
 590 1020 l 1,11,-1
 434 768 l 1,12,-1
 305 862 l 1,13,-1
 496 1083 l 1,14,-1
 201 1154 l 1,0,-1
EndSplineSet
EndChar

StartChar: plus
Encoding: 43 43 12
Width: 1180
VWidth: 1433
GlyphClass: 1
Flags: W
LayerCount: 2
Fore
SplineSet
529 457 m 1,0,-1
 72 457 l 1,1,-1
 72 580 l 1,2,-1
 529 580 l 1,3,-1
 529 1038 l 1,4,-1
 652 1038 l 1,5,-1
 652 580 l 1,6,-1
 1108 580 l 1,7,-1
 1108 457 l 1,8,-1
 652 457 l 1,9,-1
 652 0 l 1,10,-1
 529 0 l 1,11,-1
 529 457 l 1,0,-1
EndSplineSet
EndChar

StartChar: comma
Encoding: 44 44 13
Width: 590
VWidth: 1433
GlyphClass: 1
Flags: W
LayerCount: 2
Fore
SplineSet
233 209 m 1,0,-1
 431 209 l 1,1,-1
 254 -250 l 1,2,-1
 93 -250 l 1,3,-1
 233 209 l 1,0,-1
EndSplineSet
EndChar

StartChar: hyphen
Encoding: 45 45 14
Width: 637
VWidth: 1433
GlyphClass: 1
Flags: W
LayerCount: 2
Fore
SplineSet
82 510 m 1,0,-1
 82 635 l 1,1,-1
 555 635 l 1,2,-1
 555 510 l 1,3,-1
 82 510 l 1,0,-1
EndSplineSet
EndChar

StartChar: period
Encoding: 46 46 15
Width: 590
VWidth: 1433
GlyphClass: 1
Flags: W
LayerCount: 2
Fore
SplineSet
297 222 m 0,0,1
 346 222 346 222 380 189 c 0,2,3
 416 154 416 154 416 101 c 0,4,5
 416 49 416 49 380 13 c 0,6,7
 346 -20 346 -20 295 -20 c 256,8,9
 244 -20 244 -20 210 13 c 0,10,11
 174 49 174 49 174 101 c 0,12,13
 174 154 174 154 210 189 c 0,14,15
 245 222 245 222 297 222 c 0,0,1
EndSplineSet
EndChar

StartChar: slash
Encoding: 47 47 16
Width: 545
VWidth: 1433
GlyphClass: 1
Flags: W
LayerCount: 2
Fore
SplineSet
61 -41 m 1,0,-1
 348 1458 l 1,1,-1
 483 1458 l 1,2,-1
 196 -41 l 1,3,-1
 61 -41 l 1,0,-1
EndSplineSet
EndChar

StartChar: zero
Encoding: 48 48 17
Width: 1180
VWidth: 1433
GlyphClass: 1
Flags: W
LayerCount: 2
Fore
SplineSet
597 1437 m 0,0,1
 1077 1437 1077 1437 1077 709 c 0,2,3
 1077 383 1077 383 985 208 c 0,4,5
 864 -20 864 -20 590 -20 c 0,6,7
 292 -20 292 -20 175 248 c 0,8,9
 102 416 102 416 102 710 c 0,10,11
 102 1035 102 1035 194 1209 c 0,12,13
 315 1437 315 1437 597 1437 c 0,0,1
585 1302 m 0,14,15
 483 1302 483 1302 406 1235 c 0,16,17
 268 1115 268 1115 268 708 c 0,18,19
 268 410 268 410 337 275 c 0,20,21
 418 115 418 115 590 115 c 0,22,23
 776 115 776 115 855 304 c 0,24,25
 911 436 911 436 911 710 c 0,26,27
 911 1008 911 1008 842 1142 c 0,28,29
 761 1302 761 1302 585 1302 c 0,14,15
EndSplineSet
EndChar

StartChar: one
Encoding: 49 49 18
Width: 1180
VWidth: 1433
GlyphClass: 1
Flags: W
LayerCount: 2
Fore
SplineSet
575 0 m 1,0,-1
 575 1239 l 1,1,-1
 286 1055 l 1,2,-1
 217 1180 l 1,3,-1
 591 1417 l 1,4,-1
 733 1417 l 1,5,-1
 733 0 l 1,6,-1
 575 0 l 1,0,-1
EndSplineSet
EndChar

StartChar: two
Encoding: 50 50 19
Width: 1180
VWidth: 1433
GlyphClass: 1
Flags: W
LayerCount: 2
Fore
SplineSet
131 0 m 1,0,-1
 131 143 l 1,1,2
 456 435 456 435 605 603 c 0,3,4
 739 755 739 755 795 863 c 0,5,6
 848 968 848 968 848 1062 c 0,7,8
 848 1169 848 1169 769 1234 c 0,9,10
 682 1306 682 1306 542 1306 c 0,11,12
 382 1306 382 1306 213 1201 c 1,13,-1
 172 1341 l 1,14,15
 368 1437 368 1437 562 1437 c 0,16,17
 752 1437 752 1437 874 1353 c 0,18,19
 1014 1258 1014 1258 1014 1072 c 0,20,21
 1014 932 1014 932 933 794 c 0,22,23
 838 629 838 629 562 353 c 0,24,25
 456 247 456 247 328 135 c 1,26,-1
 1026 135 l 1,27,-1
 1026 0 l 1,28,-1
 131 0 l 1,0,-1
EndSplineSet
EndChar

StartChar: three
Encoding: 51 51 20
Width: 1180
VWidth: 1433
GlyphClass: 1
Flags: W
LayerCount: 2
Fore
SplineSet
126 44 m 1,0,-1
 163 176 l 1,1,2
 342 111 342 111 494 111 c 0,3,4
 660 111 660 111 751 197 c 0,5,6
 838 280 838 280 838 406 c 0,7,8
 838 558 838 558 695 629 c 0,9,10
 584 684 584 684 391 684 c 0,11,12
 351 684 351 684 312 680 c 1,13,-1
 312 815 l 1,14,15
 354 811 354 811 397 811 c 0,16,17
 573 811 573 811 680 870 c 0,18,19
 820 947 820 947 820 1084 c 0,20,21
 820 1185 820 1185 744 1245 c 0,22,23
 665 1306 665 1306 528 1306 c 0,24,25
 382 1306 382 1306 204 1238 c 1,26,-1
 173 1370 l 1,27,28
 360 1437 360 1437 544 1437 c 0,29,30
 754 1437 754 1437 875 1338 c 0,31,32
 986 1248 986 1248 986 1099 c 0,33,34
 986 980 986 980 918 890 c 0,35,36
 838 784 838 784 667 749 c 1,37,38
 810 736 810 736 891 666 c 0,39,40
 1004 571 1004 571 1004 402 c 0,41,42
 1004 202 1004 202 852 84 c 0,43,44
 719 -20 719 -20 503 -20 c 0,45,46
 320 -20 320 -20 126 44 c 1,0,-1
EndSplineSet
EndChar

StartChar: four
Encoding: 52 52 21
Width: 1180
VWidth: 1433
GlyphClass: 1
Flags: W
LayerCount: 2
Fore
SplineSet
709 0 m 1,0,-1
 709 408 l 1,1,-1
 70 408 l 1,2,-1
 70 563 l 1,3,-1
 680 1417 l 1,4,-1
 865 1417 l 1,5,-1
 865 543 l 1,6,-1
 1084 543 l 1,7,-1
 1084 408 l 1,8,-1
 865 408 l 1,9,-1
 865 0 l 1,10,-1
 709 0 l 1,0,-1
709 543 m 1,11,-1
 709 1235 l 1,12,-1
 220 543 l 1,13,-1
 709 543 l 1,11,-1
EndSplineSet
EndChar

StartChar: five
Encoding: 53 53 22
Width: 1180
VWidth: 1433
GlyphClass: 1
Flags: W
LayerCount: 2
Fore
SplineSet
147 70 m 1,0,-1
 207 203 l 1,1,2
 369 111 369 111 514 111 c 0,3,4
 677 111 677 111 775 216 c 0,5,6
 867 316 867 316 867 467 c 0,7,8
 867 597 867 597 790 678 c 0,9,10
 704 770 704 770 549 770 c 0,11,12
 385 770 385 770 186 694 c 1,13,-1
 207 1417 l 1,14,-1
 972 1417 l 1,15,-1
 972 1282 l 1,16,-1
 368 1282 l 1,17,-1
 351 868 l 1,18,19
 469 901 469 901 574 901 c 0,20,21
 781 901 781 901 902 788 c 0,22,23
 1033 666 1033 666 1033 459 c 0,24,25
 1033 233 1033 233 868 95 c 0,26,27
 729 -20 729 -20 518 -20 c 0,28,29
 332 -20 332 -20 147 70 c 1,0,-1
EndSplineSet
EndChar

StartChar: six
Encoding: 54 54 23
Width: 1180
VWidth: 1433
GlyphClass: 1
Flags: W
LayerCount: 2
Fore
SplineSet
960 1435 m 1,0,-1
 952 1302 l 1,1,2
 898 1306 898 1306 868 1306 c 0,3,4
 581 1306 581 1306 439 1095 c 0,5,6
 344 955 344 955 317 731 c 1,7,8
 447 895 447 895 658 895 c 0,9,10
 790 895 790 895 897 825 c 0,11,12
 1075 708 1075 708 1075 449 c 0,13,14
 1075 239 1075 239 944 109 c 0,15,16
 814 -20 814 -20 608 -20 c 0,17,18
 351 -20 351 -20 235 162 c 0,19,20
 139 313 139 313 139 566 c 0,21,22
 139 868 139 868 256 1092 c 0,23,24
 365 1298 365 1298 553 1378 c 0,25,26
 689 1437 689 1437 871 1437 c 0,27,28
 884 1437 884 1437 960 1435 c 1,0,-1
613 764 m 0,29,30
 480 764 480 764 396 674 c 0,31,32
 313 587 313 587 313 434 c 0,33,34
 313 286 313 286 394 198 c 0,35,36
 476 111 476 111 611 111 c 256,37,38
 746 111 746 111 828 198 c 0,39,40
 909 286 909 286 909 436 c 0,41,42
 909 588 909 588 833 673 c 0,43,44
 751 764 751 764 613 764 c 0,29,30
EndSplineSet
EndChar

StartChar: seven
Encoding: 55 55 24
Width: 1180
VWidth: 1433
GlyphClass: 1
Flags: W
LayerCount: 2
Fore
SplineSet
426 0 m 1,0,-1
 246 0 l 1,1,-1
 873 1282 l 1,2,-1
 121 1282 l 1,3,-1
 121 1417 l 1,4,-1
 1041 1417 l 1,5,-1
 1041 1282 l 1,6,-1
 426 0 l 1,0,-1
EndSplineSet
EndChar

StartChar: eight
Encoding: 56 56 25
Width: 1180
VWidth: 1433
GlyphClass: 1
Flags: W
LayerCount: 2
Fore
SplineSet
435 735 m 1,0,1
 307 792 307 792 248 851 c 0,2,3
 158 942 158 942 158 1082 c 0,4,5
 158 1251 158 1251 280 1344 c 256,6,7
 402 1437 402 1437 592 1437 c 0,8,9
 785 1437 785 1437 908 1343 c 0,10,11
 1026 1252 1026 1252 1026 1085 c 0,12,13
 1026 930 1026 930 902 834 c 0,14,15
 858 800 858 800 766 754 c 1,16,17
 888 703 888 703 958 641 c 0,18,19
 1067 544 1067 544 1067 383 c 0,20,21
 1067 192 1067 192 934 85 c 0,22,23
 805 -20 805 -20 589 -20 c 0,24,25
 379 -20 379 -20 248 81 c 0,26,27
 113 184 113 184 113 364 c 0,28,29
 113 641 113 641 435 735 c 1,0,1
638 807 m 1,30,-1
 656 816 l 2,31,32
 742 858 742 858 794 911 c 0,33,34
 862 980 862 980 862 1080 c 0,35,36
 862 1188 862 1188 790 1245 c 0,37,38
 712 1306 712 1306 591 1306 c 0,39,40
 473 1306 473 1306 397 1249 c 0,41,42
 322 1194 322 1194 322 1083 c 0,43,44
 322 1005 322 1005 369 952 c 0,45,46
 431 882 431 882 638 807 c 1,30,-1
579 678 m 0,47,48
 279 590 279 590 279 371 c 0,49,50
 279 250 279 250 367 181 c 0,51,52
 456 111 456 111 591 111 c 0,53,54
 727 111 727 111 815 184 c 0,55,56
 901 254 901 254 901 365 c 0,57,58
 901 448 901 448 855 509 c 0,59,60
 813 567 813 567 687 630 c 0,61,62
 652 648 652 648 612 665 c 0,63,64
 580 679 580 679 579 678 c 0,47,48
EndSplineSet
EndChar

StartChar: nine
Encoding: 57 57 26
Width: 1180
VWidth: 1433
GlyphClass: 1
Flags: W
LayerCount: 2
Fore
SplineSet
219 -18 m 1,0,-1
 227 115 l 1,1,2
 277 111 277 111 311 111 c 0,3,4
 598 111 598 111 740 322 c 0,5,6
 835 462 835 462 862 686 c 1,7,8
 732 522 732 522 521 522 c 0,9,10
 389 522 389 522 282 592 c 0,11,12
 104 709 104 709 104 967 c 0,13,14
 104 1178 104 1178 235 1308 c 0,15,16
 366 1437 366 1437 571 1437 c 0,17,18
 747 1437 747 1437 862 1346 c 0,19,20
 1040 1205 1040 1205 1040 852 c 0,21,22
 1040 549 1040 549 923 325 c 0,23,24
 814 119 814 119 626 38 c 0,25,26
 490 -20 490 -20 308 -20 c 0,27,28
 289 -20 289 -20 219 -18 c 1,0,-1
564 1306 m 0,29,30
 434 1306 434 1306 352 1219 c 256,31,32
 270 1132 270 1132 270 979 c 0,33,34
 270 831 270 831 346 744 c 0,35,36
 427 653 427 653 562 653 c 0,37,38
 699 653 699 653 783 743 c 0,39,40
 866 830 866 830 866 982 c 0,41,42
 866 1133 866 1133 784 1219 c 0,43,44
 701 1306 701 1306 564 1306 c 0,29,30
EndSplineSet
EndChar

StartChar: colon
Encoding: 58 58 27
Width: 590
VWidth: 1433
GlyphClass: 1
Flags: W
LayerCount: 2
Fore
SplineSet
340 222 m 0,0,1
 389 222 389 222 423 189 c 0,2,3
 459 154 459 154 459 101 c 0,4,5
 459 49 459 49 423 13 c 0,6,7
 389 -20 389 -20 338 -20 c 256,8,9
 287 -20 287 -20 253 13 c 0,10,11
 217 49 217 49 217 101 c 0,12,13
 217 154 217 154 253 189 c 0,14,15
 288 222 288 222 340 222 c 0,0,1
340 983 m 0,16,17
 389 983 389 983 423 950 c 0,18,19
 459 914 459 914 459 862 c 256,20,21
 459 810 459 810 423 774 c 0,22,23
 389 741 389 741 338 741 c 256,24,25
 287 741 287 741 253 774 c 0,26,27
 217 810 217 810 217 862 c 0,28,29
 217 915 217 915 253 950 c 0,30,31
 288 983 288 983 340 983 c 0,16,17
EndSplineSet
EndChar

StartChar: semicolon
Encoding: 59 59 28
Width: 590
VWidth: 1433
GlyphClass: 1
Flags: W
LayerCount: 2
Fore
SplineSet
233 209 m 1,0,-1
 431 209 l 1,1,-1
 254 -250 l 1,2,-1
 93 -250 l 1,3,-1
 233 209 l 1,0,-1
340 983 m 0,4,5
 388 983 388 983 423 950 c 0,6,7
 459 914 459 914 459 862 c 256,8,9
 459 810 459 810 423 774 c 0,10,11
 389 741 389 741 338 741 c 256,12,13
 287 741 287 741 253 774 c 0,14,15
 217 810 217 810 217 862 c 0,16,17
 217 915 217 915 253 950 c 0,18,19
 288 983 288 983 340 983 c 0,4,5
EndSplineSet
EndChar

StartChar: less
Encoding: 60 60 29
Width: 1180
VWidth: 1433
GlyphClass: 1
Flags: W
LayerCount: 2
Fore
SplineSet
231 519 m 1,0,-1
 1102 113 l 1,1,-1
 1102 -20 l 1,2,-1
 66 466 l 1,3,-1
 66 572 l 1,4,-1
 1102 1059 l 1,5,-1
 1102 925 l 1,6,-1
 231 519 l 1,0,-1
EndSplineSet
EndChar

StartChar: equal
Encoding: 61 61 30
Width: 1180
VWidth: 1433
GlyphClass: 1
Flags: W
LayerCount: 2
Fore
SplineSet
72 604 m 1,0,-1
 72 727 l 1,1,-1
 1108 727 l 1,2,-1
 1108 604 l 1,3,-1
 72 604 l 1,0,-1
72 309 m 1,4,-1
 72 432 l 1,5,-1
 1108 432 l 1,6,-1
 1108 309 l 1,7,-1
 72 309 l 1,4,-1
EndSplineSet
EndChar

StartChar: greater
Encoding: 62 62 31
Width: 1180
VWidth: 1433
GlyphClass: 1
Flags: W
LayerCount: 2
Fore
SplineSet
949 519 m 1,0,-1
 78 925 l 1,1,-1
 78 1059 l 1,2,-1
 1114 572 l 1,3,-1
 1114 466 l 1,4,-1
 78 -20 l 1,5,-1
 78 113 l 1,6,-1
 949 519 l 1,0,-1
EndSplineSet
EndChar

StartChar: question
Encoding: 63 63 32
Width: 840
VWidth: 1433
GlyphClass: 1
Flags: W
LayerCount: 2
Fore
SplineSet
446 369 m 1,0,-1
 307 369 l 1,1,-1
 307 428 l 2,2,3
 308 596 308 596 327 641 c 0,4,5
 350 701 350 701 477 821 c 0,6,7
 560 898 560 898 589 942 c 0,8,9
 624 996 624 996 624 1053 c 0,10,11
 624 1139 624 1139 558 1187 c 0,12,13
 505 1225 505 1225 425 1225 c 0,14,15
 310 1225 310 1225 145 1129 c 1,16,-1
 102 1260 l 1,17,18
 273 1350 273 1350 442 1350 c 0,19,20
 608 1350 608 1350 706 1264 c 0,21,22
 798 1184 798 1184 798 1058 c 0,23,24
 798 962 798 962 737 877 c 0,25,26
 702 828 702 828 619 751 c 0,27,28
 506 646 506 646 473 597 c 0,29,30
 446 553 446 553 446 476 c 2,31,-1
 446 369 l 1,0,-1
381 222 m 0,32,33
 430 222 430 222 464 189 c 0,34,35
 500 154 500 154 500 101 c 0,36,37
 500 49 500 49 464 13 c 0,38,39
 430 -20 430 -20 379 -20 c 256,40,41
 328 -20 328 -20 294 13 c 0,42,43
 258 49 258 49 258 101 c 0,44,45
 258 154 258 154 294 189 c 0,46,47
 329 222 329 222 381 222 c 0,32,33
EndSplineSet
EndChar

StartChar: at
Encoding: 64 64 33
Width: 1714
VWidth: 1433
GlyphClass: 1
Flags: W
LayerCount: 2
Fore
SplineSet
1177 157 m 1,0,-1
 1221 56 l 1,1,2
 1042 -20 1042 -20 863 -20 c 0,3,4
 567 -20 567 -20 355 186 c 0,5,6
 135 400 135 400 135 709 c 0,7,8
 135 996 135 996 324 1200 c 0,9,10
 428 1313 428 1313 571 1374 c 0,11,12
 717 1437 717 1437 882 1437 c 0,13,14
 1081 1437 1081 1437 1255 1350 c 0,15,16
 1433 1261 1433 1261 1515 1100 c 0,17,18
 1579 973 1579 973 1579 817 c 0,19,20
 1579 583 1579 583 1452 444 c 0,21,22
 1328 309 1328 309 1182 309 c 0,23,24
 1098 309 1098 309 1054 372 c 0,25,26
 1031 405 1031 405 1030 454 c 1,27,28
 923 309 923 309 761 309 c 0,29,30
 633 309 633 309 559 385 c 0,31,32
 477 467 477 467 477 596 c 0,33,34
 477 724 477 724 548 843 c 0,35,36
 691 1083 691 1083 960 1083 c 0,37,38
 1085 1083 1085 1083 1221 1038 c 1,39,-1
 1149 588 l 2,40,41
 1139 525 1139 525 1139 495 c 0,42,43
 1139 455 1139 455 1162 436 c 0,44,45
 1181 420 1181 420 1206 420 c 0,46,47
 1263 420 1263 420 1325 476 c 0,48,49
 1392 537 1392 537 1430 649 c 0,50,51
 1460 739 1460 739 1460 830 c 0,52,53
 1460 1045 1460 1045 1298 1181 c 0,54,55
 1127 1326 1127 1326 884 1326 c 0,56,57
 603 1326 603 1326 418 1127 c 0,58,59
 254 951 254 951 254 712 c 0,60,61
 254 536 254 536 346 383 c 0,62,63
 430 244 430 244 576 167 c 0,64,65
 719 91 719 91 887 91 c 0,66,67
 1027 91 1027 91 1177 157 c 1,0,-1
1075 964 m 1,68,69
 1009 985 1009 985 962 985 c 0,70,71
 831 985 831 985 733 876 c 0,72,73
 629 760 629 760 629 613 c 0,74,75
 629 534 629 534 666 480 c 0,76,77
 707 420 707 420 788 420 c 0,78,79
 888 420 888 420 972 509 c 0,80,81
 999 539 999 539 1009 572 c 0,82,83
 1014 587 1014 587 1020 624 c 2,84,-1
 1075 964 l 1,68,69
EndSplineSet
EndChar

StartChar: A
Encoding: 65 65 34
Width: 1276
VWidth: 1433
GlyphClass: 1
Flags: W
LayerCount: 2
Fore
SplineSet
897 496 m 1,0,-1
 369 496 l 1,1,-1
 195 0 l 1,2,-1
 29 0 l 1,3,-1
 533 1417 l 1,4,-1
 740 1417 l 1,5,-1
 1248 0 l 1,6,-1
 1071 0 l 1,7,-1
 897 496 l 1,0,-1
848 631 m 1,8,-1
 722 1004 l 2,9,10
 673 1147 673 1147 635 1277 c 1,11,12
 599 1156 599 1156 547 1003 c 2,13,-1
 418 631 l 1,14,-1
 848 631 l 1,8,-1
EndSplineSet
EndChar

StartChar: B
Encoding: 66 66 35
Width: 1126
VWidth: 1433
GlyphClass: 1
Flags: W
LayerCount: 2
Fore
SplineSet
184 0 m 1,0,-1
 184 1417 l 1,1,-1
 405 1417 l 2,2,3
 569 1417 569 1417 657 1405 c 0,4,5
 977 1361 977 1361 977 1051 c 0,6,7
 977 881 977 881 876 797 c 0,8,9
 813 745 813 745 690 722 c 1,10,11
 1016 685 1016 685 1016 377 c 0,12,13
 1016 143 1016 143 835 52 c 0,14,15
 758 14 758 14 652 4 c 0,16,17
 610 0 610 0 465 0 c 2,18,-1
 184 0 l 1,0,-1
348 782 m 1,19,-1
 422 782 l 2,20,21
 624 782 624 782 698 824 c 0,22,23
 803 884 803 884 803 1031 c 0,24,25
 803 1187 803 1187 705 1241 c 0,26,27
 628 1284 628 1284 422 1284 c 2,28,-1
 348 1284 l 1,29,-1
 348 782 l 1,19,-1
348 133 m 1,30,-1
 422 133 l 2,31,32
 569 133 569 133 643 144 c 0,33,34
 842 174 842 174 842 395 c 0,35,36
 842 562 842 562 706 619 c 0,37,38
 622 655 622 655 422 655 c 2,39,-1
 348 655 l 1,40,-1
 348 133 l 1,30,-1
EndSplineSet
EndChar

StartChar: C
Encoding: 67 67 36
Width: 1202
VWidth: 1433
GlyphClass: 1
Flags: W
LayerCount: 2
Fore
SplineSet
1112 190 m 1,0,-1
 1153 59 l 1,1,2
 950 -20 950 -20 772 -20 c 0,3,4
 480 -20 480 -20 302 168 c 0,5,6
 111 370 111 370 111 698 c 0,7,8
 111 925 111 925 201 1100 c 0,9,10
 301 1293 301 1293 478 1377 c 0,11,12
 606 1437 606 1437 764 1437 c 0,13,14
 949 1437 949 1437 1145 1349 c 1,15,-1
 1092 1218 l 1,16,17
 916 1302 916 1302 767 1302 c 0,18,19
 533 1302 533 1302 409 1125 c 0,20,21
 285 947 285 947 285 697 c 0,22,23
 285 525 285 525 349 384 c 0,24,25
 418 231 418 231 555 162 c 0,26,27
 649 115 649 115 773 115 c 0,28,29
 940 115 940 115 1112 190 c 1,0,-1
EndSplineSet
EndChar

StartChar: D
Encoding: 68 68 37
Width: 1343
VWidth: 1433
GlyphClass: 1
Flags: W
LayerCount: 2
Fore
SplineSet
184 0 m 1,0,-1
 184 1417 l 1,1,-1
 501 1417 l 2,2,3
 666 1417 666 1417 775 1398 c 0,4,5
 1012 1355 1012 1355 1128 1159 c 0,6,7
 1233 981 1233 981 1233 717 c 0,8,9
 1233 461 1233 461 1135 286 c 0,10,11
 1014 71 1014 71 768 22 c 0,12,13
 655 0 655 0 479 0 c 2,14,-1
 184 0 l 1,0,-1
348 135 m 1,15,-1
 491 135 l 2,16,17
 743 135 743 135 867 226 c 0,18,19
 964 297 964 297 1016 437 c 0,20,21
 1059 552 1059 552 1059 706 c 0,22,23
 1059 939 1059 939 966 1095 c 0,24,25
 880 1240 880 1240 706 1269 c 0,26,27
 630 1282 630 1282 467 1282 c 2,28,-1
 348 1282 l 1,29,-1
 348 135 l 1,15,-1
EndSplineSet
EndChar

StartChar: E
Encoding: 69 69 38
Width: 1083
VWidth: 1433
GlyphClass: 1
Flags: W
LayerCount: 2
Fore
SplineSet
184 0 m 1,0,-1
 184 1417 l 1,1,-1
 932 1417 l 1,2,-1
 932 1282 l 1,3,-1
 348 1282 l 1,4,-1
 348 786 l 1,5,-1
 903 786 l 1,6,-1
 903 651 l 1,7,-1
 348 651 l 1,8,-1
 348 135 l 1,9,-1
 962 135 l 1,10,-1
 962 0 l 1,11,-1
 184 0 l 1,0,-1
EndSplineSet
EndChar

StartChar: F
Encoding: 70 70 39
Width: 1047
VWidth: 1433
GlyphClass: 1
Flags: W
LayerCount: 2
Fore
SplineSet
184 0 m 1,0,-1
 184 1417 l 1,1,-1
 936 1417 l 1,2,-1
 936 1282 l 1,3,-1
 348 1282 l 1,4,-1
 348 786 l 1,5,-1
 907 786 l 1,6,-1
 907 651 l 1,7,-1
 348 651 l 1,8,-1
 348 0 l 1,9,-1
 184 0 l 1,0,-1
EndSplineSet
EndChar

StartChar: G
Encoding: 71 71 40
Width: 1378
VWidth: 1433
GlyphClass: 1
Flags: W
LayerCount: 2
Fore
SplineSet
1207 731 m 1,0,-1
 1207 61 l 1,1,2
 1113 25 1113 25 995 2.5 c 128,-1,3
 877 -20 877 -20 776 -20 c 0,4,5
 490 -20 490 -20 311 158 c 0,6,7
 111 356 111 356 111 690 c 0,8,9
 111 1039 111 1039 312 1247 c 0,10,11
 495 1437 495 1437 782 1437 c 0,12,13
 981 1437 981 1437 1197 1337 c 1,14,-1
 1149 1206 l 1,15,16
 962 1302 962 1302 777 1302 c 0,17,18
 537 1302 537 1302 408 1121 c 0,19,20
 285 947 285 947 285 692 c 0,21,22
 285 401 285 401 453 240 c 0,23,24
 584 115 584 115 792 115 c 0,25,26
 915 115 915 115 1043 160 c 1,27,-1
 1043 596 l 1,28,-1
 764 596 l 1,29,-1
 764 731 l 1,30,-1
 1207 731 l 1,0,-1
EndSplineSet
EndChar

StartChar: H
Encoding: 72 72 41
Width: 1378
VWidth: 1433
GlyphClass: 1
Flags: W
LayerCount: 2
Fore
SplineSet
184 0 m 1,0,-1
 184 1417 l 1,1,-1
 348 1417 l 1,2,-1
 348 793 l 1,3,-1
 1030 793 l 1,4,-1
 1030 1417 l 1,5,-1
 1194 1417 l 1,6,-1
 1194 0 l 1,7,-1
 1030 0 l 1,8,-1
 1030 658 l 1,9,-1
 348 658 l 1,10,-1
 348 0 l 1,11,-1
 184 0 l 1,0,-1
EndSplineSet
EndChar

StartChar: I
Encoding: 73 73 42
Width: 532
VWidth: 1433
GlyphClass: 1
Flags: W
LayerCount: 2
Fore
SplineSet
184 0 m 1,0,-1
 184 1417 l 1,1,-1
 348 1417 l 1,2,-1
 348 0 l 1,3,-1
 184 0 l 1,0,-1
EndSplineSet
EndChar

StartChar: J
Encoding: 74 74 43
Width: 741
VWidth: 1433
GlyphClass: 1
Flags: W
LayerCount: 2
Fore
SplineSet
406 1417 m 1,0,-1
 570 1417 l 1,1,-1
 570 463 l 2,2,3
 570 302 570 302 554 229 c 0,4,5
 502 -20 502 -20 210 -20 c 0,6,7
 95 -20 95 -20 -12 20 c 1,8,-1
 2 156 l 1,9,10
 93 115 93 115 195 115 c 0,11,12
 343 115 343 115 380 215 c 0,13,14
 406 284 406 284 406 534 c 2,15,-1
 406 1417 l 1,0,-1
EndSplineSet
EndChar

StartChar: K
Encoding: 75 75 44
Width: 1187
VWidth: 1433
GlyphClass: 1
Flags: W
LayerCount: 2
Fore
SplineSet
184 0 m 1,0,-1
 184 1417 l 1,1,-1
 348 1417 l 1,2,-1
 348 740 l 1,3,-1
 949 1417 l 1,4,-1
 1145 1417 l 1,5,-1
 548 741 l 1,6,-1
 1172 0 l 1,7,-1
 961 0 l 1,8,-1
 348 731 l 1,9,-1
 348 0 l 1,10,-1
 184 0 l 1,0,-1
EndSplineSet
EndChar

StartChar: L
Encoding: 76 76 45
Width: 971
VWidth: 1433
GlyphClass: 1
Flags: W
LayerCount: 2
Fore
SplineSet
184 0 m 1,0,-1
 184 1417 l 1,1,-1
 348 1417 l 1,2,-1
 348 135 l 1,3,-1
 962 135 l 1,4,-1
 962 0 l 1,5,-1
 184 0 l 1,0,-1
EndSplineSet
EndChar

StartChar: M
Encoding: 77 77 46
Width: 1745
VWidth: 1433
GlyphClass: 1
Flags: W
LayerCount: 2
Fore
SplineSet
184 0 m 1,0,-1
 184 1417 l 1,1,-1
 412 1417 l 1,2,-1
 813 345 l 2,3,4
 848 249 848 249 882 147 c 1,5,6
 913 245 913 245 950 345 c 2,7,-1
 1341 1417 l 1,8,-1
 1560 1417 l 1,9,-1
 1560 0 l 1,10,-1
 1396 0 l 1,11,-1
 1396 1180 l 1,12,13
 1329 964 1329 964 1276 818 c 2,14,-1
 970 0 l 1,15,-1
 780 0 l 1,16,-1
 468 809 l 2,17,18
 412 954 412 954 340 1180 c 1,19,-1
 340 0 l 1,20,-1
 184 0 l 1,0,-1
EndSplineSet
EndChar

StartChar: N
Encoding: 78 78 47
Width: 1413
VWidth: 1433
GlyphClass: 1
Flags: W
LayerCount: 2
Fore
SplineSet
184 0 m 1,0,-1
 184 1417 l 1,1,-1
 373 1417 l 1,2,-1
 918 515 l 2,3,4
 978 415 978 415 1047 287 c 2,5,-1
 1076 233 l 1,6,7
 1072 323 1072 323 1072 443 c 2,8,-1
 1072 1417 l 1,9,-1
 1228 1417 l 1,10,-1
 1228 0 l 1,11,-1
 1037 0 l 1,12,-1
 487 911 l 2,13,14
 409 1040 409 1040 336 1182 c 1,15,16
 340 1077 340 1077 340 915 c 2,17,-1
 340 0 l 1,18,-1
 184 0 l 1,0,-1
EndSplineSet
EndChar

StartChar: O
Encoding: 79 79 48
Width: 1475
VWidth: 1433
GlyphClass: 1
Flags: W
LayerCount: 2
Fore
SplineSet
745 1437 m 0,0,1
 1039 1437 1039 1437 1203 1220 c 0,2,3
 1364 1007 1364 1007 1364 709 c 0,4,5
 1364 511 1364 511 1290 346 c 0,6,7
 1127 -20 1127 -20 738 -20 c 0,8,9
 437 -20 437 -20 272 197 c 0,10,11
 111 409 111 409 111 709 c 0,12,13
 111 905 111 905 185 1071 c 0,14,15
 348 1437 348 1437 745 1437 c 0,0,1
732 1302 m 0,16,17
 518 1302 518 1302 395 1126 c 0,18,19
 285 968 285 968 285 708 c 0,20,21
 285 424 285 424 416 263 c 0,22,23
 538 115 538 115 738 115 c 0,24,25
 956 115 956 115 1079 291 c 0,26,27
 1190 448 1190 448 1190 709 c 0,28,29
 1190 994 1190 994 1059 1154 c 0,30,31
 937 1302 937 1302 732 1302 c 0,16,17
EndSplineSet
EndChar

StartChar: P
Encoding: 80 80 49
Width: 1042
VWidth: 1433
GlyphClass: 1
Flags: W
LayerCount: 2
Fore
SplineSet
184 0 m 1,0,-1
 184 1417 l 1,1,-1
 458 1417 l 2,2,3
 714 1417 714 1417 829 1342 c 0,4,5
 993 1236 993 1236 993 1004 c 0,6,7
 993 852 993 852 913 751 c 0,8,9
 834 653 834 653 684 620 c 0,10,11
 586 598 586 598 439 598 c 2,12,-1
 348 598 l 1,13,-1
 348 0 l 1,14,-1
 184 0 l 1,0,-1
348 733 m 1,15,-1
 415 733 l 2,16,17
 620 733 620 733 703 775 c 0,18,19
 819 834 819 834 819 1004 c 0,20,21
 819 1094 819 1094 777 1164 c 0,22,23
 727 1247 727 1247 623 1267 c 0,24,25
 548 1282 548 1282 441 1282 c 2,26,-1
 348 1282 l 1,27,-1
 348 733 l 1,15,-1
EndSplineSet
EndChar

StartChar: Q
Encoding: 81 81 50
Width: 1475
VWidth: 1433
GlyphClass: 1
Flags: W
LayerCount: 2
Fore
SplineSet
917 2 m 1,0,1
 1054 -129 1054 -129 1229 -252 c 1,2,-1
 1143 -350 l 1,3,4
 931 -217 931 -217 716 -20 c 1,5,6
 497 -10 497 -10 360 103 c 0,7,8
 238 204 238 204 168 385 c 0,9,10
 111 534 111 534 111 708 c 0,11,12
 111 905 111 905 185 1071 c 0,13,14
 347 1437 347 1437 738 1437 c 0,15,16
 1038 1437 1038 1437 1203 1220 c 0,17,18
 1364 1008 1364 1008 1364 708 c 0,19,20
 1364 511 1364 511 1290 345 c 0,21,22
 1204 150 1204 150 1055 60 c 0,23,24
 999 25 999 25 917 2 c 1,0,1
732 1302 m 0,25,26
 518 1302 518 1302 395 1126 c 0,27,28
 285 968 285 968 285 708 c 0,29,30
 285 423 285 423 416 262 c 0,31,32
 538 114 538 114 738 114 c 0,33,34
 956 114 956 114 1079 290 c 0,35,36
 1190 448 1190 448 1190 709 c 0,37,38
 1190 994 1190 994 1059 1154 c 0,39,40
 937 1302 937 1302 732 1302 c 0,25,26
EndSplineSet
EndChar

StartChar: R
Encoding: 82 82 51
Width: 1102
VWidth: 1433
GlyphClass: 1
Flags: W
LayerCount: 2
Fore
SplineSet
184 0 m 1,0,-1
 184 1417 l 1,1,-1
 486 1417 l 2,2,3
 711 1417 711 1417 819 1353 c 0,4,5
 985 1254 985 1254 985 1045 c 0,6,7
 985 870 985 870 864 769 c 0,8,9
 796 713 796 713 684 688 c 1,10,11
 777 660 777 660 817 601 c 0,12,13
 846 560 846 560 899 430 c 2,14,-1
 1073 0 l 1,15,-1
 899 0 l 1,16,-1
 749 355 l 2,17,18
 706 456 706 456 676 509 c 0,19,20
 624 599 624 599 541 617 c 0,21,22
 489 629 489 629 396 629 c 2,23,-1
 348 629 l 1,24,-1
 348 0 l 1,25,-1
 184 0 l 1,0,-1
348 764 m 1,26,-1
 424 764 l 2,27,28
 591 764 591 764 677 804 c 0,29,30
 811 866 811 866 811 1029 c 0,31,32
 811 1183 811 1183 696 1242 c 0,33,34
 619 1282 619 1282 448 1282 c 2,35,-1
 348 1282 l 1,36,-1
 348 764 l 1,26,-1
EndSplineSet
EndChar

StartChar: S
Encoding: 83 83 52
Width: 1065
VWidth: 1433
GlyphClass: 1
Flags: W
LayerCount: 2
Fore
SplineSet
125 43 m 1,0,-1
 146 186 l 1,1,2
 340 115 340 115 491 115 c 0,3,4
 627 115 627 115 706 187 c 0,5,6
 781 255 781 255 781 367 c 0,7,8
 781 472 781 472 718 530 c 0,9,10
 666 580 666 580 492 657 c 0,11,12
 337 726 337 726 285 758 c 0,13,14
 183 822 183 822 143 904 c 0,15,16
 111 969 111 969 111 1054 c 0,17,18
 111 1232 111 1232 232 1334 c 0,19,20
 353 1437 353 1437 555 1437 c 0,21,22
 697 1437 697 1437 889 1374 c 1,23,-1
 856 1227 l 1,24,25
 699 1302 699 1302 553 1302 c 0,26,27
 441 1302 441 1302 364 1244 c 0,28,29
 285 1185 285 1185 285 1084 c 0,30,31
 285 1003 285 1003 337 946 c 0,32,33
 377 902 377 902 430 875 c 0,34,35
 484 846 484 846 558 815 c 0,36,37
 709 752 709 752 771 711 c 0,38,39
 955 590 955 590 955 381 c 0,40,41
 955 192 955 192 822 83 c 0,42,43
 695 -20 695 -20 486 -20 c 0,44,45
 323 -20 323 -20 125 43 c 1,0,-1
EndSplineSet
EndChar

StartChar: T
Encoding: 84 84 53
Width: 1055
VWidth: 1433
GlyphClass: 1
Flags: W
LayerCount: 2
Fore
SplineSet
443 0 m 1,0,-1
 443 1282 l 1,1,-1
 29 1282 l 1,2,-1
 29 1417 l 1,3,-1
 1026 1417 l 1,4,-1
 1026 1282 l 1,5,-1
 607 1282 l 1,6,-1
 607 0 l 1,7,-1
 443 0 l 1,0,-1
EndSplineSet
EndChar

StartChar: U
Encoding: 85 85 54
Width: 1362
VWidth: 1433
GlyphClass: 1
Flags: W
LayerCount: 2
Fore
SplineSet
172 1417 m 1,0,-1
 336 1417 l 1,1,-1
 336 557 l 2,2,3
 336 419 336 419 354 347 c 0,4,5
 390 204 390 204 495 151 c 0,6,7
 567 115 567 115 680 115 c 0,8,9
 887 115 887 115 969 237 c 0,10,11
 1034 334 1034 334 1034 526 c 2,12,-1
 1034 1417 l 1,13,-1
 1190 1417 l 1,14,-1
 1190 625 l 2,15,16
 1190 389 1190 389 1173 311 c 0,17,18
 1137 141 1137 141 989 52 c 0,19,20
 868 -20 868 -20 680 -20 c 0,21,22
 361 -20 361 -20 237 184 c 0,23,24
 183 272 183 272 176 431 c 0,25,26
 172 509 172 509 172 625 c 2,27,-1
 172 1417 l 1,0,-1
EndSplineSet
EndChar

StartChar: V
Encoding: 86 86 55
Width: 1217
VWidth: 1433
GlyphClass: 1
Flags: W
LayerCount: 2
Fore
SplineSet
502 0 m 1,0,-1
 8 1417 l 1,1,-1
 188 1417 l 1,2,-1
 519 446 l 2,3,4
 578 272 578 272 614 144 c 1,5,6
 670 327 670 327 718 467 c 2,7,-1
 1044 1417 l 1,8,-1
 1208 1417 l 1,9,-1
 715 0 l 1,10,-1
 502 0 l 1,0,-1
EndSplineSet
EndChar

StartChar: W
Encoding: 87 87 56
Width: 1759
VWidth: 1433
GlyphClass: 1
Flags: W
LayerCount: 2
Fore
SplineSet
387 0 m 1,0,-1
 70 1417 l 1,1,-1
 242 1417 l 1,2,-1
 445 458 l 2,3,4
 479 297 479 297 502 155 c 1,5,6
 524 288 524 288 564 461 c 2,7,-1
 779 1417 l 1,8,-1
 985 1417 l 1,9,-1
 1204 467 l 2,10,11
 1241 306 1241 306 1266 165 c 1,12,13
 1285 282 1285 282 1324 463 c 2,14,-1
 1532 1417 l 1,15,-1
 1690 1417 l 1,16,-1
 1370 0 l 1,17,-1
 1160 0 l 1,18,-1
 942 947 l 2,19,20
 903 1119 903 1119 879 1254 c 1,21,22
 855 1119 855 1119 816 945 c 2,23,-1
 598 0 l 1,24,-1
 387 0 l 1,0,-1
EndSplineSet
EndChar

StartChar: X
Encoding: 88 88 57
Width: 1260
VWidth: 1433
GlyphClass: 1
Flags: W
LayerCount: 2
Fore
SplineSet
49 0 m 1,0,-1
 532 721 l 1,1,-1
 74 1417 l 1,2,-1
 264 1417 l 1,3,-1
 632 858 l 1,4,-1
 1014 1417 l 1,5,-1
 1194 1417 l 1,6,-1
 727 729 l 1,7,-1
 1210 0 l 1,8,-1
 1014 0 l 1,9,-1
 632 586 l 1,10,-1
 235 0 l 1,11,-1
 49 0 l 1,0,-1
EndSplineSet
EndChar

StartChar: Y
Encoding: 89 89 58
Width: 1147
VWidth: 1433
GlyphClass: 1
Flags: W
LayerCount: 2
Fore
SplineSet
492 0 m 1,0,-1
 492 638 l 1,1,-1
 -4 1417 l 1,2,-1
 189 1417 l 1,3,-1
 484 946 l 2,4,5
 541 855 541 855 581 780 c 1,6,7
 641 888 641 888 680 951 c 2,8,-1
 971 1417 l 1,9,-1
 1151 1417 l 1,10,-1
 656 638 l 1,11,-1
 656 0 l 1,12,-1
 492 0 l 1,0,-1
EndSplineSet
EndChar

StartChar: Z
Encoding: 90 90 59
Width: 1115
VWidth: 1433
GlyphClass: 1
Flags: W
LayerCount: 2
Fore
SplineSet
80 0 m 1,0,-1
 80 135 l 1,1,-1
 822 1282 l 1,2,-1
 104 1282 l 1,3,-1
 104 1417 l 1,4,-1
 1009 1417 l 1,5,-1
 1009 1282 l 1,6,-1
 270 135 l 1,7,-1
 1030 135 l 1,8,-1
 1030 0 l 1,9,-1
 80 0 l 1,0,-1
EndSplineSet
EndChar

StartChar: bracketleft
Encoding: 91 91 60
Width: 737
VWidth: 1433
GlyphClass: 1
Flags: W
LayerCount: 2
Fore
SplineSet
229 -317 m 1,0,-1
 229 1542 l 1,1,-1
 569 1542 l 1,2,-1
 569 1417 l 1,3,-1
 385 1417 l 1,4,-1
 385 -192 l 1,5,-1
 569 -192 l 1,6,-1
 569 -317 l 1,7,-1
 229 -317 l 1,0,-1
EndSplineSet
EndChar

StartChar: backslash
Encoding: 92 92 61
Width: 545
VWidth: 1433
GlyphClass: 1
Flags: W
LayerCount: 2
Fore
SplineSet
348 -41 m 1,0,-1
 61 1458 l 1,1,-1
 196 1458 l 1,2,-1
 483 -41 l 1,3,-1
 348 -41 l 1,0,-1
EndSplineSet
EndChar

StartChar: bracketright
Encoding: 93 93 62
Width: 737
VWidth: 1433
GlyphClass: 1
Flags: W
LayerCount: 2
Fore
SplineSet
508 1542 m 1,0,-1
 508 -317 l 1,1,-1
 168 -317 l 1,2,-1
 168 -192 l 1,3,-1
 352 -192 l 1,4,-1
 352 1417 l 1,5,-1
 168 1417 l 1,6,-1
 168 1542 l 1,7,-1
 508 1542 l 1,0,-1
EndSplineSet
EndChar

StartChar: asciicircum
Encoding: 94 94 63
Width: 1180
VWidth: 1433
GlyphClass: 1
Flags: W
LayerCount: 2
Fore
SplineSet
590 1269 m 1,0,-1
 200 520 l 1,1,-1
 69 520 l 1,2,-1
 540 1417 l 1,3,-1
 640 1417 l 1,4,-1
 1111 520 l 1,5,-1
 980 520 l 1,6,-1
 590 1269 l 1,0,-1
EndSplineSet
EndChar

StartChar: underscore
Encoding: 95 95 64
Width: 1024
VWidth: 1433
GlyphClass: 1
Flags: W
LayerCount: 2
Fore
SplineSet
-32 -303 m 1,0,-1
 -32 -178 l 1,1,-1
 1057 -178 l 1,2,-1
 1057 -303 l 1,3,-1
 -32 -303 l 1,0,-1
EndSplineSet
EndChar

StartChar: grave
Encoding: 96 96 65
Width: 1024
VWidth: 1433
GlyphClass: 1
Flags: W
LayerCount: 2
Fore
SplineSet
455 1497 m 1,0,-1
 705 1198 l 1,1,-1
 555 1198 l 1,2,-1
 256 1497 l 1,3,-1
 455 1497 l 1,0,-1
EndSplineSet
EndChar

StartChar: a
Encoding: 97 97 66
Width: 1051
VWidth: 1433
GlyphClass: 1
Flags: W
LayerCount: 2
Fore
SplineSet
728 121 m 1,0,1
 675 64 675 64 626 34 c 0,2,3
 536 -20 536 -20 418 -20 c 0,4,5
 255 -20 255 -20 169 72 c 0,6,7
 93 153 93 153 93 286 c 0,8,9
 93 492 93 492 266 578 c 0,10,11
 367 629 367 629 566 629 c 0,12,13
 607 629 607 629 716 625 c 1,14,-1
 716 653 l 2,15,16
 716 766 716 766 687 825 c 0,17,18
 635 933 635 933 481 933 c 0,19,20
 355 933 355 933 213 843 c 1,21,-1
 145 955 l 1,22,23
 308 1058 308 1058 498 1058 c 0,24,25
 734 1058 734 1058 821 917 c 0,26,27
 862 850 862 850 869 725 c 0,28,29
 872 681 872 681 872 598 c 2,30,-1
 872 259 l 2,31,32
 871 109 871 109 880 0 c 1,33,-1
 735 0 l 1,34,-1
 728 121 l 1,0,1
716 506 m 1,35,36
 661 510 661 510 599 510 c 0,37,38
 433 510 433 510 357 466 c 0,39,40
 257 409 257 409 257 290 c 0,41,42
 257 206 257 206 307 156 c 0,43,44
 359 105 359 105 446 105 c 0,45,46
 609 105 609 105 716 264 c 1,47,-1
 716 506 l 1,35,36
EndSplineSet
EndChar

StartChar: b
Encoding: 98 98 67
Width: 1149
VWidth: 1433
GlyphClass: 1
Flags: W
LayerCount: 2
Fore
SplineSet
317 0 m 1,0,-1
 170 0 l 1,1,-1
 171 37 l 2,2,3
 178 223 178 223 178 378 c 2,4,-1
 178 1497 l 1,5,-1
 334 1497 l 1,6,-1
 334 895 l 1,7,8
 455 1058 455 1058 640 1058 c 0,9,10
 821 1058 821 1058 938 904 c 0,11,12
 1049 758 1049 758 1049 526 c 0,13,14
 1049 269 1049 269 919 113 c 0,15,16
 808 -20 808 -20 632 -20 c 0,17,18
 507 -20 507 -20 421 50 c 0,19,20
 379 84 379 84 322 158 c 1,21,-1
 317 0 l 1,0,-1
334 299 m 1,22,23
 377 232 377 232 414 192 c 0,24,25
 498 105 498 105 607 105 c 0,26,27
 750 105 750 105 822 236 c 0,28,29
 885 351 885 351 885 522 c 0,30,31
 885 706 885 706 811 823 c 0,32,33
 741 933 741 933 609 933 c 0,34,35
 434 933 434 933 334 739 c 1,36,-1
 334 299 l 1,22,23
EndSplineSet
EndChar

StartChar: c
Encoding: 99 99 68
Width: 944
VWidth: 1433
GlyphClass: 1
Flags: W
LayerCount: 2
Fore
SplineSet
839 197 m 1,0,-1
 899 76 l 1,1,2
 758 -20 758 -20 584 -20 c 0,3,4
 360 -20 360 -20 233 117 c 0,5,6
 100 261 100 261 100 509 c 0,7,8
 100 782 100 782 241 929 c 0,9,10
 364 1058 364 1058 570 1058 c 0,11,12
 731 1058 731 1058 880 975 c 1,13,-1
 821 852 l 1,14,15
 695 933 695 933 569 933 c 0,16,17
 417 933 417 933 340 823 c 0,18,19
 264 714 264 714 264 529 c 0,20,21
 264 330 264 330 354 212 c 0,22,23
 437 105 437 105 586 105 c 0,24,25
 718 105 718 105 839 197 c 1,0,-1
EndSplineSet
EndChar

StartChar: d
Encoding: 100 100 69
Width: 1149
VWidth: 1433
GlyphClass: 1
Flags: W
LayerCount: 2
Fore
SplineSet
814 1497 m 1,0,-1
 970 1497 l 1,1,-1
 970 378 l 2,2,3
 970 223 970 223 977 37 c 2,4,-1
 978 0 l 1,5,-1
 831 0 l 1,6,-1
 826 158 l 1,7,8
 769 84 769 84 727 50 c 0,9,10
 641 -20 641 -20 516 -20 c 0,11,12
 327 -20 327 -20 212 135 c 0,13,14
 99 288 99 288 99 526 c 0,15,16
 99 776 99 776 227 925 c 0,17,18
 341 1058 341 1058 508 1058 c 0,19,20
 693 1058 693 1058 814 895 c 1,21,-1
 814 1497 l 1,0,-1
814 739 m 1,22,23
 714 933 714 933 539 933 c 0,24,25
 407 933 407 933 337 823 c 0,26,27
 263 706 263 706 263 522 c 0,28,29
 263 351 263 351 326 236 c 0,30,31
 398 105 398 105 541 105 c 0,32,33
 650 105 650 105 734 192 c 0,34,35
 771 232 771 232 814 299 c 1,36,-1
 814 739 l 1,22,23
EndSplineSet
EndChar

StartChar: e
Encoding: 101 101 70
Width: 1077
VWidth: 1433
GlyphClass: 1
Flags: W
LayerCount: 2
Fore
SplineSet
264 477 m 1,0,1
 281 303 281 303 344 218 c 0,2,3
 430 105 430 105 598 105 c 0,4,5
 741 105 741 105 882 203 c 1,6,-1
 942 82 l 1,7,8
 780 -20 780 -20 595 -20 c 0,9,10
 349 -20 349 -20 216 141 c 0,11,12
 100 282 100 282 100 519 c 0,13,14
 100 806 100 806 255 950 c 0,15,16
 371 1058 371 1058 552 1058 c 0,17,18
 829 1058 829 1058 924 831 c 0,19,20
 977 703 977 703 981 477 c 1,21,-1
 264 477 l 1,0,1
815 602 m 1,22,23
 812 717 812 717 775 794 c 0,24,25
 708 933 708 933 547 933 c 0,26,27
 393 933 393 933 316 796 c 0,28,29
 272 717 272 717 268 602 c 1,30,-1
 815 602 l 1,22,23
EndSplineSet
EndChar

StartChar: f
Encoding: 102 102 71
Width: 690
VWidth: 1433
GlyphClass: 1
Flags: W
LayerCount: 2
Fore
SplineSet
234 0 m 1,0,-1
 234 913 l 1,1,-1
 66 913 l 1,2,-1
 66 1038 l 1,3,-1
 234 1038 l 1,4,-1
 234 1137 l 2,5,6
 234 1320 234 1320 285 1403 c 0,7,8
 355 1517 355 1517 522 1517 c 0,9,10
 590 1517 590 1517 668 1497 c 1,11,-1
 654 1362 l 1,12,13
 599 1392 599 1392 535 1392 c 0,14,15
 436 1392 436 1392 407 1298 c 0,16,17
 390 1243 390 1243 390 1124 c 2,18,-1
 390 1038 l 1,19,-1
 635 1038 l 1,20,-1
 635 913 l 1,21,-1
 390 913 l 1,22,-1
 390 0 l 1,23,-1
 234 0 l 1,0,-1
EndSplineSet
EndChar

StartChar: g
Encoding: 103 103 72
Width: 1153
VWidth: 1433
GlyphClass: 1
Flags: W
LayerCount: 2
Fore
SplineSet
830 1038 m 1,0,-1
 982 1038 l 1,1,2
 974 798 974 798 974 629 c 2,3,-1
 974 110 l 2,4,5
 974 -65 974 -65 953 -157 c 0,6,7
 919 -303 919 -303 789 -389 c 0,8,9
 680 -461 680 -461 527 -461 c 0,10,11
 320 -461 320 -461 135 -348 c 1,12,-1
 202 -228 l 1,13,14
 359 -336 359 -336 524 -336 c 0,15,16
 707 -336 707 -336 778 -188 c 0,17,18
 818 -105 818 -105 818 96 c 2,19,-1
 818 182 l 1,20,21
 673 18 673 18 501 18 c 0,22,23
 327 18 327 18 212 158 c 0,24,25
 99 295 99 295 99 530 c 0,26,27
 99 784 99 784 224 932 c 0,28,29
 331 1058 331 1058 504 1058 c 0,30,31
 709 1058 709 1058 824 878 c 1,32,-1
 830 1038 l 1,0,-1
818 733 m 1,33,34
 776 813 776 813 724 858 c 0,35,36
 637 933 637 933 537 933 c 0,37,38
 398 933 398 933 326 807 c 0,39,40
 263 696 263 696 263 532 c 0,41,42
 263 373 263 373 329 265 c 0,43,44
 405 143 405 143 543 143 c 0,45,46
 710 143 710 143 818 325 c 1,47,-1
 818 733 l 1,33,34
EndSplineSet
EndChar

StartChar: h
Encoding: 104 104 73
Width: 1190
VWidth: 1433
GlyphClass: 1
Flags: W
LayerCount: 2
Fore
SplineSet
178 0 m 1,0,-1
 178 1497 l 1,1,-1
 334 1497 l 1,2,-1
 334 877 l 1,3,4
 505 1058 505 1058 707 1058 c 0,5,6
 903 1058 903 1058 977 914 c 0,7,8
 1009 850 1009 850 1016 734 c 0,9,10
 1020 664 1020 664 1020 600 c 2,11,-1
 1020 0 l 1,12,-1
 864 0 l 1,13,-1
 864 603 l 2,14,15
 864 759 864 759 842 822 c 0,16,17
 804 933 804 933 663 933 c 0,18,19
 493 933 493 933 334 739 c 1,20,-1
 334 0 l 1,21,-1
 178 0 l 1,0,-1
EndSplineSet
EndChar

StartChar: i
Encoding: 105 105 74
Width: 512
VWidth: 1433
GlyphClass: 1
Flags: W
LayerCount: 2
Fore
SplineSet
178 0 m 1,0,-1
 178 1038 l 1,1,-1
 334 1038 l 1,2,-1
 334 0 l 1,3,-1
 178 0 l 1,0,-1
257 1517 m 0,4,5
 314 1517 314 1517 345 1474 c 0,6,7
 366 1445 366 1445 366 1406 c 0,8,9
 366 1368 366 1368 345 1339 c 0,10,11
 314 1296 314 1296 255 1296 c 0,12,13
 197 1296 197 1296 166 1339 c 0,14,15
 145 1368 145 1368 145 1406 c 0,16,17
 145 1445 145 1445 166 1474 c 0,18,19
 197 1517 197 1517 257 1517 c 0,4,5
EndSplineSet
EndChar

StartChar: j
Encoding: 106 106 75
Width: 512
VWidth: 1433
GlyphClass: 1
Flags: W
LayerCount: 2
Fore
SplineSet
178 1038 m 1,0,-1
 334 1038 l 1,1,-1
 334 -21 l 2,2,3
 334 -160 334 -160 327 -225 c 0,4,5
 313 -348 313 -348 227 -410 c 0,6,7
 155 -461 155 -461 42 -461 c 0,8,9
 -17 -461 -17 -461 -77 -448 c 1,10,-1
 -60 -318 l 1,11,12
 -12 -330 -12 -330 26 -330 c 0,13,14
 111 -330 111 -330 148 -275 c 0,15,16
 178 -232 178 -232 178 -134 c 2,17,-1
 178 1038 l 1,0,-1
257 1517 m 0,18,19
 314 1517 314 1517 345 1474 c 0,20,21
 366 1445 366 1445 366 1406 c 0,22,23
 366 1368 366 1368 345 1339 c 0,24,25
 314 1296 314 1296 255 1296 c 0,26,27
 197 1296 197 1296 166 1339 c 0,28,29
 145 1368 145 1368 145 1406 c 0,30,31
 145 1445 145 1445 166 1474 c 0,32,33
 197 1517 197 1517 257 1517 c 0,18,19
EndSplineSet
EndChar

StartChar: k
Encoding: 107 107 76
Width: 999
VWidth: 1433
GlyphClass: 1
Flags: W
LayerCount: 2
Fore
SplineSet
178 0 m 1,0,-1
 178 1497 l 1,1,-1
 334 1497 l 1,2,-1
 334 598 l 1,3,-1
 756 1038 l 1,4,-1
 951 1038 l 1,5,-1
 498 577 l 1,6,-1
 981 0 l 1,7,-1
 781 0 l 1,8,-1
 334 536 l 1,9,-1
 334 0 l 1,10,-1
 178 0 l 1,0,-1
EndSplineSet
EndChar

StartChar: l
Encoding: 108 108 77
Width: 512
VWidth: 1433
GlyphClass: 1
Flags: W
LayerCount: 2
Fore
SplineSet
178 0 m 1,0,-1
 178 1497 l 1,1,-1
 334 1497 l 1,2,-1
 334 0 l 1,3,-1
 178 0 l 1,0,-1
EndSplineSet
EndChar

StartChar: m
Encoding: 109 109 78
Width: 1782
VWidth: 1433
GlyphClass: 1
Flags: W
LayerCount: 2
Fore
SplineSet
178 0 m 1,0,-1
 178 700 l 2,1,2
 177 954 177 954 170 1038 c 1,3,-1
 324 1038 l 1,4,-1
 330 874 l 1,5,6
 386 933 386 933 434 970 c 0,7,8
 547 1058 547 1058 680 1058 c 0,9,10
 822 1058 822 1058 900 963 c 0,11,12
 935 920 935 920 952 853 c 1,13,14
 1016 926 1016 926 1072 971 c 0,15,16
 1180 1058 1180 1058 1316 1058 c 0,17,18
 1502 1058 1502 1058 1571 914 c 0,19,20
 1602 849 1602 849 1608 734 c 0,21,22
 1612 663 1612 663 1612 600 c 2,23,-1
 1612 0 l 1,24,-1
 1456 0 l 1,25,-1
 1456 603 l 2,26,27
 1456 759 1456 759 1436 822 c 0,28,29
 1400 933 1400 933 1272 933 c 0,30,31
 1118 933 1118 933 973 739 c 1,32,-1
 973 0 l 1,33,-1
 817 0 l 1,34,-1
 817 621 l 2,35,36
 817 766 817 766 795 825 c 0,37,38
 754 933 754 933 638 933 c 0,39,40
 483 933 483 933 334 739 c 1,41,-1
 334 0 l 1,42,-1
 178 0 l 1,0,-1
EndSplineSet
EndChar

StartChar: n
Encoding: 110 110 79
Width: 1190
VWidth: 1433
GlyphClass: 1
Flags: W
LayerCount: 2
Fore
SplineSet
178 0 m 1,0,-1
 178 700 l 2,1,2
 177 954 177 954 170 1038 c 1,3,-1
 324 1038 l 1,4,-1
 330 872 l 1,5,6
 389 934 389 934 441 972 c 0,7,8
 559 1058 559 1058 707 1058 c 0,9,10
 904 1058 904 1058 977 914 c 0,11,12
 1009 850 1009 850 1016 734 c 0,13,14
 1020 664 1020 664 1020 600 c 2,15,-1
 1020 0 l 1,16,-1
 864 0 l 1,17,-1
 864 603 l 2,18,19
 864 759 864 759 842 822 c 0,20,21
 803 933 803 933 663 933 c 0,22,23
 494 933 494 933 334 739 c 1,24,-1
 334 0 l 1,25,-1
 178 0 l 1,0,-1
EndSplineSet
EndChar

StartChar: o
Encoding: 111 111 80
Width: 1157
VWidth: 1433
GlyphClass: 1
Flags: W
LayerCount: 2
Fore
SplineSet
584 1058 m 0,0,1
 805 1058 805 1058 941 887 c 0,2,3
 1056 743 1056 743 1056 519 c 0,4,5
 1056 278 1056 278 923 130 c 0,6,7
 788 -20 788 -20 578 -20 c 0,8,9
 351 -20 351 -20 215 151 c 0,10,11
 100 296 100 296 100 520 c 0,12,13
 100 762 100 762 233 909 c 0,14,15
 367 1058 367 1058 584 1058 c 0,0,1
574 933 m 0,16,17
 478 933 478 933 402 874 c 0,18,19
 264 766 264 766 264 519 c 0,20,21
 264 348 264 348 336 237 c 0,22,23
 422 105 422 105 578 105 c 0,24,25
 747 105 747 105 832 258 c 0,26,27
 892 364 892 364 892 520 c 0,28,29
 892 691 892 691 820 801 c 0,30,31
 734 933 734 933 574 933 c 0,16,17
EndSplineSet
EndChar

StartChar: p
Encoding: 112 112 81
Width: 1149
VWidth: 1433
GlyphClass: 1
Flags: W
LayerCount: 2
Fore
SplineSet
178 -440 m 1,0,-1
 178 619 l 2,1,2
 178 801 178 801 172 982 c 2,3,-1
 170 1038 l 1,4,-1
 316 1038 l 1,5,-1
 322 880 l 1,6,7
 374 951 374 951 422 986 c 0,8,9
 519 1058 519 1058 640 1058 c 0,10,11
 821 1058 821 1058 938 904 c 0,12,13
 1049 758 1049 758 1049 526 c 0,14,15
 1049 269 1049 269 919 113 c 0,16,17
 808 -20 808 -20 632 -20 c 0,18,19
 506 -20 506 -20 421 50 c 0,20,21
 381 83 381 83 334 142 c 1,22,-1
 334 -440 l 1,23,-1
 178 -440 l 1,0,-1
334 298 m 1,24,25
 379 230 379 230 414 192 c 0,26,27
 497 105 497 105 607 105 c 0,28,29
 750 105 750 105 822 236 c 0,30,31
 885 351 885 351 885 522 c 0,32,33
 885 706 885 706 811 823 c 0,34,35
 741 933 741 933 609 933 c 0,36,37
 446 933 446 933 334 743 c 1,38,-1
 334 298 l 1,24,25
EndSplineSet
EndChar

StartChar: q
Encoding: 113 113 82
Width: 1149
VWidth: 1433
GlyphClass: 1
Flags: W
LayerCount: 2
Fore
SplineSet
832 1038 m 1,0,-1
 978 1038 l 1,1,-1
 976 982 l 2,2,3
 970 800 970 800 970 619 c 2,4,-1
 970 -440 l 1,5,-1
 814 -440 l 1,6,-1
 814 142 l 1,7,8
 767 83 767 83 727 50 c 0,9,10
 642 -20 642 -20 516 -20 c 0,11,12
 327 -20 327 -20 212 135 c 0,13,14
 99 288 99 288 99 526 c 0,15,16
 99 776 99 776 227 925 c 0,17,18
 341 1058 341 1058 508 1058 c 0,19,20
 629 1058 629 1058 726 986 c 0,21,22
 774 951 774 951 826 880 c 1,23,-1
 832 1038 l 1,0,-1
814 743 m 1,24,25
 702 933 702 933 539 933 c 0,26,27
 407 933 407 933 337 823 c 0,28,29
 263 706 263 706 263 522 c 0,30,31
 263 351 263 351 326 236 c 0,32,33
 398 105 398 105 541 105 c 0,34,35
 651 105 651 105 734 192 c 0,36,37
 769 230 769 230 814 298 c 1,38,-1
 814 743 l 1,24,25
EndSplineSet
EndChar

StartChar: r
Encoding: 114 114 83
Width: 719
VWidth: 1433
GlyphClass: 1
Flags: W
LayerCount: 2
Fore
SplineSet
180 0 m 1,0,-1
 180 592 l 2,1,2
 180 796 180 796 174 990 c 2,3,-1
 173 1038 l 1,4,-1
 318 1038 l 1,5,-1
 324 847 l 1,6,7
 376 943 376 943 436 995 c 0,8,9
 508 1058 508 1058 616 1058 c 0,10,11
 648 1058 648 1058 688 1051 c 1,12,-1
 674 911 l 1,13,14
 646 917 646 917 620 917 c 0,15,16
 504 917 504 917 416 802 c 0,17,18
 367 736 367 736 336 657 c 1,19,-1
 336 0 l 1,20,-1
 180 0 l 1,0,-1
EndSplineSet
EndChar

StartChar: s
Encoding: 115 115 84
Width: 862
VWidth: 1433
GlyphClass: 1
Flags: W
LayerCount: 2
Fore
SplineSet
100 51 m 1,0,-1
 147 174 l 1,1,2
 290 105 290 105 399 105 c 0,3,4
 478 105 478 105 536 148 c 0,5,6
 598 194 598 194 598 280 c 0,7,8
 598 349 598 349 557 385 c 0,9,10
 522 416 522 416 390 466 c 0,11,12
 285 507 285 507 242 535 c 0,13,14
 104 622 104 622 104 768 c 0,15,16
 104 905 104 905 211 988 c 0,17,18
 302 1058 302 1058 445 1058 c 0,19,20
 591 1058 591 1058 741 981 c 1,21,-1
 694 858 l 1,22,23
 582 933 582 933 459 933 c 0,24,25
 379 933 379 933 328 899 c 0,26,27
 268 860 268 860 268 781 c 0,28,29
 268 709 268 709 327 667 c 0,30,31
 370 637 370 637 480 593 c 0,32,33
 602 544 602 544 647 512 c 0,34,35
 762 433 762 433 762 291 c 0,36,37
 762 141 762 141 649 56 c 0,38,39
 549 -20 549 -20 397 -20 c 0,40,41
 250 -20 250 -20 100 51 c 1,0,-1
EndSplineSet
EndChar

StartChar: t
Encoding: 116 116 85
Width: 704
VWidth: 1433
GlyphClass: 1
Flags: W
LayerCount: 2
Fore
SplineSet
234 913 m 1,0,-1
 66 913 l 1,1,-1
 66 1038 l 1,2,-1
 234 1038 l 1,3,-1
 234 1265 l 1,4,-1
 390 1298 l 1,5,-1
 390 1038 l 1,6,-1
 635 1038 l 1,7,-1
 635 913 l 1,8,-1
 390 913 l 1,9,-1
 390 346 l 2,10,11
 390 217 390 217 412 170 c 0,12,13
 444 105 444 105 530 105 c 0,14,15
 582 105 582 105 649 136 c 1,16,-1
 663 12 l 1,17,18
 573 -20 573 -20 495 -20 c 0,19,20
 339 -20 339 -20 279 76 c 0,21,22
 234 147 234 147 234 315 c 2,23,-1
 234 913 l 1,0,-1
EndSplineSet
EndChar

StartChar: u
Encoding: 117 117 86
Width: 1178
VWidth: 1433
GlyphClass: 1
Flags: W
LayerCount: 2
Fore
SplineSet
999 1038 m 1,0,-1
 999 338 l 2,1,2
 1000 78 1000 78 1007 0 c 1,3,-1
 853 0 l 1,4,-1
 847 166 l 1,5,6
 792 107 792 107 738 68 c 0,7,8
 615 -20 615 -20 478 -20 c 0,9,10
 285 -20 285 -20 213 124 c 0,11,12
 181 189 181 189 174 304 c 0,13,14
 170 371 170 371 170 438 c 2,15,-1
 170 1038 l 1,16,-1
 326 1038 l 1,17,-1
 326 435 l 2,18,19
 326 278 326 278 348 216 c 0,20,21
 386 105 386 105 521 105 c 0,22,23
 686 105 686 105 843 299 c 1,24,-1
 843 1038 l 1,25,-1
 999 1038 l 1,0,-1
EndSplineSet
EndChar

StartChar: v
Encoding: 118 118 87
Width: 1008
VWidth: 1433
GlyphClass: 1
Flags: W
LayerCount: 2
Fore
SplineSet
406 0 m 1,0,-1
 33 1038 l 1,1,-1
 197 1038 l 1,2,-1
 451 336 l 2,3,4
 486 241 486 241 518 139 c 1,5,6
 545 227 545 227 581 330 c 2,7,-1
 832 1038 l 1,8,-1
 975 1038 l 1,9,-1
 606 0 l 1,10,-1
 406 0 l 1,0,-1
EndSplineSet
EndChar

StartChar: w
Encoding: 119 119 88
Width: 1612
VWidth: 1433
GlyphClass: 1
Flags: W
LayerCount: 2
Fore
SplineSet
342 0 m 1,0,-1
 57 1038 l 1,1,-1
 217 1038 l 1,2,-1
 388 388 l 2,3,4
 427 241 427 241 452 133 c 1,5,6
 481 246 481 246 523 395 c 2,7,-1
 704 1038 l 1,8,-1
 907 1038 l 1,9,-1
 1093 410 l 2,10,11
 1136 262 1136 262 1171 133 c 1,12,13
 1201 255 1201 255 1240 399 c 2,14,-1
 1413 1038 l 1,15,-1
 1554 1038 l 1,16,-1
 1263 0 l 1,17,-1
 1067 0 l 1,18,-1
 867 663 l 2,19,20
 826 799 826 799 796 909 c 1,21,22
 765 787 765 787 726 650 c 2,23,-1
 540 0 l 1,24,-1
 342 0 l 1,0,-1
EndSplineSet
EndChar

StartChar: x
Encoding: 120 120 89
Width: 1006
VWidth: 1433
GlyphClass: 1
Flags: W
LayerCount: 2
Fore
SplineSet
39 0 m 1,0,-1
 418 522 l 1,1,-1
 57 1038 l 1,2,-1
 242 1038 l 1,3,-1
 510 647 l 1,4,-1
 791 1038 l 1,5,-1
 959 1038 l 1,6,-1
 592 536 l 1,7,-1
 967 0 l 1,8,-1
 782 0 l 1,9,-1
 500 405 l 1,10,-1
 207 0 l 1,11,-1
 39 0 l 1,0,-1
EndSplineSet
EndChar

StartChar: y
Encoding: 121 121 90
Width: 1001
VWidth: 1433
GlyphClass: 1
Flags: W
LayerCount: 2
Fore
SplineSet
433 -15 m 1,0,-1
 24 1038 l 1,1,-1
 191 1038 l 1,2,-1
 428 417 l 2,3,4
 470 306 470 306 513 180 c 1,5,6
 554 301 554 301 600 424 c 2,7,-1
 830 1038 l 1,8,-1
 976 1038 l 1,9,-1
 554 -88 l 2,10,11
 488 -263 488 -263 413 -358 c 0,12,13
 331 -461 331 -461 174 -461 c 0,14,15
 101 -461 101 -461 21 -441 c 1,16,-1
 48 -314 l 1,17,18
 111 -336 111 -336 164 -336 c 0,19,20
 249 -336 249 -336 300 -284 c 0,21,22
 375 -208 375 -208 433 -15 c 1,0,-1
EndSplineSet
EndChar

StartChar: z
Encoding: 122 122 91
Width: 909
VWidth: 1433
GlyphClass: 1
Flags: W
LayerCount: 2
Fore
SplineSet
70 0 m 1,0,-1
 70 117 l 1,1,-1
 634 913 l 1,2,-1
 97 913 l 1,3,-1
 97 1038 l 1,4,-1
 820 1038 l 1,5,-1
 820 913 l 1,6,-1
 259 125 l 1,7,-1
 836 125 l 1,8,-1
 836 0 l 1,9,-1
 70 0 l 1,0,-1
EndSplineSet
EndChar

StartChar: braceleft
Encoding: 123 123 92
Width: 737
VWidth: 1433
GlyphClass: 1
Flags: W
LayerCount: 2
Fore
SplineSet
117 553 m 1,0,-1
 117 671 l 1,1,2
 225 678 225 678 263 728 c 0,3,4
 296 772 296 772 295 913 c 2,5,-1
 295 1198 l 2,6,7
 296 1296 296 1296 305 1354 c 0,8,9
 323 1473 323 1473 413 1516 c 0,10,11
 468 1542 468 1542 582 1542 c 2,12,-1
 654 1542 l 1,13,-1
 654 1423 l 1,14,-1
 582 1423 l 2,15,16
 500 1423 500 1423 473 1380 c 0,17,18
 450 1337 450 1337 451 1217 c 2,19,-1
 451 879 l 2,20,21
 451 778 451 778 438 732 c 0,22,23
 407 633 407 633 280 612 c 1,24,25
 367 597 367 597 409 547 c 0,26,27
 441 508 441 508 447 440 c 0,28,29
 451 408 451 408 451 345 c 2,30,-1
 451 7 l 2,31,32
 450 -114 450 -114 473 -156 c 0,33,34
 501 -199 501 -199 582 -199 c 2,35,-1
 654 -199 l 1,36,-1
 654 -317 l 1,37,-1
 582 -317 l 2,38,39
 468 -317 468 -317 413 -291 c 0,40,41
 323 -249 323 -249 305 -130 c 0,42,43
 296 -73 296 -73 295 26 c 2,44,-1
 295 311 l 2,45,46
 296 461 296 461 257 504 c 0,47,48
 216 547 216 547 117 553 c 1,0,-1
EndSplineSet
EndChar

StartChar: bar
Encoding: 124 124 93
Width: 590
VWidth: 1433
GlyphClass: 1
Flags: W
LayerCount: 2
Fore
SplineSet
213 -440 m 1,0,-1
 213 1417 l 1,1,-1
 377 1417 l 1,2,-1
 377 -440 l 1,3,-1
 213 -440 l 1,0,-1
EndSplineSet
EndChar

StartChar: braceright
Encoding: 125 125 94
Width: 737
VWidth: 1433
GlyphClass: 1
Flags: W
LayerCount: 2
Fore
SplineSet
621 671 m 1,0,-1
 621 553 l 1,1,2
 513 546 513 546 475 496 c 0,3,4
 442 452 442 452 443 311 c 2,5,-1
 443 26 l 2,6,7
 442 -72 442 -72 433 -130 c 0,8,9
 415 -249 415 -249 325 -291 c 0,10,11
 269 -317 269 -317 156 -317 c 2,12,-1
 84 -317 l 1,13,-1
 84 -199 l 1,14,-1
 156 -199 l 2,15,16
 237 -199 237 -199 264 -157 c 0,17,18
 288 -114 288 -114 287 7 c 2,19,-1
 287 345 l 2,20,21
 287 446 287 446 300 492 c 0,22,23
 331 591 331 591 458 612 c 1,24,25
 371 627 371 627 329 677 c 0,26,27
 297 716 297 716 291 784 c 0,28,29
 287 816 287 816 287 879 c 2,30,-1
 287 1217 l 2,31,32
 288 1331 288 1331 269 1373 c 0,33,34
 242 1423 242 1423 156 1423 c 2,35,-1
 84 1423 l 1,36,-1
 84 1542 l 1,37,-1
 156 1542 l 2,38,39
 270 1542 270 1542 325 1516 c 0,40,41
 415 1473 415 1473 433 1354 c 0,42,43
 442 1296 442 1296 443 1198 c 2,44,-1
 443 913 l 2,45,46
 442 763 442 763 481 720 c 0,47,48
 522 677 522 677 621 671 c 1,0,-1
EndSplineSet
EndChar

StartChar: asciitilde
Encoding: 126 126 95
Width: 1180
VWidth: 1433
GlyphClass: 1
Flags: W
LayerCount: 2
Fore
SplineSet
163 388 m 1,0,-1
 72 464 l 1,1,2
 133 547 133 547 180 590 c 0,3,4
 269 670 269 670 370 670 c 0,5,6
 431 670 431 670 497 639 c 0,7,8
 548 615 548 615 611 577 c 0,9,10
 690 530 690 530 711 521 c 0,11,12
 760 500 760 500 798 500 c 0,13,14
 878 500 878 500 945 569 c 0,15,16
 960 585 960 585 1017 652 c 1,17,-1
 1108 574 l 1,18,19
 1053 499 1053 499 1001 450 c 0,20,21
 909 367 909 367 809 367 c 0,22,23
 721 367 721 367 571 458 c 0,24,25
 498 503 498 503 468 516 c 0,26,27
 419 537 419 537 373 537 c 0,28,29
 302 537 302 537 238 472 c 0,30,31
 204 437 204 437 163 388 c 1,0,-1
EndSplineSet
EndChar

StartChar: exclamdown
Encoding: 161 161 97
Width: 635
VWidth: 1433
GlyphClass: 1
Flags: W
LayerCount: 2
Fore
SplineSet
293 664 m 1,0,-1
 424 664 l 1,1,-1
 443 -287 l 1,2,-1
 275 -287 l 1,3,-1
 293 664 l 1,0,-1
361 1059 m 0,4,5
 410 1059 410 1059 444 1026 c 0,6,7
 480 991 480 991 480 938 c 0,8,9
 480 886 480 886 444 850 c 0,10,11
 410 817 410 817 359 817 c 256,12,13
 308 817 308 817 274 850 c 0,14,15
 238 886 238 886 238 938 c 0,16,17
 238 991 238 991 274 1026 c 0,18,19
 309 1059 309 1059 361 1059 c 0,4,5
EndSplineSet
EndChar

StartChar: cent
Encoding: 162 162 98
Width: 1180
VWidth: 1433
GlyphClass: 1
Flags: W
LayerCount: 2
Fore
SplineSet
639 207 m 1,0,-1
 639 357 l 1,1,2
 500 369 500 369 405 435 c 0,3,4
 206 573 206 573 206 885 c 0,5,6
 206 1101 206 1101 298 1241 c 0,7,8
 411 1411 411 1411 639 1432 c 1,9,-1
 639 1585 l 1,10,-1
 741 1585 l 1,11,-1
 741 1431 l 1,12,13
 869 1418 869 1418 988 1349 c 1,14,-1
 929 1227 l 1,15,16
 837 1288 837 1288 741 1304 c 1,17,-1
 741 482 l 1,18,19
 852 493 852 493 948 570 c 1,20,-1
 1006 451 l 1,21,22
 905 366 905 366 741 356 c 1,23,-1
 741 207 l 1,24,-1
 639 207 l 1,0,-1
639 1306 m 1,25,26
 372 1267 372 1267 372 903 c 0,27,28
 372 656 372 656 499 547 c 0,29,30
 556 499 556 499 639 484 c 1,31,-1
 639 1306 l 1,25,26
EndSplineSet
EndChar

StartChar: sterling
Encoding: 163 163 99
Width: 1180
VWidth: 1433
GlyphClass: 1
Flags: W
LayerCount: 2
Fore
SplineSet
113 0 m 1,0,-1
 113 131 l 1,1,-1
 261 131 l 1,2,3
 290 171 290 171 305 243 c 0,4,5
 318 315 318 315 318 516 c 2,6,-1
 318 674 l 1,7,-1
 133 674 l 1,8,-1
 133 793 l 1,9,-1
 318 793 l 1,10,-1
 318 933 l 2,11,12
 318 1079 318 1079 333 1148 c 0,13,14
 370 1308 370 1308 507 1381 c 0,15,16
 610 1437 610 1437 755 1437 c 0,17,18
 910 1437 910 1437 1074 1366 c 1,19,-1
 1031 1228 l 1,20,21
 880 1302 880 1302 758 1302 c 0,22,23
 583 1302 583 1302 518 1185 c 0,24,25
 476 1110 476 1110 476 915 c 2,26,-1
 476 793 l 1,27,-1
 826 793 l 1,28,-1
 826 674 l 1,29,-1
 476 674 l 1,30,-1
 476 516 l 2,31,32
 476 289 476 289 464 225 c 0,33,34
 455 177 455 177 424 131 c 1,35,-1
 1057 131 l 1,36,-1
 1057 0 l 1,37,-1
 113 0 l 1,0,-1
EndSplineSet
EndChar

StartChar: currency
Encoding: 164 164 100
Width: 1180
VWidth: 1433
GlyphClass: 1
Flags: W
LayerCount: 2
Fore
SplineSet
150 195 m 1,0,-1
 69 276 l 1,1,-1
 192 399 l 1,2,3
 92 536 92 536 92 716 c 0,4,5
 92 897 92 897 192 1033 c 1,6,-1
 69 1156 l 1,7,-1
 150 1237 l 1,8,-1
 271 1116 l 1,9,10
 400 1223 400 1223 590 1223 c 256,11,12
 780 1223 780 1223 909 1116 c 1,13,-1
 1030 1237 l 1,14,-1
 1112 1156 l 1,15,-1
 989 1033 l 1,16,17
 1089 897 1089 897 1089 716 c 256,18,19
 1089 535 1089 535 989 399 c 1,20,-1
 1112 276 l 1,21,-1
 1030 195 l 1,22,-1
 909 316 l 1,23,24
 780 209 780 209 590 209 c 256,25,26
 400 209 400 209 271 316 c 1,27,-1
 150 195 l 1,0,-1
585 1114 m 0,28,29
 426 1114 426 1114 322 1005 c 0,30,31
 215 894 215 894 215 716 c 0,32,33
 215 539 215 539 322 427 c 0,34,35
 426 318 426 318 591 318 c 0,36,37
 755 318 755 318 859 427 c 0,38,39
 966 539 966 539 966 715 c 0,40,41
 966 896 966 896 859 1005 c 0,42,43
 801 1064 801 1064 737 1090 c 0,44,45
 674 1114 674 1114 585 1114 c 0,28,29
EndSplineSet
EndChar

StartChar: yen
Encoding: 165 165 101
Width: 1180
VWidth: 1433
GlyphClass: 1
Flags: W
LayerCount: 2
Fore
SplineSet
513 0 m 1,0,-1
 513 393 l 1,1,-1
 193 393 l 1,2,-1
 193 498 l 1,3,-1
 513 498 l 1,4,-1
 513 611 l 1,5,-1
 499 638 l 1,6,-1
 193 638 l 1,7,-1
 193 743 l 1,8,-1
 446 743 l 1,9,-1
 17 1417 l 1,10,-1
 205 1417 l 1,11,-1
 598 793 l 1,12,-1
 991 1417 l 1,13,-1
 1164 1417 l 1,14,-1
 736 743 l 1,15,-1
 990 743 l 1,16,-1
 990 638 l 1,17,-1
 683 638 l 1,18,-1
 669 611 l 1,19,-1
 669 498 l 1,20,-1
 990 498 l 1,21,-1
 990 393 l 1,22,-1
 669 393 l 1,23,-1
 669 0 l 1,24,-1
 513 0 l 1,0,-1
EndSplineSet
EndChar

StartChar: brokenbar
Encoding: 166 166 102
Width: 590
VWidth: 1433
GlyphClass: 1
Flags: W
LayerCount: 2
Fore
SplineSet
213 860 m 1,0,-1
 213 1417 l 1,1,-1
 377 1417 l 1,2,-1
 377 860 l 1,3,-1
 213 860 l 1,0,-1
213 0 m 1,4,-1
 213 557 l 1,5,-1
 377 557 l 1,6,-1
 377 0 l 1,7,-1
 213 0 l 1,4,-1
EndSplineSet
EndChar

StartChar: section
Encoding: 167 167 103
Width: 1180
VWidth: 1433
GlyphClass: 1
Flags: W
LayerCount: 2
Fore
SplineSet
206 -239 m 1,0,-1
 251 -108 l 1,1,2
 391 -185 391 -185 536 -185 c 0,3,4
 663 -185 663 -185 729 -131 c 0,5,6
 792 -80 792 -80 792 8 c 0,7,8
 792 92 792 92 733 143 c 0,9,10
 680 188 680 188 523 256 c 0,11,12
 364 324 364 324 304 380 c 0,13,14
 224 453 224 453 224 563 c 0,15,16
 224 716 224 716 403 850 c 1,17,18
 334 891 334 891 302 930 c 0,19,20
 245 999 245 999 245 1112 c 0,21,22
 245 1282 245 1282 366 1364 c 0,23,24
 473 1437 473 1437 649 1437 c 0,25,26
 816 1437 816 1437 958 1366 c 1,27,-1
 913 1235 l 1,28,29
 779 1302 779 1302 650 1302 c 0,30,31
 537 1302 537 1302 474 1248 c 0,32,33
 419 1200 419 1200 419 1118 c 0,34,35
 419 1037 419 1037 484 989 c 0,36,37
 526 958 526 958 577 936 c 0,38,39
 613 921 613 921 698 885 c 0,40,41
 853 821 853 821 912 763 c 0,42,43
 982 694 982 694 982 584 c 0,44,45
 982 428 982 428 822 292 c 1,46,47
 966 210 966 210 966 35 c 0,48,49
 966 -120 966 -120 858 -219 c 0,50,51
 747 -320 747 -320 548 -320 c 0,52,53
 363 -320 363 -320 206 -239 c 1,0,-1
501 794 m 1,54,55
 388 705 388 705 388 607 c 0,56,57
 388 504 388 504 536 428 c 0,58,59
 581 404 581 404 724 348 c 1,60,61
 818 459 818 459 818 543 c 0,62,63
 818 638 818 638 714 699 c 0,64,65
 693 711 693 711 501 794 c 1,54,55
EndSplineSet
EndChar

StartChar: dieresis
Encoding: 168 168 104
Width: 1024
VWidth: 1433
GlyphClass: 1
Flags: W
LayerCount: 2
Fore
SplineSet
319 1454 m 0,0,1
 371 1454 371 1454 401 1416 c 0,2,3
 424 1388 424 1388 424 1347 c 0,4,5
 424 1307 424 1307 401 1279 c 0,6,7
 371 1241 371 1241 318 1241 c 0,8,9
 263 1241 263 1241 234 1280 c 0,10,11
 211 1309 211 1309 211 1350 c 0,12,13
 211 1390 211 1390 234 1417 c 0,14,15
 264 1454 264 1454 319 1454 c 0,0,1
708 1454 m 0,16,17
 760 1454 760 1454 790 1416 c 0,18,19
 813 1388 813 1388 813 1347 c 0,20,21
 813 1307 813 1307 790 1279 c 0,22,23
 760 1241 760 1241 707 1241 c 0,24,25
 652 1241 652 1241 623 1280 c 0,26,27
 600 1309 600 1309 600 1350 c 0,28,29
 600 1390 600 1390 623 1417 c 0,30,31
 653 1454 653 1454 708 1454 c 0,16,17
EndSplineSet
EndChar

StartChar: copyright
Encoding: 169 169 105
Width: 1638
VWidth: 1433
GlyphClass: 1
Flags: W
LayerCount: 2
Fore
SplineSet
1062 478 m 1,0,-1
 1098 387 l 1,1,2
 982 330 982 330 859 330 c 0,3,4
 691 330 691 330 589 427 c 0,5,6
 480 530 480 530 480 704 c 0,7,8
 480 901 480 901 612 1010 c 0,9,10
 706 1088 706 1088 854 1088 c 0,11,12
 969 1088 969 1088 1090 1029 c 1,13,-1
 1049 939 l 1,14,15
 942 994 942 994 856 994 c 0,16,17
 736 994 736 994 670 909 c 0,18,19
 607 827 607 827 607 708 c 0,20,21
 607 588 607 588 670 510 c 0,22,23
 741 424 741 424 875 424 c 0,24,25
 961 424 961 424 1062 478 c 1,0,-1
829 1438 m 0,26,27
 1136 1438 1136 1438 1342 1231 c 0,28,29
 1548 1023 1548 1023 1548 709 c 0,30,31
 1548 396 1548 396 1342 187 c 0,32,33
 1137 -20 1137 -20 819 -20 c 256,34,35
 501 -20 501 -20 296 187 c 0,36,37
 90 397 90 397 90 707 c 0,38,39
 90 928 90 928 197 1105 c 0,40,41
 297 1268 297 1268 470 1358 c 0,42,43
 624 1438 624 1438 829 1438 c 0,26,27
810 1377 m 0,44,45
 528 1377 528 1377 341 1175 c 0,46,47
 168 988 168 988 168 709 c 0,48,49
 168 431 168 431 341 243 c 0,50,51
 527 41 527 41 819 41 c 256,52,53
 1111 41 1111 41 1297 243 c 0,54,55
 1470 431 1470 431 1470 707 c 0,56,57
 1470 992 1470 992 1297 1175 c 0,58,59
 1106 1377 1106 1377 810 1377 c 0,44,45
EndSplineSet
EndChar

StartChar: ordfeminine
Encoding: 170 170 106
Width: 737
VWidth: 1433
GlyphClass: 1
Flags: W
LayerCount: 2
Fore
SplineSet
470 844 m 1,0,-1
 465 902 l 1,1,2
 395 832 395 832 298 832 c 0,3,4
 208 832 208 832 157 884 c 0,5,6
 113 928 113 928 113 1006 c 0,7,8
 113 1197 113 1197 383 1197 c 0,9,10
 403 1197 403 1197 462 1195 c 1,11,-1
 462 1218 l 2,12,13
 462 1272 462 1272 443 1301 c 0,14,15
 417 1339 417 1339 349 1339 c 0,16,17
 277 1339 277 1339 184 1286 c 1,18,-1
 148 1371 l 1,19,20
 260 1429 260 1429 361 1429 c 0,21,22
 511 1429 511 1429 558 1338 c 0,23,24
 578 1300 578 1300 580 1235 c 0,25,26
 581 1218 581 1218 581 1161 c 2,27,-1
 581 993 l 2,28,29
 581 909 581 909 587 844 c 1,30,-1
 470 844 l 1,0,-1
462 1111 m 1,31,32
 435 1113 435 1113 411 1113 c 0,33,34
 234 1113 234 1113 234 1009 c 0,35,36
 234 974 234 974 257 951 c 0,37,38
 282 926 282 926 324 926 c 0,39,40
 405 926 405 926 462 1002 c 1,41,-1
 462 1111 l 1,31,32
EndSplineSet
EndChar

StartChar: guillemotleft
Encoding: 171 171 107
Width: 983
VWidth: 1433
GlyphClass: 1
Flags: W
LayerCount: 2
Fore
SplineSet
658 510 m 1,0,-1
 897 158 l 1,1,-1
 791 86 l 1,2,-1
 474 510 l 1,3,-1
 791 936 l 1,4,-1
 897 862 l 1,5,-1
 658 510 l 1,0,-1
252 510 m 1,6,-1
 494 158 l 1,7,-1
 387 86 l 1,8,-1
 68 510 l 1,9,-1
 387 936 l 1,10,-1
 494 862 l 1,11,-1
 252 510 l 1,6,-1
EndSplineSet
EndChar

StartChar: logicalnot
Encoding: 172 172 108
Width: 1180
VWidth: 1433
GlyphClass: 1
Flags: W
LayerCount: 2
Fore
SplineSet
926 201 m 1,0,-1
 926 655 l 1,1,-1
 72 655 l 1,2,-1
 72 778 l 1,3,-1
 1065 778 l 1,4,-1
 1065 201 l 1,5,-1
 926 201 l 1,0,-1
EndSplineSet
EndChar

StartChar: uni00AD
Encoding: 173 173 109
Width: 637
VWidth: 1433
GlyphClass: 1
Flags: W
LayerCount: 2
Fore
SplineSet
82 510 m 1,0,-1
 82 635 l 1,1,-1
 555 635 l 1,2,-1
 555 510 l 1,3,-1
 82 510 l 1,0,-1
EndSplineSet
EndChar

StartChar: registered
Encoding: 174 174 110
Width: 1229
VWidth: 1433
GlyphClass: 1
Flags: W
LayerCount: 2
Fore
SplineSet
443 735 m 1,0,-1
 443 1292 l 1,1,-1
 613 1292 l 2,2,3
 712 1292 712 1292 760 1266 c 0,4,5
 830 1229 830 1229 830 1143 c 0,6,7
 830 1044 830 1044 720 1010 c 1,8,9
 753 990 753 990 782 927 c 2,10,-1
 872 735 l 1,11,-1
 757 735 l 1,12,-1
 690 882 l 2,13,14
 660 948 660 948 635 966 c 0,15,16
 614 981 614 981 565 983 c 2,17,-1
 549 983 l 1,18,-1
 549 735 l 1,19,-1
 443 735 l 1,0,-1
549 1050 m 1,20,-1
 570 1050 l 2,21,22
 719 1050 719 1050 719 1137 c 0,23,24
 719 1225 719 1225 583 1225 c 2,25,-1
 549 1225 l 1,26,-1
 549 1050 l 1,20,-1
621 1544 m 0,27,28
 836 1544 836 1544 986 1402 c 0,29,30
 1145 1251 1145 1251 1145 1013 c 0,31,32
 1145 776 1145 776 986 625 c 0,33,34
 836 483 836 483 615 483 c 0,35,36
 393 483 393 483 243 625 c 0,37,38
 84 776 84 776 84 1012 c 0,39,40
 84 1254 84 1254 243 1402 c 0,41,42
 396 1544 396 1544 621 1544 c 0,27,28
609 1483 m 0,43,44
 417 1483 417 1483 290 1351 c 0,45,46
 162 1218 162 1218 162 1013 c 0,47,48
 162 809 162 809 290 676 c 0,49,50
 417 544 417 544 615 544 c 0,51,52
 812 544 812 544 939 676 c 0,53,54
 1002 742 1002 742 1036 835 c 0,55,56
 1067 921 1067 921 1067 1012 c 0,57,58
 1067 1217 1067 1217 939 1351 c 0,59,60
 812 1483 812 1483 609 1483 c 0,43,44
EndSplineSet
EndChar

StartChar: macron
Encoding: 175 175 111
Width: 1024
VWidth: 1433
GlyphClass: 1
Flags: W
LayerCount: 2
Fore
SplineSet
214 1282 m 1,0,-1
 214 1401 l 1,1,-1
 809 1401 l 1,2,-1
 809 1282 l 1,3,-1
 214 1282 l 1,0,-1
EndSplineSet
EndChar

StartChar: degree
Encoding: 176 176 112
Width: 680
VWidth: 1433
GlyphClass: 1
Flags: W
LayerCount: 2
Fore
SplineSet
344 1437 m 0,0,1
 470 1437 470 1437 554 1355 c 0,2,3
 639 1272 639 1272 639 1143 c 0,4,5
 639 1015 639 1015 554 932 c 0,6,7
 470 850 470 850 340 850 c 256,8,9
 210 850 210 850 126 932 c 0,10,11
 41 1015 41 1015 41 1143 c 0,12,13
 41 1274 41 1274 126 1355 c 0,14,15
 212 1437 212 1437 344 1437 c 0,0,1
336 1361 m 0,16,17
 247 1361 247 1361 189 1302 c 0,18,19
 129 1241 129 1241 129 1143 c 0,20,21
 129 1046 129 1046 189 985 c 0,22,23
 247 926 247 926 340 926 c 256,24,25
 433 926 433 926 491 985 c 0,26,27
 551 1046 551 1046 551 1143 c 0,28,29
 551 1243 551 1243 491 1302 c 256,30,31
 431 1361 431 1361 336 1361 c 0,16,17
EndSplineSet
EndChar

StartChar: plusminus
Encoding: 177 177 113
Width: 1180
VWidth: 1433
GlyphClass: 1
Flags: W
LayerCount: 2
Fore
SplineSet
72 616 m 1,0,-1
 72 739 l 1,1,-1
 529 739 l 1,2,-1
 529 1038 l 1,3,-1
 652 1038 l 1,4,-1
 652 739 l 1,5,-1
 1108 739 l 1,6,-1
 1108 616 l 1,7,-1
 652 616 l 1,8,-1
 652 319 l 1,9,-1
 529 319 l 1,10,-1
 529 616 l 1,11,-1
 72 616 l 1,0,-1
72 0 m 1,12,-1
 72 123 l 1,13,-1
 1108 123 l 1,14,-1
 1108 0 l 1,15,-1
 72 0 l 1,12,-1
EndSplineSet
EndChar

StartChar: twosuperior
Encoding: 178 178 114
Width: 737
VWidth: 1433
GlyphClass: 1
Flags: W
LayerCount: 2
Fore
SplineSet
97 639 m 1,0,-1
 97 733 l 1,1,2
 277 888 277 888 361 981 c 0,3,4
 494 1126 494 1126 494 1222 c 0,5,6
 494 1270 494 1270 458 1300 c 0,7,8
 417 1335 417 1335 350 1335 c 0,9,10
 266 1335 266 1335 150 1266 c 1,11,-1
 112 1362 l 1,12,13
 246 1429 246 1429 361 1429 c 0,14,15
 467 1429 467 1429 539 1383 c 0,16,17
 621 1331 621 1331 621 1230 c 0,18,19
 621 1136 621 1136 559 1048 c 0,20,21
 459 905 459 905 255 733 c 1,22,-1
 628 733 l 1,23,-1
 628 639 l 1,24,-1
 97 639 l 1,0,-1
EndSplineSet
EndChar

StartChar: threesuperior
Encoding: 179 179 115
Width: 737
VWidth: 1433
GlyphClass: 1
Flags: W
LayerCount: 2
Fore
SplineSet
92 665 m 1,0,-1
 119 763 l 1,1,2
 230 724 230 724 315 724 c 0,3,4
 387 724 387 724 433 757 c 0,5,6
 490 800 490 800 490 866 c 0,7,8
 490 936 490 936 421 973 c 0,9,10
 362 1005 362 1005 267 1005 c 0,11,12
 236 1005 236 1005 198 999 c 1,13,-1
 198 1097 l 1,14,15
 240 1093 240 1093 266 1093 c 0,16,17
 351 1093 351 1093 407 1124 c 0,18,19
 480 1164 480 1164 480 1228 c 0,20,21
 480 1275 480 1275 441 1304 c 0,22,23
 400 1335 400 1335 335 1335 c 0,24,25
 256 1335 256 1335 145 1292 c 1,26,-1
 119 1389 l 1,27,28
 232 1429 232 1429 349 1429 c 0,29,30
 469 1429 469 1429 541 1375 c 0,31,32
 607 1325 607 1325 607 1237 c 0,33,34
 607 1104 607 1104 457 1052 c 1,35,36
 617 1010 617 1010 617 859 c 0,37,38
 617 746 617 746 524 681 c 0,39,40
 444 626 444 626 326 626 c 0,41,42
 226 626 226 626 92 665 c 1,0,-1
EndSplineSet
EndChar

StartChar: acute
Encoding: 180 180 116
Width: 1024
VWidth: 1433
GlyphClass: 1
Flags: W
LayerCount: 2
Fore
SplineSet
590 1497 m 1,0,-1
 789 1497 l 1,1,-1
 490 1198 l 1,2,-1
 340 1198 l 1,3,-1
 590 1497 l 1,0,-1
EndSplineSet
EndChar

StartChar: mu
Encoding: 181 181 117
Width: 1180
VWidth: 1433
GlyphClass: 1
Flags: W
LayerCount: 2
Fore
SplineSet
170 -440 m 1,0,-1
 170 1038 l 1,1,-1
 326 1038 l 1,2,-1
 326 458 l 2,3,4
 326 277 326 277 366 209 c 0,5,6
 427 107 427 107 559 107 c 0,7,8
 657 107 657 107 745 180 c 0,9,10
 792 219 792 219 848 291 c 1,11,-1
 848 1038 l 1,12,-1
 1004 1038 l 1,13,-1
 1004 315 l 2,14,15
 1004 165 1004 165 1012 0 c 1,16,-1
 868 0 l 1,17,-1
 860 162 l 1,18,19
 704 -20 704 -20 511 -20 c 0,20,21
 428 -20 428 -20 376 20 c 0,22,23
 352 38 352 38 326 77 c 1,24,-1
 326 -440 l 1,25,-1
 170 -440 l 1,0,-1
EndSplineSet
EndChar

StartChar: paragraph
Encoding: 182 182 118
Width: 1229
VWidth: 1433
GlyphClass: 1
Flags: W
LayerCount: 2
Fore
SplineSet
459 -242 m 1,0,-1
 459 625 l 1,1,2
 305 625 305 625 203 696 c 0,3,4
 126 750 126 750 83 836 c 0,5,6
 41 921 41 921 41 1019 c 0,7,8
 41 1159 41 1159 119 1265 c 0,9,10
 196 1370 196 1370 334 1402 c 0,11,12
 397 1417 397 1417 538 1417 c 2,13,-1
 1024 1417 l 1,14,-1
 1024 -242 l 1,15,-1
 868 -242 l 1,16,-1
 868 1282 l 1,17,-1
 615 1282 l 1,18,-1
 615 -242 l 1,19,-1
 459 -242 l 1,0,-1
EndSplineSet
EndChar

StartChar: periodcentered
Encoding: 183 183 119
Width: 590
VWidth: 1433
GlyphClass: 1
Flags: W
LayerCount: 2
Fore
SplineSet
297 694 m 0,0,1
 346 694 346 694 380 661 c 0,2,3
 416 626 416 626 416 573 c 0,4,5
 416 521 416 521 380 485 c 0,6,7
 346 452 346 452 295 452 c 256,8,9
 244 452 244 452 210 485 c 0,10,11
 174 521 174 521 174 573 c 0,12,13
 174 626 174 626 210 661 c 0,14,15
 245 694 245 694 297 694 c 0,0,1
EndSplineSet
EndChar

StartChar: cedilla
Encoding: 184 184 120
Width: 1024
VWidth: 1433
GlyphClass: 1
Flags: W
LayerCount: 2
Fore
SplineSet
529 -70 m 1,0,-1
 715 -70 l 1,1,-1
 439 -371 l 1,2,-1
 287 -371 l 1,3,-1
 529 -70 l 1,0,-1
EndSplineSet
EndChar

StartChar: onesuperior
Encoding: 185 185 121
Width: 737
VWidth: 1433
GlyphClass: 1
Flags: W
LayerCount: 2
Fore
SplineSet
350 639 m 1,0,-1
 350 1296 l 1,1,-1
 186 1200 l 1,2,-1
 140 1285 l 1,3,-1
 360 1417 l 1,4,-1
 467 1417 l 1,5,-1
 467 639 l 1,6,-1
 350 639 l 1,0,-1
EndSplineSet
EndChar

StartChar: ordmasculine
Encoding: 186 186 122
Width: 737
VWidth: 1433
GlyphClass: 1
Flags: W
LayerCount: 2
Fore
SplineSet
372 1429 m 0,0,1
 500 1429 500 1429 576 1335 c 0,2,3
 639 1257 639 1257 639 1130 c 0,4,5
 639 994 639 994 566 913 c 0,6,7
 491 831 491 831 368 831 c 0,8,9
 236 831 236 831 161 925 c 0,10,11
 98 1004 98 1004 98 1132 c 0,12,13
 98 1268 98 1268 171 1348 c 0,14,15
 246 1429 246 1429 372 1429 c 0,0,1
367 1335 m 0,16,17
 292 1335 292 1335 249 1259 c 0,18,19
 219 1206 219 1206 219 1131 c 0,20,21
 219 1047 219 1047 255 992 c 0,22,23
 298 925 298 925 368 925 c 0,24,25
 445 925 445 925 488 1003 c 0,26,27
 518 1057 518 1057 518 1133 c 0,28,29
 518 1215 518 1215 482 1270 c 0,30,31
 439 1335 439 1335 367 1335 c 0,16,17
EndSplineSet
EndChar

StartChar: guillemotright
Encoding: 187 187 123
Width: 983
VWidth: 1433
GlyphClass: 1
Flags: W
LayerCount: 2
Fore
SplineSet
326 510 m 1,0,-1
 86 862 l 1,1,-1
 192 936 l 1,2,-1
 512 510 l 1,3,-1
 192 86 l 1,4,-1
 86 158 l 1,5,-1
 326 510 l 1,0,-1
731 510 m 1,6,-1
 492 862 l 1,7,-1
 598 936 l 1,8,-1
 915 510 l 1,9,-1
 598 86 l 1,10,-1
 492 158 l 1,11,-1
 731 510 l 1,6,-1
EndSplineSet
EndChar

StartChar: onequarter
Encoding: 188 188 124
Width: 1544
VWidth: 1433
GlyphClass: 1
Flags: W
LayerCount: 2
Fore
SplineSet
301 639 m 1,0,-1
 301 1296 l 1,1,-1
 137 1200 l 1,2,-1
 91 1285 l 1,3,-1
 311 1417 l 1,4,-1
 418 1417 l 1,5,-1
 418 639 l 1,6,-1
 301 639 l 1,0,-1
384 -41 m 1,7,-1
 943 1458 l 1,8,-1
 1064 1458 l 1,9,-1
 504 -41 l 1,10,-1
 384 -41 l 1,7,-1
1191 0 m 1,11,-1
 1191 201 l 1,12,-1
 834 201 l 1,13,-1
 834 311 l 1,14,-1
 1178 778 l 1,15,-1
 1314 778 l 1,16,-1
 1314 295 l 1,17,-1
 1437 295 l 1,18,-1
 1437 201 l 1,19,-1
 1314 201 l 1,20,-1
 1314 0 l 1,21,-1
 1191 0 l 1,11,-1
1195 295 m 1,22,-1
 1195 635 l 1,23,-1
 949 295 l 1,24,-1
 1195 295 l 1,22,-1
EndSplineSet
EndChar

StartChar: onehalf
Encoding: 189 189 125
Width: 1544
VWidth: 1433
GlyphClass: 1
Flags: W
LayerCount: 2
Fore
SplineSet
288 639 m 1,0,-1
 288 1296 l 1,1,-1
 124 1200 l 1,2,-1
 78 1285 l 1,3,-1
 298 1417 l 1,4,-1
 405 1417 l 1,5,-1
 405 639 l 1,6,-1
 288 639 l 1,0,-1
343 -41 m 1,7,-1
 902 1458 l 1,8,-1
 1023 1458 l 1,9,-1
 464 -41 l 1,10,-1
 343 -41 l 1,7,-1
873 0 m 1,11,-1
 873 94 l 1,12,13
 1052 249 1052 249 1137 342 c 0,14,15
 1270 486 1270 486 1270 583 c 0,16,17
 1270 631 1270 631 1234 661 c 0,18,19
 1193 696 1193 696 1126 696 c 0,20,21
 1042 696 1042 696 926 627 c 1,22,-1
 888 723 l 1,23,24
 1022 790 1022 790 1137 790 c 0,25,26
 1243 790 1243 790 1315 744 c 0,27,28
 1397 692 1397 692 1397 591 c 0,29,30
 1397 497 1397 497 1335 409 c 0,31,32
 1234 266 1234 266 1030 94 c 1,33,-1
 1404 94 l 1,34,-1
 1404 0 l 1,35,-1
 873 0 l 1,11,-1
EndSplineSet
EndChar

StartChar: threequarters
Encoding: 190 190 126
Width: 1544
VWidth: 1433
GlyphClass: 1
Flags: W
LayerCount: 2
Fore
SplineSet
65 665 m 1,0,-1
 92 763 l 1,1,2
 203 724 203 724 288 724 c 0,3,4
 360 724 360 724 406 757 c 0,5,6
 463 800 463 800 463 866 c 0,7,8
 463 936 463 936 394 973 c 0,9,10
 335 1005 335 1005 240 1005 c 0,11,12
 209 1005 209 1005 171 999 c 1,13,-1
 171 1097 l 1,14,15
 213 1093 213 1093 239 1093 c 0,16,17
 324 1093 324 1093 380 1124 c 0,18,19
 453 1164 453 1164 453 1228 c 0,20,21
 453 1275 453 1275 414 1304 c 0,22,23
 373 1335 373 1335 308 1335 c 0,24,25
 229 1335 229 1335 118 1292 c 1,26,-1
 92 1389 l 1,27,28
 205 1429 205 1429 322 1429 c 0,29,30
 442 1429 442 1429 514 1375 c 0,31,32
 580 1325 580 1325 580 1237 c 0,33,34
 580 1104 580 1104 430 1052 c 1,35,36
 590 1010 590 1010 590 859 c 0,37,38
 590 746 590 746 497 681 c 0,39,40
 417 626 417 626 299 626 c 0,41,42
 199 626 199 626 65 665 c 1,0,-1
453 -41 m 1,43,-1
 1012 1458 l 1,44,-1
 1133 1458 l 1,45,-1
 574 -41 l 1,46,-1
 453 -41 l 1,43,-1
1213 0 m 1,47,-1
 1213 201 l 1,48,-1
 855 201 l 1,49,-1
 855 311 l 1,50,-1
 1200 778 l 1,51,-1
 1336 778 l 1,52,-1
 1336 295 l 1,53,-1
 1458 295 l 1,54,-1
 1458 201 l 1,55,-1
 1336 201 l 1,56,-1
 1336 0 l 1,57,-1
 1213 0 l 1,47,-1
1217 295 m 1,58,-1
 1217 635 l 1,59,-1
 970 295 l 1,60,-1
 1217 295 l 1,58,-1
EndSplineSet
EndChar

StartChar: questiondown
Encoding: 191 191 127
Width: 840
VWidth: 1433
GlyphClass: 1
Flags: W
LayerCount: 2
Fore
SplineSet
394 670 m 1,0,-1
 533 670 l 1,1,-1
 533 611 l 2,2,3
 531 443 531 443 513 398 c 0,4,5
 490 338 490 338 363 218 c 0,6,7
 279 140 279 140 251 97 c 0,8,9
 216 43 216 43 216 -14 c 0,10,11
 216 -100 216 -100 282 -148 c 0,12,13
 335 -186 335 -186 415 -186 c 0,14,15
 529 -186 529 -186 695 -90 c 1,16,-1
 738 -221 l 1,17,18
 566 -311 566 -311 398 -311 c 0,19,20
 232 -311 232 -311 134 -225 c 0,21,22
 42 -145 42 -145 42 -19 c 0,23,24
 42 77 42 77 103 162 c 0,25,26
 137 211 137 211 221 288 c 0,27,28
 333 393 333 393 366 442 c 0,29,30
 394 486 394 486 394 563 c 2,31,-1
 394 670 l 1,0,-1
463 1059 m 0,32,33
 512 1059 512 1059 546 1026 c 0,34,35
 582 991 582 991 582 938 c 0,36,37
 582 886 582 886 546 850 c 0,38,39
 512 817 512 817 461 817 c 256,40,41
 410 817 410 817 376 850 c 0,42,43
 340 886 340 886 340 938 c 0,44,45
 340 991 340 991 376 1026 c 0,46,47
 411 1059 411 1059 463 1059 c 0,32,33
EndSplineSet
EndChar

StartChar: Aring
Encoding: 197 197 133
Width: 1276
VWidth: 1433
GlyphClass: 1
Flags: W
LayerCount: 2
Fore
SplineSet
29 0 m 1,0,-1
 534 1421 l 1,1,2
 435 1481 435 1481 435 1597 c 0,3,4
 435 1685 435 1685 495 1744 c 0,5,6
 554 1802 554 1802 638 1802 c 0,7,8
 723 1802 723 1802 782 1744 c 0,9,10
 842 1685 842 1685 842 1597 c 0,11,12
 842 1480 842 1480 739 1419 c 1,13,-1
 1248 0 l 1,14,-1
 1071 0 l 1,15,-1
 897 496 l 1,16,-1
 369 496 l 1,17,-1
 195 0 l 1,18,-1
 29 0 l 1,0,-1
848 631 m 1,19,-1
 722 1005 l 2,20,21
 674 1146 674 1146 635 1278 c 1,22,23
 600 1161 600 1161 547 1004 c 2,24,-1
 418 631 l 1,25,-1
 848 631 l 1,19,-1
637 1720 m 0,26,27
 581 1720 581 1720 548 1678 c 0,28,29
 521 1644 521 1644 521 1598 c 0,30,31
 521 1551 521 1551 548 1517 c 0,32,33
 581 1475 581 1475 638 1475 c 0,34,35
 696 1475 696 1475 729 1517 c 0,36,37
 756 1552 756 1552 756 1597 c 0,38,39
 756 1643 756 1643 729 1678 c 0,40,41
 697 1720 697 1720 637 1720 c 0,26,27
EndSplineSet
EndChar

StartChar: AE
Encoding: 198 198 134
Width: 1849
VWidth: 1433
GlyphClass: 1
Flags: W
LayerCount: 2
Fore
SplineSet
949 401 m 1,0,-1
 375 401 l 1,1,-1
 120 0 l 1,2,-1
 -74 0 l 1,3,-1
 840 1417 l 1,4,-1
 1697 1417 l 1,5,-1
 1697 1282 l 1,6,-1
 1113 1282 l 1,7,-1
 1113 786 l 1,8,-1
 1668 786 l 1,9,-1
 1668 651 l 1,10,-1
 1113 651 l 1,11,-1
 1113 135 l 1,12,-1
 1728 135 l 1,13,-1
 1728 0 l 1,14,-1
 949 0 l 1,15,-1
 949 401 l 1,0,-1
949 536 m 1,16,-1
 949 1282 l 1,17,-1
 933 1282 l 1,18,-1
 460 536 l 1,19,-1
 949 536 l 1,16,-1
EndSplineSet
EndChar

StartChar: Eth
Encoding: 208 208 144
Width: 1343
VWidth: 1433
GlyphClass: 1
Flags: W
LayerCount: 2
Fore
SplineSet
184 668 m 1,0,-1
 14 668 l 1,1,-1
 14 774 l 1,2,-1
 184 774 l 1,3,-1
 184 1417 l 1,4,-1
 501 1417 l 2,5,6
 666 1417 666 1417 774 1398 c 0,7,8
 1011 1355 1011 1355 1127 1159 c 0,9,10
 1232 981 1232 981 1232 717 c 0,11,12
 1232 462 1232 462 1134 286 c 0,13,14
 1014 71 1014 71 768 22 c 0,15,16
 655 0 655 0 479 0 c 2,17,-1
 184 0 l 1,18,-1
 184 668 l 1,0,-1
348 668 m 1,19,-1
 348 135 l 1,20,-1
 491 135 l 2,21,22
 742 135 742 135 866 226 c 0,23,24
 963 297 963 297 1015 437 c 0,25,26
 1058 552 1058 552 1058 706 c 0,27,28
 1058 940 1058 940 966 1095 c 0,29,30
 879 1240 879 1240 706 1269 c 0,31,32
 629 1282 629 1282 467 1282 c 2,33,-1
 348 1282 l 1,34,-1
 348 774 l 1,35,-1
 653 774 l 1,36,-1
 653 668 l 1,37,-1
 348 668 l 1,19,-1
EndSplineSet
EndChar

StartChar: multiply
Encoding: 215 215 151
Width: 1180
VWidth: 1433
GlyphClass: 1
Flags: W
LayerCount: 2
Fore
SplineSet
502 518 m 1,0,-1
 150 870 l 1,1,-1
 238 958 l 1,2,-1
 590 606 l 1,3,-1
 943 959 l 1,4,-1
 1031 871 l 1,5,-1
 678 518 l 1,6,-1
 1030 166 l 1,7,-1
 942 78 l 1,8,-1
 590 430 l 1,9,-1
 237 77 l 1,10,-1
 149 165 l 1,11,-1
 502 518 l 1,0,-1
EndSplineSet
EndChar

StartChar: Oslash
Encoding: 216 216 152
Width: 1475
VWidth: 1433
GlyphClass: 1
Flags: W
LayerCount: 2
Fore
SplineSet
136 39 m 1,0,-1
 268 202 l 1,1,2
 111 412 111 412 111 707 c 0,3,4
 111 906 111 906 185 1071 c 0,5,6
 348 1437 348 1437 736 1437 c 0,7,8
 911 1437 911 1437 1038 1367 c 0,9,10
 1089 1339 1089 1339 1147 1285 c 1,11,-1
 1270 1437 l 1,12,-1
 1340 1380 l 1,13,-1
 1207 1216 l 1,14,15
 1275 1116 1275 1116 1307 1032 c 0,16,17
 1364 881 1364 881 1364 708 c 0,18,19
 1364 512 1364 512 1290 346 c 0,20,21
 1128 -20 1128 -20 737 -20 c 0,22,23
 482 -20 482 -20 328 133 c 1,24,-1
 207 -16 l 1,25,-1
 136 39 l 1,0,-1
1049 1165 m 1,26,27
 996 1222 996 1222 948 1250 c 0,28,29
 858 1302 858 1302 738 1302 c 0,30,31
 519 1302 519 1302 396 1126 c 0,32,33
 285 969 285 969 285 709 c 0,34,35
 285 488 285 488 371 329 c 1,36,-1
 1049 1165 l 1,26,27
425 253 m 1,37,38
 547 115 547 115 737 115 c 0,39,40
 956 115 956 115 1079 291 c 0,41,42
 1190 448 1190 448 1190 708 c 0,43,44
 1190 929 1190 929 1104 1089 c 1,45,-1
 425 253 l 1,37,38
EndSplineSet
EndChar

StartChar: Thorn
Encoding: 222 222 158
Width: 1042
VWidth: 1433
GlyphClass: 1
Flags: W
LayerCount: 2
Fore
SplineSet
184 0 m 1,0,-1
 184 1417 l 1,1,-1
 348 1417 l 1,2,-1
 348 1133 l 1,3,-1
 458 1133 l 2,4,5
 707 1133 707 1133 827 1058 c 0,6,7
 917 1001 917 1001 960 895 c 0,8,9
 993 815 993 815 993 721 c 0,10,11
 993 570 993 570 910 469 c 0,12,13
 783 314 783 314 458 314 c 2,14,-1
 348 314 l 1,15,-1
 348 0 l 1,16,-1
 184 0 l 1,0,-1
348 451 m 1,17,-1
 415 451 l 2,18,19
 617 451 617 451 702 496 c 0,20,21
 819 558 819 558 819 722 c 0,22,23
 819 812 819 812 777 881 c 0,24,25
 727 964 727 964 623 984 c 0,26,27
 548 999 548 999 441 999 c 2,28,-1
 348 999 l 1,29,-1
 348 451 l 1,17,-1
EndSplineSet
EndChar

StartChar: germandbls
Encoding: 223 223 159
Width: 1147
VWidth: 1433
GlyphClass: 1
Flags: W
LayerCount: 2
Fore
SplineSet
172 0 m 1,0,-1
 172 1038 l 2,1,2
 172 1151 172 1151 181 1210 c 0,3,4
 203 1366 203 1366 326 1450 c 0,5,6
 422 1517 422 1517 564 1517 c 0,7,8
 748 1517 748 1517 860 1408 c 0,9,10
 969 1301 969 1301 969 1140 c 0,11,12
 969 966 969 966 852 872 c 0,13,14
 805 835 805 835 757 818 c 0,15,16
 730 809 730 809 677 803 c 1,17,18
 760 801 760 801 810 784 c 0,19,20
 929 743 929 743 992 633 c 0,21,22
 1046 539 1046 539 1046 417 c 0,23,24
 1046 236 1046 236 941 113 c 0,25,26
 826 -20 826 -20 607 -20 c 0,27,28
 535 -20 535 -20 447 0 c 1,29,-1
 471 132 l 1,30,31
 534 109 534 109 601 109 c 0,32,33
 730 109 730 109 803 187 c 0,34,35
 882 271 882 271 882 418 c 0,36,37
 882 582 882 582 780 664 c 0,38,39
 691 735 691 735 554 735 c 0,40,41
 540 735 540 735 518 734 c 1,42,-1
 518 859 l 1,43,44
 641 864 641 864 706 916 c 0,45,46
 805 993 805 993 805 1137 c 0,47,48
 805 1241 805 1241 748 1310 c 0,49,50
 680 1392 680 1392 565 1392 c 0,51,52
 416 1392 416 1392 359 1269 c 0,53,54
 328 1202 328 1202 328 1021 c 2,55,-1
 328 0 l 1,56,-1
 172 0 l 1,0,-1
EndSplineSet
EndChar

StartChar: ae
Encoding: 230 230 166
Width: 1649
VWidth: 1433
GlyphClass: 1
Flags: W
LayerCount: 2
Fore
SplineSet
809 166 m 1,0,1
 747 94 747 94 688 54 c 0,2,3
 577 -20 577 -20 424 -20 c 0,4,5
 257 -20 257 -20 170 69 c 0,6,7
 94 146 94 146 94 275 c 0,8,9
 94 472 94 472 271 558 c 0,10,11
 376 608 376 608 566 608 c 0,12,13
 622 608 622 608 717 602 c 1,14,-1
 717 657 l 2,15,16
 717 766 717 766 688 825 c 0,17,18
 636 933 636 933 482 933 c 0,19,20
 354 933 354 933 214 843 c 1,21,-1
 146 955 l 1,22,23
 309 1058 309 1058 499 1058 c 0,24,25
 737 1058 737 1058 827 908 c 1,26,27
 945 1058 945 1058 1146 1058 c 0,28,29
 1409 1058 1409 1058 1499 831 c 0,30,31
 1549 703 1549 703 1553 477 c 1,32,-1
 881 477 l 1,33,34
 896 303 896 303 956 219 c 0,35,36
 1036 105 1036 105 1193 105 c 0,37,38
 1325 105 1325 105 1454 203 c 1,39,-1
 1514 82 l 1,40,41
 1363 -20 1363 -20 1186 -20 c 0,42,43
 1026 -20 1026 -20 920 54 c 0,44,45
 861 94 861 94 809 166 c 1,0,1
717 479 m 1,46,47
 658 483 658 483 599 483 c 0,48,49
 436 483 436 483 358 443 c 0,50,51
 258 391 258 391 258 281 c 0,52,53
 258 201 258 201 308 154 c 0,54,55
 360 105 360 105 450 105 c 0,56,57
 581 105 581 105 666 203 c 0,58,59
 717 261 717 261 717 336 c 2,60,-1
 717 479 l 1,46,47
1387 602 m 1,61,62
 1384 717 1384 717 1350 794 c 0,63,64
 1289 933 1289 933 1142 933 c 0,65,66
 999 933 999 933 929 796 c 0,67,68
 889 718 889 718 885 602 c 1,69,-1
 1387 602 l 1,61,62
EndSplineSet
EndChar

StartChar: eth
Encoding: 240 240 176
Width: 1102
VWidth: 1433
GlyphClass: 1
Flags: W
LayerCount: 2
Fore
SplineSet
222 1381 m 1,0,-1
 287 1512 l 1,1,2
 442 1453 442 1453 585 1338 c 1,3,-1
 860 1469 l 1,4,-1
 901 1379 l 1,5,-1
 665 1267 l 1,6,7
 781 1149 781 1149 865 1005 c 0,8,9
 1001 769 1001 769 1001 503 c 0,10,11
 1001 270 1001 270 887 128 c 0,12,13
 768 -20 768 -20 544 -20 c 0,14,15
 345 -20 345 -20 231 101 c 0,16,17
 100 240 100 240 100 487 c 0,18,19
 100 712 100 712 216 853 c 0,20,21
 332 993 332 993 525 993 c 0,22,23
 633 993 633 993 730 938 c 1,24,25
 647 1091 647 1091 522 1199 c 1,26,-1
 251 1070 l 1,27,-1
 210 1160 l 1,28,-1
 433 1266 l 1,29,30
 319 1345 319 1345 222 1381 c 1,0,-1
546 868 m 0,31,32
 415 868 415 868 338 766 c 0,33,34
 264 667 264 667 264 492 c 0,35,36
 264 340 264 340 322 237 c 0,37,38
 396 106 396 106 550 106 c 0,39,40
 706 106 706 106 777 237 c 0,41,42
 837 348 837 348 837 500 c 0,43,44
 837 667 837 667 763 766 c 0,45,46
 686 868 686 868 546 868 c 0,31,32
EndSplineSet
EndChar

StartChar: divide
Encoding: 247 247 183
Width: 1180
VWidth: 1433
GlyphClass: 1
Flags: W
LayerCount: 2
Fore
SplineSet
72 457 m 1,0,-1
 72 580 l 1,1,-1
 1108 580 l 1,2,-1
 1108 457 l 1,3,-1
 72 457 l 1,0,-1
592 962 m 0,4,5
 638 962 638 962 669 931 c 0,6,7
 703 898 703 898 703 850 c 0,8,9
 703 801 703 801 669 768 c 0,10,11
 638 737 638 737 591 737 c 0,12,13
 543 737 543 737 512 768 c 0,14,15
 478 801 478 801 478 849 c 0,16,17
 478 899 478 899 512 931 c 0,18,19
 544 962 544 962 592 962 c 0,4,5
592 301 m 0,20,21
 638 301 638 301 669 270 c 0,22,23
 703 237 703 237 703 188 c 0,24,25
 703 140 703 140 669 107 c 0,26,27
 638 76 638 76 591 76 c 0,28,29
 543 76 543 76 512 107 c 0,30,31
 478 140 478 140 478 188 c 0,32,33
 478 238 478 238 512 270 c 0,34,35
 544 301 544 301 592 301 c 0,20,21
EndSplineSet
EndChar

StartChar: oslash
Encoding: 248 248 184
Width: 1157
VWidth: 1433
GlyphClass: 1
Flags: W
LayerCount: 2
Fore
SplineSet
73 27 m 1,0,-1
 202 169 l 1,1,2
 101 313 101 313 101 520 c 0,3,4
 101 761 101 761 234 909 c 0,5,6
 369 1058 369 1058 581 1058 c 0,7,8
 765 1058 765 1058 898 935 c 1,9,-1
 1021 1071 l 1,10,-1
 1085 1013 l 1,11,-1
 955 871 l 1,12,13
 1057 725 1057 725 1057 519 c 0,14,15
 1057 277 1057 277 924 130 c 0,16,17
 789 -20 789 -20 577 -20 c 0,18,19
 388 -20 388 -20 259 104 c 1,20,-1
 136 -31 l 1,21,-1
 73 27 l 1,0,-1
801 828 m 1,22,23
 715 933 715 933 579 933 c 0,24,25
 411 933 411 933 325 780 c 0,26,27
 265 674 265 674 265 519 c 0,28,29
 265 388 265 388 309 287 c 1,30,-1
 801 828 l 1,22,23
356 211 m 1,31,32
 443 105 443 105 578 105 c 0,33,34
 747 105 747 105 833 258 c 0,35,36
 893 364 893 364 893 518 c 0,37,38
 893 651 893 651 848 753 c 1,39,-1
 356 211 l 1,31,32
EndSplineSet
EndChar

StartChar: thorn
Encoding: 254 254 190
Width: 1149
VWidth: 1433
GlyphClass: 1
Flags: W
LayerCount: 2
Fore
SplineSet
178 -440 m 1,0,-1
 178 1497 l 1,1,-1
 334 1497 l 1,2,-1
 334 882 l 1,3,4
 396 955 396 955 448 993 c 0,5,6
 536 1058 536 1058 645 1058 c 0,7,8
 843 1058 843 1058 961 865 c 0,9,10
 1049 721 1049 721 1049 510 c 0,11,12
 1049 253 1049 253 912 103 c 0,13,14
 800 -20 800 -20 639 -20 c 0,15,16
 454 -20 454 -20 334 143 c 1,17,-1
 334 -440 l 1,18,-1
 178 -440 l 1,0,-1
334 299 m 1,19,20
 434 105 434 105 609 105 c 0,21,22
 752 105 752 105 824 236 c 0,23,24
 885 348 885 348 885 514 c 0,25,26
 885 686 885 686 822 801 c 0,27,28
 750 933 750 933 610 933 c 0,29,30
 455 933 455 933 334 737 c 1,31,-1
 334 299 l 1,19,20
EndSplineSet
EndChar

StartChar: Aogonek
Encoding: 260 260 196
Width: 1276
VWidth: 1433
GlyphClass: 1
Flags: W
LayerCount: 2
Fore
SplineSet
29 0 m 1,0,-1
 533 1417 l 1,1,-1
 740 1417 l 1,2,-1
 1248 0 l 1,3,4
 1151 -61 1151 -61 1118 -89 c 0,5,6
 1024 -168 1024 -168 1024 -245 c 0,7,8
 1024 -289 1024 -289 1055 -314 c 0,9,10
 1086 -338 1086 -338 1131 -338 c 0,11,12
 1166 -338 1166 -338 1231 -322 c 1,13,-1
 1248 -420 l 1,14,15
 1153 -446 1153 -446 1097 -446 c 0,16,17
 1009 -446 1009 -446 952 -404 c 0,18,19
 887 -356 887 -356 887 -274 c 0,20,21
 887 -151 887 -151 1021 -63 c 0,22,23
 1062 -35 1062 -35 1149 0 c 1,24,-1
 1071 0 l 1,25,-1
 897 496 l 1,26,-1
 369 496 l 1,27,-1
 195 0 l 1,28,-1
 29 0 l 1,0,-1
848 631 m 1,29,-1
 722 1004 l 2,30,31
 673 1147 673 1147 635 1277 c 1,32,33
 601 1161 601 1161 547 1003 c 2,34,-1
 418 631 l 1,35,-1
 848 631 l 1,29,-1
EndSplineSet
EndChar

StartChar: aogonek
Encoding: 261 261 197
Width: 1051
VWidth: 1433
GlyphClass: 1
Flags: W
LayerCount: 2
Fore
SplineSet
880 0 m 1,0,1
 781 -64 781 -64 750 -89 c 0,2,3
 656 -168 656 -168 656 -245 c 0,4,5
 656 -289 656 -289 687 -314 c 0,6,7
 718 -338 718 -338 764 -338 c 0,8,9
 798 -338 798 -338 864 -322 c 1,10,-1
 880 -420 l 1,11,12
 785 -446 785 -446 730 -446 c 0,13,14
 641 -446 641 -446 584 -404 c 0,15,16
 519 -356 519 -356 519 -274 c 0,17,18
 519 -151 519 -151 653 -63 c 0,19,20
 694 -36 694 -36 781 0 c 1,21,-1
 735 0 l 1,22,-1
 728 121 l 1,23,24
 675 64 675 64 626 34 c 0,25,26
 536 -20 536 -20 418 -20 c 0,27,28
 255 -20 255 -20 169 72 c 0,29,30
 93 153 93 153 93 286 c 0,31,32
 93 492 93 492 266 578 c 0,33,34
 367 629 367 629 565 629 c 0,35,36
 613 629 613 629 716 625 c 1,37,-1
 716 653 l 2,38,39
 716 766 716 766 687 825 c 0,40,41
 635 933 635 933 481 933 c 0,42,43
 355 933 355 933 213 843 c 1,44,-1
 145 955 l 1,45,46
 308 1058 308 1058 498 1058 c 0,47,48
 734 1058 734 1058 821 917 c 0,49,50
 862 850 862 850 869 725 c 0,51,52
 872 681 872 681 872 598 c 2,53,-1
 872 259 l 2,54,55
 871 109 871 109 880 0 c 1,0,1
716 506 m 1,56,57
 661 510 661 510 599 510 c 0,58,59
 433 510 433 510 357 466 c 0,60,61
 257 409 257 409 257 290 c 0,62,63
 257 206 257 206 307 156 c 0,64,65
 359 105 359 105 446 105 c 0,66,67
 609 105 609 105 716 264 c 1,68,-1
 716 506 l 1,56,57
EndSplineSet
EndChar

StartChar: Ccircumflex
Encoding: 264 264 200
Width: 1202
VWidth: 1433
GlyphClass: 1
Flags: W
LayerCount: 2
Fore
SplineSet
1112 190 m 1,0,-1
 1153 59 l 1,1,2
 950 -20 950 -20 772 -20 c 0,3,4
 480 -20 480 -20 302 168 c 0,5,6
 111 371 111 371 111 698 c 0,7,8
 111 1074 111 1074 340 1285 c 0,9,10
 507 1438 507 1438 764 1438 c 0,11,12
 950 1438 950 1438 1145 1350 c 1,13,-1
 1092 1219 l 1,14,15
 918 1303 918 1303 768 1303 c 0,16,17
 533 1303 533 1303 409 1125 c 256,18,19
 285 947 285 947 285 698 c 0,20,21
 285 525 285 525 349 384 c 0,22,23
 471 115 471 115 773 115 c 0,24,25
 938 115 938 115 1112 190 c 1,0,-1
753 1747 m 1,26,-1
 603 1546 l 1,27,-1
 454 1546 l 1,28,-1
 659 1845 l 1,29,-1
 847 1845 l 1,30,-1
 1052 1546 l 1,31,-1
 902 1546 l 1,32,-1
 753 1747 l 1,26,-1
EndSplineSet
EndChar

StartChar: ccircumflex
Encoding: 265 265 201
Width: 944
VWidth: 1433
GlyphClass: 1
Flags: W
LayerCount: 2
Fore
SplineSet
839 197 m 1,0,-1
 899 76 l 1,1,2
 758 -20 758 -20 584 -20 c 0,3,4
 360 -20 360 -20 233 117 c 0,5,6
 100 261 100 261 100 510 c 0,7,8
 100 783 100 783 241 930 c 0,9,10
 364 1059 364 1059 569 1059 c 0,11,12
 731 1059 731 1059 880 975 c 1,13,-1
 821 852 l 1,14,15
 694 934 694 934 568 934 c 0,16,17
 418 934 418 934 340 823 c 0,18,19
 264 715 264 715 264 529 c 0,20,21
 264 330 264 330 354 212 c 0,22,23
 437 105 437 105 586 105 c 0,24,25
 718 105 718 105 839 197 c 1,0,-1
561 1399 m 1,26,-1
 412 1198 l 1,27,-1
 262 1198 l 1,28,-1
 467 1497 l 1,29,-1
 655 1497 l 1,30,-1
 860 1198 l 1,31,-1
 711 1198 l 1,32,-1
 561 1399 l 1,26,-1
EndSplineSet
EndChar

StartChar: Cdotaccent
Encoding: 266 266 202
Width: 1202
VWidth: 1433
GlyphClass: 1
Flags: W
LayerCount: 2
Fore
SplineSet
1112 190 m 1,0,-1
 1153 59 l 1,1,2
 950 -20 950 -20 772 -20 c 0,3,4
 480 -20 480 -20 302 168 c 0,5,6
 111 371 111 371 111 698 c 0,7,8
 111 1074 111 1074 340 1285 c 0,9,10
 507 1438 507 1438 764 1438 c 0,11,12
 950 1438 950 1438 1145 1350 c 1,13,-1
 1092 1219 l 1,14,15
 918 1303 918 1303 768 1303 c 0,16,17
 533 1303 533 1303 409 1125 c 256,18,19
 285 947 285 947 285 698 c 0,20,21
 285 525 285 525 349 384 c 0,22,23
 471 115 471 115 773 115 c 0,24,25
 938 115 938 115 1112 190 c 1,0,-1
803 1802 m 0,26,27
 855 1802 855 1802 885 1764 c 0,28,29
 908 1736 908 1736 908 1695 c 0,30,31
 908 1655 908 1655 885 1627 c 0,32,33
 855 1589 855 1589 802 1589 c 0,34,35
 747 1589 747 1589 717 1628 c 0,36,37
 695 1657 695 1657 695 1698 c 0,38,39
 695 1738 695 1738 717 1765 c 0,40,41
 748 1802 748 1802 803 1802 c 0,26,27
EndSplineSet
EndChar

StartChar: cdotaccent
Encoding: 267 267 203
Width: 944
VWidth: 1433
GlyphClass: 1
Flags: W
LayerCount: 2
Fore
SplineSet
839 197 m 1,0,-1
 899 76 l 1,1,2
 758 -20 758 -20 584 -20 c 0,3,4
 360 -20 360 -20 233 117 c 0,5,6
 100 261 100 261 100 510 c 0,7,8
 100 783 100 783 241 930 c 0,9,10
 364 1059 364 1059 569 1059 c 0,11,12
 731 1059 731 1059 880 975 c 1,13,-1
 821 852 l 1,14,15
 694 934 694 934 568 934 c 0,16,17
 418 934 418 934 340 823 c 0,18,19
 264 715 264 715 264 529 c 0,20,21
 264 330 264 330 354 212 c 0,22,23
 437 105 437 105 586 105 c 0,24,25
 718 105 718 105 839 197 c 1,0,-1
583 1454 m 0,26,27
 635 1454 635 1454 666 1416 c 0,28,29
 688 1388 688 1388 688 1347 c 0,30,31
 688 1307 688 1307 666 1279 c 0,32,33
 635 1241 635 1241 582 1241 c 0,34,35
 528 1241 528 1241 498 1280 c 0,36,37
 475 1309 475 1309 475 1350 c 0,38,39
 475 1390 475 1390 498 1417 c 0,40,41
 528 1454 528 1454 583 1454 c 0,26,27
EndSplineSet
EndChar

StartChar: Dcroat
Encoding: 272 272 208
Width: 1343
VWidth: 1433
GlyphClass: 1
Flags: W
LayerCount: 2
Fore
SplineSet
184 668 m 1,0,-1
 14 668 l 1,1,-1
 14 774 l 1,2,-1
 184 774 l 1,3,-1
 184 1417 l 1,4,-1
 501 1417 l 2,5,6
 666 1417 666 1417 774 1398 c 0,7,8
 1011 1355 1011 1355 1127 1159 c 0,9,10
 1232 981 1232 981 1232 717 c 0,11,12
 1232 462 1232 462 1134 286 c 0,13,14
 1014 71 1014 71 768 22 c 0,15,16
 655 0 655 0 479 0 c 2,17,-1
 184 0 l 1,18,-1
 184 668 l 1,0,-1
348 668 m 1,19,-1
 348 135 l 1,20,-1
 491 135 l 2,21,22
 742 135 742 135 866 226 c 0,23,24
 963 297 963 297 1015 437 c 0,25,26
 1058 552 1058 552 1058 706 c 0,27,28
 1058 940 1058 940 966 1095 c 0,29,30
 879 1240 879 1240 706 1269 c 0,31,32
 629 1282 629 1282 467 1282 c 2,33,-1
 348 1282 l 1,34,-1
 348 774 l 1,35,-1
 653 774 l 1,36,-1
 653 668 l 1,37,-1
 348 668 l 1,19,-1
EndSplineSet
EndChar

StartChar: dcroat
Encoding: 273 273 209
Width: 1149
VWidth: 1433
GlyphClass: 1
Flags: W
LayerCount: 2
Fore
SplineSet
970 1339 m 1,0,-1
 1113 1339 l 1,1,-1
 1113 1220 l 1,2,-1
 970 1220 l 1,3,-1
 970 378 l 2,4,5
 970 224 970 224 975 83 c 2,6,-1
 978 0 l 1,7,-1
 831 0 l 1,8,-1
 826 158 l 1,9,10
 769 84 769 84 727 50 c 0,11,12
 642 -20 642 -20 517 -20 c 0,13,14
 328 -20 328 -20 213 135 c 0,15,16
 100 288 100 288 100 527 c 0,17,18
 100 777 100 777 228 926 c 0,19,20
 343 1059 343 1059 509 1059 c 0,21,22
 694 1059 694 1059 814 895 c 1,23,-1
 814 1220 l 1,24,-1
 518 1220 l 1,25,-1
 518 1339 l 1,26,-1
 814 1339 l 1,27,-1
 814 1497 l 1,28,-1
 970 1497 l 1,29,-1
 970 1339 l 1,0,-1
814 739 m 1,30,31
 714 934 714 934 540 934 c 0,32,33
 408 934 408 934 338 824 c 0,34,35
 264 707 264 707 264 523 c 0,36,37
 264 352 264 352 327 237 c 0,38,39
 399 105 399 105 542 105 c 0,40,41
 651 105 651 105 734 192 c 0,42,43
 772 232 772 232 814 299 c 1,44,-1
 814 739 l 1,30,31
EndSplineSet
EndChar

StartChar: Ebreve
Encoding: 276 276 212
Width: 1083
VWidth: 1433
GlyphClass: 1
Flags: W
LayerCount: 2
Fore
SplineSet
184 0 m 1,0,-1
 184 1417 l 1,1,-1
 932 1417 l 1,2,-1
 932 1282 l 1,3,-1
 348 1282 l 1,4,-1
 348 786 l 1,5,-1
 903 786 l 1,6,-1
 903 651 l 1,7,-1
 348 651 l 1,8,-1
 348 135 l 1,9,-1
 962 135 l 1,10,-1
 962 0 l 1,11,-1
 184 0 l 1,0,-1
262 1845 m 1,12,-1
 396 1845 l 1,13,14
 411 1652 411 1652 562 1652 c 256,15,16
 713 1652 713 1652 728 1845 c 1,17,-1
 863 1845 l 1,18,19
 857 1736 857 1736 816 1669 c 0,20,21
 737 1541 737 1541 562 1541 c 256,22,23
 387 1541 387 1541 309 1669 c 0,24,25
 267 1736 267 1736 262 1845 c 1,12,-1
EndSplineSet
EndChar

StartChar: ebreve
Encoding: 277 277 213
Width: 1077
VWidth: 1433
GlyphClass: 1
Flags: W
LayerCount: 2
Fore
SplineSet
264 477 m 1,0,1
 281 303 281 303 344 218 c 0,2,3
 430 105 430 105 598 105 c 0,4,5
 741 105 741 105 882 203 c 1,6,-1
 942 82 l 1,7,8
 780 -20 780 -20 595 -20 c 0,9,10
 349 -20 349 -20 216 141 c 0,11,12
 100 282 100 282 100 519 c 0,13,14
 100 807 100 807 255 951 c 0,15,16
 371 1059 371 1059 552 1059 c 0,17,18
 829 1059 829 1059 924 832 c 0,19,20
 977 703 977 703 981 477 c 1,21,-1
 264 477 l 1,0,1
815 602 m 1,22,23
 812 718 812 718 775 795 c 0,24,25
 708 934 708 934 547 934 c 0,26,27
 393 934 393 934 316 797 c 0,28,29
 272 718 272 718 268 602 c 1,30,-1
 815 602 l 1,22,23
251 1497 m 1,31,-1
 386 1497 l 1,32,33
 401 1304 401 1304 552 1304 c 0,34,35
 702 1304 702 1304 717 1497 c 1,36,-1
 852 1497 l 1,37,38
 847 1384 847 1384 801 1316 c 0,39,40
 720 1193 720 1193 552 1193 c 256,41,42
 384 1193 384 1193 302 1316 c 0,43,44
 257 1384 257 1384 251 1497 c 1,31,-1
EndSplineSet
EndChar

StartChar: Eogonek
Encoding: 280 280 216
Width: 1083
VWidth: 1433
GlyphClass: 1
Flags: W
LayerCount: 2
Fore
SplineSet
184 0 m 1,0,-1
 184 1417 l 1,1,-1
 932 1417 l 1,2,-1
 932 1282 l 1,3,-1
 348 1282 l 1,4,-1
 348 786 l 1,5,-1
 903 786 l 1,6,-1
 903 651 l 1,7,-1
 348 651 l 1,8,-1
 348 135 l 1,9,-1
 962 135 l 1,10,-1
 962 0 l 1,11,12
 951 -7 951 -7 940 -15 c 0,13,14
 844 -77 844 -77 808 -112 c 0,15,16
 739 -177 739 -177 739 -245 c 0,17,18
 739 -289 739 -289 770 -314 c 0,19,20
 801 -338 801 -338 846 -338 c 0,21,22
 881 -338 881 -338 946 -322 c 1,23,-1
 962 -420 l 1,24,25
 870 -446 870 -446 812 -446 c 0,26,27
 724 -446 724 -446 667 -404 c 0,28,29
 602 -356 602 -356 602 -274 c 0,30,31
 602 -151 602 -151 736 -63 c 0,32,33
 777 -35 777 -35 864 0 c 1,34,-1
 184 0 l 1,0,-1
EndSplineSet
EndChar

StartChar: eogonek
Encoding: 281 281 217
Width: 1077
VWidth: 1433
GlyphClass: 1
Flags: W
LayerCount: 2
Fore
SplineSet
674 -16 m 1,0,1
 604 -60 604 -60 569 -90 c 0,2,3
 475 -168 475 -168 475 -245 c 0,4,5
 475 -289 475 -289 506 -314 c 0,6,7
 537 -338 537 -338 583 -338 c 0,8,9
 617 -338 617 -338 682 -322 c 1,10,-1
 699 -420 l 1,11,12
 605 -446 605 -446 549 -446 c 0,13,14
 460 -446 460 -446 403 -404 c 0,15,16
 338 -356 338 -356 338 -274 c 0,17,18
 338 -118 338 -118 554 -19 c 1,19,20
 398 -9 398 -9 290 70 c 0,21,22
 100 210 100 210 100 518 c 0,23,24
 100 806 100 806 255 950 c 0,25,26
 371 1058 371 1058 552 1058 c 0,27,28
 829 1058 829 1058 924 831 c 0,29,30
 977 703 977 703 981 477 c 1,31,-1
 264 477 l 1,32,33
 280 303 280 303 344 218 c 0,34,35
 430 104 430 104 598 104 c 0,36,37
 742 104 742 104 882 203 c 1,38,-1
 942 82 l 1,39,40
 823 2 823 2 674 -16 c 1,0,1
815 602 m 1,41,42
 812 717 812 717 775 794 c 0,43,44
 708 933 708 933 547 933 c 0,45,46
 393 933 393 933 316 796 c 0,47,48
 272 717 272 717 268 602 c 1,49,-1
 815 602 l 1,41,42
EndSplineSet
EndChar

StartChar: Gcircumflex
Encoding: 284 284 220
Width: 1378
VWidth: 1433
GlyphClass: 1
Flags: W
LayerCount: 2
Fore
SplineSet
1207 731 m 1,0,-1
 1207 61 l 1,1,2
 999 -20 999 -20 776 -20 c 0,3,4
 490 -20 490 -20 311 158 c 0,5,6
 111 357 111 357 111 691 c 0,7,8
 111 1040 111 1040 312 1248 c 0,9,10
 495 1438 495 1438 782 1438 c 0,11,12
 981 1438 981 1438 1197 1337 c 1,13,-1
 1149 1206 l 1,14,15
 962 1303 962 1303 778 1303 c 0,16,17
 537 1303 537 1303 408 1122 c 0,18,19
 285 948 285 948 285 692 c 0,20,21
 285 402 285 402 454 240 c 0,22,23
 584 115 584 115 792 115 c 0,24,25
 915 115 915 115 1043 160 c 1,26,-1
 1043 596 l 1,27,-1
 764 596 l 1,28,-1
 764 731 l 1,29,-1
 1207 731 l 1,0,-1
772 1747 m 1,30,-1
 623 1546 l 1,31,-1
 473 1546 l 1,32,-1
 678 1845 l 1,33,-1
 866 1845 l 1,34,-1
 1071 1546 l 1,35,-1
 922 1546 l 1,36,-1
 772 1747 l 1,30,-1
EndSplineSet
EndChar

StartChar: gcircumflex
Encoding: 285 285 221
Width: 1153
VWidth: 1433
GlyphClass: 1
Flags: W
LayerCount: 2
Fore
SplineSet
830 1038 m 1,0,-1
 982 1038 l 1,1,2
 974 787 974 787 974 629 c 2,3,-1
 974 110 l 2,4,5
 974 -66 974 -66 953 -157 c 0,6,7
 919 -302 919 -302 789 -389 c 0,8,9
 680 -461 680 -461 528 -461 c 0,10,11
 320 -461 320 -461 135 -348 c 1,12,-1
 202 -228 l 1,13,14
 360 -336 360 -336 524 -336 c 0,15,16
 707 -336 707 -336 778 -188 c 0,17,18
 818 -105 818 -105 818 96 c 2,19,-1
 818 182 l 1,20,21
 673 18 673 18 501 18 c 0,22,23
 327 18 327 18 212 159 c 0,24,25
 99 296 99 296 99 530 c 0,26,27
 99 784 99 784 225 933 c 0,28,29
 331 1059 331 1059 504 1059 c 0,30,31
 709 1059 709 1059 824 879 c 1,32,-1
 830 1038 l 1,0,-1
818 733 m 1,33,34
 712 934 712 934 537 934 c 0,35,36
 398 934 398 934 326 808 c 0,37,38
 263 696 263 696 263 532 c 0,39,40
 263 373 263 373 329 265 c 0,41,42
 405 143 405 143 543 143 c 0,43,44
 710 143 710 143 818 326 c 1,45,-1
 818 733 l 1,33,34
576 1399 m 1,46,-1
 427 1198 l 1,47,-1
 277 1198 l 1,48,-1
 482 1497 l 1,49,-1
 670 1497 l 1,50,-1
 875 1198 l 1,51,-1
 726 1198 l 1,52,-1
 576 1399 l 1,46,-1
EndSplineSet
EndChar

StartChar: Gdotaccent
Encoding: 288 288 224
Width: 1378
VWidth: 1433
GlyphClass: 1
Flags: W
LayerCount: 2
Fore
SplineSet
1207 731 m 1,0,-1
 1207 61 l 1,1,2
 999 -20 999 -20 776 -20 c 0,3,4
 490 -20 490 -20 311 158 c 0,5,6
 111 357 111 357 111 691 c 0,7,8
 111 1040 111 1040 312 1248 c 0,9,10
 495 1438 495 1438 782 1438 c 0,11,12
 981 1438 981 1438 1197 1337 c 1,13,-1
 1149 1206 l 1,14,15
 962 1303 962 1303 778 1303 c 0,16,17
 537 1303 537 1303 408 1122 c 0,18,19
 285 948 285 948 285 692 c 0,20,21
 285 402 285 402 454 240 c 0,22,23
 584 115 584 115 792 115 c 0,24,25
 915 115 915 115 1043 160 c 1,26,-1
 1043 596 l 1,27,-1
 764 596 l 1,28,-1
 764 731 l 1,29,-1
 1207 731 l 1,0,-1
774 1802 m 0,30,31
 826 1802 826 1802 856 1764 c 0,32,33
 879 1736 879 1736 879 1695 c 0,34,35
 879 1655 879 1655 856 1627 c 0,36,37
 827 1589 827 1589 773 1589 c 256,38,39
 719 1589 719 1589 689 1628 c 0,40,41
 666 1657 666 1657 666 1698 c 0,42,43
 666 1738 666 1738 689 1765 c 0,44,45
 719 1802 719 1802 774 1802 c 0,30,31
EndSplineSet
EndChar

StartChar: gdotaccent
Encoding: 289 289 225
Width: 1153
VWidth: 1433
GlyphClass: 1
Flags: W
LayerCount: 2
Fore
SplineSet
830 1038 m 1,0,-1
 982 1038 l 1,1,2
 974 787 974 787 974 629 c 2,3,-1
 974 110 l 2,4,5
 974 -66 974 -66 953 -157 c 0,6,7
 919 -302 919 -302 789 -389 c 0,8,9
 680 -461 680 -461 528 -461 c 0,10,11
 320 -461 320 -461 135 -348 c 1,12,-1
 202 -228 l 1,13,14
 360 -336 360 -336 524 -336 c 0,15,16
 707 -336 707 -336 778 -188 c 0,17,18
 818 -105 818 -105 818 96 c 2,19,-1
 818 182 l 1,20,21
 673 18 673 18 501 18 c 0,22,23
 327 18 327 18 212 159 c 0,24,25
 99 296 99 296 99 530 c 0,26,27
 99 784 99 784 225 933 c 0,28,29
 331 1059 331 1059 504 1059 c 0,30,31
 709 1059 709 1059 824 879 c 1,32,-1
 830 1038 l 1,0,-1
818 733 m 1,33,34
 712 934 712 934 537 934 c 0,35,36
 398 934 398 934 326 808 c 0,37,38
 263 696 263 696 263 532 c 0,39,40
 263 373 263 373 329 265 c 0,41,42
 405 143 405 143 543 143 c 0,43,44
 710 143 710 143 818 326 c 1,45,-1
 818 733 l 1,33,34
578 1454 m 0,46,47
 630 1454 630 1454 660 1416 c 0,48,49
 683 1388 683 1388 683 1347 c 0,50,51
 683 1307 683 1307 660 1279 c 0,52,53
 630 1241 630 1241 577 1241 c 0,54,55
 522 1241 522 1241 492 1280 c 0,56,57
 470 1309 470 1309 470 1350 c 0,58,59
 470 1390 470 1390 492 1417 c 0,60,61
 523 1454 523 1454 578 1454 c 0,46,47
EndSplineSet
EndChar

StartChar: Hcircumflex
Encoding: 292 292 228
Width: 1378
VWidth: 1433
GlyphClass: 1
Flags: W
LayerCount: 2
Fore
SplineSet
184 0 m 1,0,-1
 184 1417 l 1,1,-1
 348 1417 l 1,2,-1
 348 793 l 1,3,-1
 1030 793 l 1,4,-1
 1030 1417 l 1,5,-1
 1194 1417 l 1,6,-1
 1194 0 l 1,7,-1
 1030 0 l 1,8,-1
 1030 658 l 1,9,-1
 348 658 l 1,10,-1
 348 0 l 1,11,-1
 184 0 l 1,0,-1
689 1747 m 1,12,-1
 539 1546 l 1,13,-1
 390 1546 l 1,14,-1
 595 1845 l 1,15,-1
 783 1845 l 1,16,-1
 988 1546 l 1,17,-1
 838 1546 l 1,18,-1
 689 1747 l 1,12,-1
EndSplineSet
EndChar

StartChar: hcircumflex
Encoding: 293 293 229
Width: 1190
VWidth: 1433
GlyphClass: 1
Flags: W
LayerCount: 2
Fore
SplineSet
178 0 m 1,0,-1
 178 1497 l 1,1,-1
 334 1497 l 1,2,-1
 334 877 l 1,3,4
 390 935 390 935 441 973 c 0,5,6
 560 1059 560 1059 707 1059 c 0,7,8
 903 1059 903 1059 977 915 c 0,9,10
 1020 830 1020 830 1020 600 c 2,11,-1
 1020 0 l 1,12,-1
 864 0 l 1,13,-1
 864 603 l 2,14,15
 864 759 864 759 842 823 c 0,16,17
 803 934 803 934 663 934 c 0,18,19
 495 934 495 934 334 739 c 1,20,-1
 334 0 l 1,21,-1
 178 0 l 1,0,-1
251 1747 m 1,22,-1
 102 1546 l 1,23,-1
 -48 1546 l 1,24,-1
 157 1845 l 1,25,-1
 345 1845 l 1,26,-1
 550 1546 l 1,27,-1
 401 1546 l 1,28,-1
 251 1747 l 1,22,-1
EndSplineSet
EndChar

StartChar: Hbar
Encoding: 294 294 230
Width: 1378
VWidth: 1433
GlyphClass: 1
Flags: W
LayerCount: 2
Fore
SplineSet
184 0 m 1,0,-1
 184 1046 l 1,1,-1
 53 1046 l 1,2,-1
 53 1165 l 1,3,-1
 184 1165 l 1,4,-1
 184 1417 l 1,5,-1
 348 1417 l 1,6,-1
 348 1165 l 1,7,-1
 1030 1165 l 1,8,-1
 1030 1417 l 1,9,-1
 1194 1417 l 1,10,-1
 1194 1165 l 1,11,-1
 1325 1165 l 1,12,-1
 1325 1046 l 1,13,-1
 1194 1046 l 1,14,-1
 1194 0 l 1,15,-1
 1030 0 l 1,16,-1
 1030 658 l 1,17,-1
 348 658 l 1,18,-1
 348 0 l 1,19,-1
 184 0 l 1,0,-1
348 793 m 1,20,-1
 1030 793 l 1,21,-1
 1030 1046 l 1,22,-1
 348 1046 l 1,23,-1
 348 793 l 1,20,-1
EndSplineSet
EndChar

StartChar: hbar
Encoding: 295 295 231
Width: 1190
VWidth: 1433
GlyphClass: 1
Flags: W
LayerCount: 2
Fore
SplineSet
178 0 m 1,0,-1
 178 1192 l 1,1,-1
 -12 1192 l 1,2,-1
 -12 1311 l 1,3,-1
 178 1311 l 1,4,-1
 178 1497 l 1,5,-1
 334 1497 l 1,6,-1
 334 1311 l 1,7,-1
 631 1311 l 1,8,-1
 631 1192 l 1,9,-1
 334 1192 l 1,10,-1
 334 877 l 1,11,12
 390 935 390 935 441 973 c 0,13,14
 560 1059 560 1059 707 1059 c 0,15,16
 904 1059 904 1059 977 915 c 0,17,18
 1020 829 1020 829 1020 600 c 2,19,-1
 1020 0 l 1,20,-1
 864 0 l 1,21,-1
 864 603 l 2,22,23
 864 759 864 759 842 823 c 0,24,25
 803 934 803 934 663 934 c 0,26,27
 495 934 495 934 334 739 c 1,28,-1
 334 0 l 1,29,-1
 178 0 l 1,0,-1
EndSplineSet
EndChar

StartChar: Itilde
Encoding: 296 296 232
Width: 532
VWidth: 1433
GlyphClass: 1
Flags: W
LayerCount: 2
Fore
SplineSet
184 0 m 1,0,-1
 184 1417 l 1,1,-1
 348 1417 l 1,2,-1
 348 0 l 1,3,-1
 184 0 l 1,0,-1
28 1585 m 1,4,-1
 -78 1585 l 1,5,6
 -69 1663 -69 1663 -35 1713 c 0,7,8
 20 1794 20 1794 114 1794 c 0,9,10
 181 1794 181 1794 296 1751 c 0,11,12
 377 1720 377 1720 413 1720 c 0,13,14
 457 1720 457 1720 485 1752 c 0,15,16
 502 1773 502 1773 506 1806 c 1,17,-1
 610 1806 l 1,18,19
 601 1727 601 1727 570 1678 c 0,20,21
 517 1595 517 1595 417 1595 c 0,22,23
 355 1595 355 1595 244 1636 c 0,24,25
 154 1669 154 1669 116 1669 c 0,26,27
 54 1669 54 1669 28 1585 c 1,4,-1
EndSplineSet
EndChar

StartChar: itilde
Encoding: 297 297 233
Width: 512
VWidth: 1433
GlyphClass: 1
Flags: W
LayerCount: 2
Fore
SplineSet
178 0 m 1,0,-1
 178 1038 l 1,1,-1
 334 1038 l 1,2,-1
 334 0 l 1,3,-1
 178 0 l 1,0,-1
18 1237 m 1,4,-1
 -88 1237 l 1,5,6
 -79 1315 -79 1315 -45 1365 c 0,7,8
 10 1446 10 1446 103 1446 c 0,9,10
 172 1446 172 1446 286 1403 c 0,11,12
 367 1372 367 1372 403 1372 c 0,13,14
 487 1372 487 1372 496 1458 c 1,15,-1
 600 1458 l 1,16,17
 591 1379 591 1379 560 1330 c 0,18,19
 507 1247 507 1247 408 1247 c 0,20,21
 346 1247 346 1247 234 1288 c 0,22,23
 144 1321 144 1321 106 1321 c 0,24,25
 44 1321 44 1321 18 1237 c 1,4,-1
EndSplineSet
EndChar

StartChar: Ibreve
Encoding: 300 300 236
Width: 532
VWidth: 1433
GlyphClass: 1
Flags: W
LayerCount: 2
Fore
SplineSet
185 0 m 1,0,-1
 185 1417 l 1,1,-1
 349 1417 l 1,2,-1
 349 0 l 1,3,-1
 185 0 l 1,0,-1
-34 1845 m 1,4,-1
 101 1845 l 1,5,6
 116 1652 116 1652 267 1652 c 0,7,8
 417 1652 417 1652 432 1845 c 1,9,-1
 567 1845 l 1,10,11
 562 1736 562 1736 520 1669 c 0,12,13
 441 1541 441 1541 267 1541 c 0,14,15
 92 1541 92 1541 13 1669 c 0,16,17
 -29 1736 -29 1736 -34 1845 c 1,4,-1
EndSplineSet
EndChar

StartChar: ibreve
Encoding: 301 301 237
Width: 512
VWidth: 1433
GlyphClass: 1
Flags: W
LayerCount: 2
Fore
SplineSet
178 0 m 1,0,-1
 178 1038 l 1,1,-1
 334 1038 l 1,2,-1
 334 0 l 1,3,-1
 178 0 l 1,0,-1
-45 1497 m 1,4,-1
 90 1497 l 1,5,6
 105 1304 105 1304 256 1304 c 0,7,8
 406 1304 406 1304 421 1497 c 1,9,-1
 556 1497 l 1,10,11
 550 1384 550 1384 505 1316 c 0,12,13
 423 1193 423 1193 256 1193 c 0,14,15
 88 1193 88 1193 6 1316 c 0,16,17
 -39 1384 -39 1384 -45 1497 c 1,4,-1
EndSplineSet
EndChar

StartChar: Iogonek
Encoding: 302 302 238
Width: 532
VWidth: 1433
GlyphClass: 1
Flags: W
LayerCount: 2
Fore
SplineSet
184 0 m 1,0,-1
 184 1417 l 1,1,-1
 348 1417 l 1,2,-1
 348 0 l 1,3,4
 249 -63 249 -63 218 -89 c 0,5,6
 124 -168 124 -168 124 -245 c 0,7,8
 124 -289 124 -289 155 -314 c 0,9,10
 186 -338 186 -338 232 -338 c 0,11,12
 266 -338 266 -338 331 -322 c 1,13,-1
 348 -420 l 1,14,15
 253 -446 253 -446 198 -446 c 0,16,17
 109 -446 109 -446 52 -404 c 0,18,19
 -13 -356 -13 -356 -13 -274 c 0,20,21
 -13 -151 -13 -151 121 -63 c 0,22,23
 162 -36 162 -36 249 0 c 1,24,-1
 184 0 l 1,0,-1
EndSplineSet
EndChar

StartChar: iogonek
Encoding: 303 303 239
Width: 512
VWidth: 1433
GlyphClass: 1
Flags: W
LayerCount: 2
Fore
SplineSet
178 0 m 1,0,-1
 178 1038 l 1,1,-1
 334 1038 l 1,2,-1
 334 0 l 1,3,4
 237 -62 237 -62 204 -89 c 0,5,6
 110 -168 110 -168 110 -245 c 0,7,8
 110 -289 110 -289 141 -314 c 0,9,10
 172 -338 172 -338 218 -338 c 0,11,12
 252 -338 252 -338 317 -322 c 1,13,-1
 334 -420 l 1,14,15
 239 -446 239 -446 184 -446 c 0,16,17
 95 -446 95 -446 38 -404 c 0,18,19
 -27 -356 -27 -356 -27 -274 c 0,20,21
 -27 -151 -27 -151 107 -63 c 0,22,23
 148 -36 148 -36 235 0 c 1,24,-1
 178 0 l 1,0,-1
257 1517 m 0,25,26
 314 1517 314 1517 345 1474 c 0,27,28
 366 1445 366 1445 366 1406 c 0,29,30
 366 1368 366 1368 345 1339 c 0,31,32
 314 1296 314 1296 255 1296 c 0,33,34
 197 1296 197 1296 166 1339 c 0,35,36
 145 1368 145 1368 145 1406 c 0,37,38
 145 1445 145 1445 166 1474 c 0,39,40
 197 1517 197 1517 257 1517 c 0,25,26
EndSplineSet
EndChar

StartChar: dotlessi
Encoding: 305 305 241
Width: 512
VWidth: 1433
GlyphClass: 1
Flags: W
LayerCount: 2
Fore
SplineSet
178 0 m 1,0,-1
 178 1038 l 1,1,-1
 334 1038 l 1,2,-1
 334 0 l 1,3,-1
 178 0 l 1,0,-1
EndSplineSet
EndChar

StartChar: IJ
Encoding: 306 306 242
Width: 1245
VWidth: 1433
GlyphClass: 1
Flags: W
LayerCount: 2
Fore
SplineSet
184 0 m 1,0,-1
 184 1417 l 1,1,-1
 348 1417 l 1,2,-1
 348 0 l 1,3,-1
 184 0 l 1,0,-1
909 1417 m 1,4,-1
 1073 1417 l 1,5,-1
 1073 463 l 2,6,7
 1073 302 1073 302 1058 229 c 0,8,9
 1006 -20 1006 -20 714 -20 c 0,10,11
 598 -20 598 -20 491 20 c 1,12,-1
 506 156 l 1,13,14
 596 115 596 115 698 115 c 0,15,16
 846 115 846 115 883 215 c 0,17,18
 909 284 909 284 909 535 c 2,19,-1
 909 1417 l 1,4,-1
EndSplineSet
EndChar

StartChar: ij
Encoding: 307 307 243
Width: 1024
VWidth: 1433
GlyphClass: 1
Flags: W
LayerCount: 2
Fore
SplineSet
178 0 m 1,0,-1
 178 1038 l 1,1,-1
 334 1038 l 1,2,-1
 334 0 l 1,3,-1
 178 0 l 1,0,-1
257 1517 m 0,4,5
 314 1517 314 1517 345 1474 c 0,6,7
 366 1445 366 1445 366 1406 c 0,8,9
 366 1368 366 1368 345 1339 c 0,10,11
 314 1296 314 1296 255 1296 c 0,12,13
 197 1296 197 1296 166 1339 c 0,14,15
 145 1368 145 1368 145 1406 c 0,16,17
 145 1445 145 1445 166 1474 c 0,18,19
 197 1517 197 1517 257 1517 c 0,4,5
689 1038 m 1,20,-1
 845 1038 l 1,21,-1
 845 -20 l 2,22,23
 845 -263 845 -263 809 -329 c 0,24,25
 736 -461 736 -461 553 -461 c 0,26,27
 497 -461 497 -461 434 -447 c 1,28,-1
 451 -317 l 1,29,30
 499 -330 499 -330 538 -330 c 0,31,32
 622 -330 622 -330 659 -275 c 0,33,34
 689 -232 689 -232 689 -133 c 2,35,-1
 689 1038 l 1,20,-1
769 1517 m 0,36,37
 826 1517 826 1517 857 1474 c 0,38,39
 878 1445 878 1445 878 1406 c 0,40,41
 878 1368 878 1368 857 1339 c 0,42,43
 826 1296 826 1296 767 1296 c 0,44,45
 709 1296 709 1296 678 1339 c 0,46,47
 657 1368 657 1368 657 1406 c 0,48,49
 657 1445 657 1445 678 1474 c 0,50,51
 709 1517 709 1517 769 1517 c 0,36,37
EndSplineSet
EndChar

StartChar: Jcircumflex
Encoding: 308 308 244
Width: 741
VWidth: 1433
GlyphClass: 1
Flags: W
LayerCount: 2
Fore
SplineSet
406 1417 m 1,0,-1
 570 1417 l 1,1,-1
 570 463 l 2,2,3
 570 303 570 303 554 229 c 0,4,5
 503 -20 503 -20 211 -20 c 0,6,7
 95 -20 95 -20 -12 20 c 1,8,-1
 2 156 l 1,9,10
 93 115 93 115 195 115 c 0,11,12
 343 115 343 115 380 215 c 0,13,14
 406 284 406 284 406 535 c 2,15,-1
 406 1417 l 1,0,-1
471 1747 m 1,16,-1
 322 1546 l 1,17,-1
 172 1546 l 1,18,-1
 377 1845 l 1,19,-1
 566 1845 l 1,20,-1
 770 1546 l 1,21,-1
 621 1546 l 1,22,-1
 471 1747 l 1,16,-1
EndSplineSet
EndChar

StartChar: jcircumflex
Encoding: 309 309 245
Width: 512
VWidth: 1433
GlyphClass: 1
Flags: W
LayerCount: 2
Fore
SplineSet
178 1038 m 1,0,-1
 334 1038 l 1,1,-1
 334 -20 l 2,2,3
 334 -263 334 -263 298 -329 c 0,4,5
 225 -461 225 -461 42 -461 c 0,6,7
 -14 -461 -14 -461 -77 -447 c 1,8,-1
 -60 -317 l 1,9,10
 -12 -330 -12 -330 27 -330 c 0,11,12
 111 -330 111 -330 148 -275 c 0,13,14
 178 -232 178 -232 178 -133 c 2,15,-1
 178 1038 l 1,0,-1
256 1399 m 1,16,-1
 107 1198 l 1,17,-1
 -43 1198 l 1,18,-1
 162 1497 l 1,19,-1
 350 1497 l 1,20,-1
 555 1198 l 1,21,-1
 406 1198 l 1,22,-1
 256 1399 l 1,16,-1
EndSplineSet
EndChar

StartChar: kgreenlandic
Encoding: 312 312 248
Width: 999
VWidth: 1433
GlyphClass: 1
Flags: W
LayerCount: 2
Fore
SplineSet
178 0 m 1,0,-1
 178 1038 l 1,1,-1
 334 1038 l 1,2,-1
 334 598 l 1,3,-1
 756 1038 l 1,4,-1
 951 1038 l 1,5,-1
 498 577 l 1,6,-1
 981 0 l 1,7,-1
 781 0 l 1,8,-1
 334 536 l 1,9,-1
 334 0 l 1,10,-1
 178 0 l 1,0,-1
EndSplineSet
EndChar

StartChar: Ldot
Encoding: 319 319 255
Width: 971
VWidth: 1433
GlyphClass: 1
Flags: W
LayerCount: 2
Fore
SplineSet
184 0 m 1,0,-1
 184 1417 l 1,1,-1
 348 1417 l 1,2,-1
 348 135 l 1,3,-1
 962 135 l 1,4,-1
 962 0 l 1,5,-1
 184 0 l 1,0,-1
727 826 m 0,6,7
 775 826 775 826 810 793 c 0,8,9
 846 757 846 757 846 705 c 256,10,11
 846 653 846 653 810 617 c 0,12,13
 776 584 776 584 725 584 c 256,14,15
 674 584 674 584 640 617 c 0,16,17
 604 653 604 653 604 705 c 0,18,19
 604 758 604 758 640 793 c 0,20,21
 675 826 675 826 727 826 c 0,6,7
EndSplineSet
EndChar

StartChar: ldot
Encoding: 320 320 256
Width: 799
VWidth: 1433
GlyphClass: 1
Flags: W
LayerCount: 2
Fore
SplineSet
178 0 m 1,0,-1
 178 1497 l 1,1,-1
 334 1497 l 1,2,-1
 334 0 l 1,3,-1
 178 0 l 1,0,-1
657 826 m 0,4,5
 706 826 706 826 740 793 c 0,6,7
 776 757 776 757 776 705 c 256,8,9
 776 653 776 653 740 617 c 0,10,11
 706 584 706 584 655 584 c 256,12,13
 604 584 604 584 570 617 c 0,14,15
 534 653 534 653 534 705 c 0,16,17
 534 758 534 758 570 793 c 0,18,19
 605 826 605 826 657 826 c 0,4,5
EndSplineSet
EndChar

StartChar: Lslash
Encoding: 321 321 257
Width: 997
VWidth: 1433
GlyphClass: 1
Flags: W
LayerCount: 2
Fore
SplineSet
211 0 m 1,0,-1
 211 648 l 1,1,-1
 41 520 l 1,2,-1
 41 645 l 1,3,-1
 211 773 l 1,4,-1
 211 1417 l 1,5,-1
 375 1417 l 1,6,-1
 375 897 l 1,7,-1
 587 1056 l 1,8,-1
 587 931 l 1,9,-1
 375 772 l 1,10,-1
 375 135 l 1,11,-1
 989 135 l 1,12,-1
 989 0 l 1,13,-1
 211 0 l 1,0,-1
EndSplineSet
EndChar

StartChar: lslash
Encoding: 322 322 258
Width: 557
VWidth: 1433
GlyphClass: 1
Flags: W
LayerCount: 2
Fore
SplineSet
201 0 m 1,0,-1
 201 683 l 1,1,-1
 31 550 l 1,2,-1
 31 675 l 1,3,-1
 201 808 l 1,4,-1
 201 1497 l 1,5,-1
 357 1497 l 1,6,-1
 357 929 l 1,7,-1
 526 1061 l 1,8,-1
 526 936 l 1,9,-1
 357 804 l 1,10,-1
 357 0 l 1,11,-1
 201 0 l 1,0,-1
EndSplineSet
EndChar

StartChar: napostrophe
Encoding: 329 329 265
Width: 1190
VWidth: 1433
GlyphClass: 1
Flags: W
LayerCount: 2
Fore
SplineSet
178 0 m 1,0,-1
 178 700 l 2,1,2
 178 942 178 942 170 1038 c 1,3,-1
 324 1038 l 1,4,-1
 330 873 l 1,5,6
 389 935 389 935 441 973 c 0,7,8
 559 1059 559 1059 707 1059 c 0,9,10
 903 1059 903 1059 977 915 c 0,11,12
 1020 830 1020 830 1020 600 c 2,13,-1
 1020 0 l 1,14,-1
 864 0 l 1,15,-1
 864 603 l 2,16,17
 864 759 864 759 842 823 c 0,18,19
 803 934 803 934 663 934 c 0,20,21
 495 934 495 934 334 739 c 1,22,-1
 334 0 l 1,23,-1
 178 0 l 1,0,-1
63 1497 m 1,24,-1
 245 1497 l 1,25,-1
 63 1038 l 1,26,-1
 -79 1038 l 1,27,-1
 63 1497 l 1,24,-1
EndSplineSet
EndChar

StartChar: Eng
Encoding: 330 330 266
Width: 1413
VWidth: 1433
GlyphClass: 1
Flags: W
LayerCount: 2
Fore
SplineSet
1228 1417 m 1,0,-1
 1228 -20 l 2,1,2
 1228 -263 1228 -263 1192 -329 c 0,3,4
 1120 -461 1120 -461 936 -461 c 0,5,6
 880 -461 880 -461 817 -447 c 1,7,-1
 834 -317 l 1,8,9
 882 -330 882 -330 921 -330 c 0,10,11
 1006 -330 1006 -330 1043 -275 c 0,12,13
 1072 -232 1072 -232 1072 -133 c 2,14,-1
 1072 0 l 1,15,-1
 1037 0 l 1,16,-1
 487 911 l 2,17,18
 410 1038 410 1038 336 1182 c 1,19,20
 340 1077 340 1077 340 915 c 2,21,-1
 340 0 l 1,22,-1
 184 0 l 1,23,-1
 184 1417 l 1,24,-1
 373 1417 l 1,25,-1
 918 515 l 2,26,27
 970 428 970 428 1047 287 c 2,28,-1
 1076 233 l 1,29,30
 1072 323 1072 323 1072 443 c 2,31,-1
 1072 1417 l 1,32,-1
 1228 1417 l 1,0,-1
EndSplineSet
EndChar

StartChar: eng
Encoding: 331 331 267
Width: 1190
VWidth: 1433
GlyphClass: 1
Flags: W
LayerCount: 2
Fore
SplineSet
178 0 m 1,0,-1
 178 700 l 2,1,2
 178 937 178 937 170 1038 c 1,3,-1
 324 1038 l 1,4,-1
 330 873 l 1,5,6
 389 935 389 935 441 973 c 0,7,8
 560 1059 560 1059 707 1059 c 0,9,10
 904 1059 904 1059 977 915 c 0,11,12
 1020 829 1020 829 1020 600 c 2,13,-1
 1020 -20 l 2,14,15
 1020 -263 1020 -263 984 -329 c 0,16,17
 912 -461 912 -461 728 -461 c 0,18,19
 672 -461 672 -461 609 -447 c 1,20,-1
 626 -317 l 1,21,22
 674 -330 674 -330 712 -330 c 0,23,24
 797 -330 797 -330 834 -275 c 0,25,26
 864 -232 864 -232 864 -133 c 2,27,-1
 864 603 l 2,28,29
 864 759 864 759 842 823 c 0,30,31
 803 934 803 934 663 934 c 0,32,33
 495 934 495 934 334 739 c 1,34,-1
 334 0 l 1,35,-1
 178 0 l 1,0,-1
EndSplineSet
EndChar

StartChar: Obreve
Encoding: 334 334 270
Width: 1475
VWidth: 1433
GlyphClass: 1
Flags: W
LayerCount: 2
Fore
SplineSet
745 1438 m 0,0,1
 1039 1438 1039 1438 1203 1221 c 0,2,3
 1364 1008 1364 1008 1364 709 c 0,4,5
 1364 379 1364 379 1176 164 c 0,6,7
 1016 -20 1016 -20 737 -20 c 0,8,9
 437 -20 437 -20 272 197 c 0,10,11
 111 409 111 409 111 710 c 0,12,13
 111 1040 111 1040 299 1254 c 0,14,15
 460 1438 460 1438 745 1438 c 0,0,1
732 1303 m 0,16,17
 518 1303 518 1303 395 1127 c 0,18,19
 285 969 285 969 285 709 c 0,20,21
 285 424 285 424 416 263 c 0,22,23
 538 115 538 115 738 115 c 0,24,25
 956 115 956 115 1079 291 c 0,26,27
 1190 449 1190 449 1190 710 c 0,28,29
 1190 994 1190 994 1059 1155 c 0,30,31
 937 1303 937 1303 732 1303 c 0,16,17
437 1845 m 1,32,-1
 572 1845 l 1,33,34
 587 1652 587 1652 738 1652 c 0,35,36
 888 1652 888 1652 903 1845 c 1,37,-1
 1038 1845 l 1,38,39
 1033 1736 1033 1736 991 1669 c 0,40,41
 912 1541 912 1541 738 1541 c 0,42,43
 563 1541 563 1541 484 1669 c 0,44,45
 443 1736 443 1736 437 1845 c 1,32,-1
EndSplineSet
EndChar

StartChar: obreve
Encoding: 335 335 271
Width: 1157
VWidth: 1433
GlyphClass: 1
Flags: W
LayerCount: 2
Fore
SplineSet
584 1059 m 0,0,1
 805 1059 805 1059 941 888 c 0,2,3
 1056 743 1056 743 1056 520 c 0,4,5
 1056 278 1056 278 923 130 c 0,6,7
 789 -20 789 -20 578 -20 c 0,8,9
 351 -20 351 -20 215 152 c 0,10,11
 100 296 100 296 100 521 c 0,12,13
 100 762 100 762 233 910 c 0,14,15
 367 1059 367 1059 584 1059 c 0,0,1
574 934 m 0,16,17
 409 934 409 934 324 781 c 0,18,19
 264 675 264 675 264 520 c 0,20,21
 264 348 264 348 336 238 c 0,22,23
 422 105 422 105 578 105 c 0,24,25
 746 105 746 105 832 258 c 0,26,27
 892 364 892 364 892 520 c 0,28,29
 892 692 892 692 820 802 c 0,30,31
 733 934 733 934 574 934 c 0,16,17
278 1497 m 1,32,-1
 413 1497 l 1,33,34
 428 1304 428 1304 578 1304 c 0,35,36
 729 1304 729 1304 744 1497 c 1,37,-1
 879 1497 l 1,38,39
 873 1384 873 1384 828 1316 c 0,40,41
 746 1193 746 1193 578 1193 c 256,42,43
 410 1193 410 1193 329 1316 c 0,44,45
 283 1384 283 1384 278 1497 c 1,32,-1
EndSplineSet
EndChar

StartChar: OE
Encoding: 338 338 274
Width: 1905
VWidth: 1433
GlyphClass: 1
Flags: W
LayerCount: 2
Fore
SplineSet
1784 0 m 1,0,-1
 880 0 l 2,1,2
 662 0 662 0 560 29 c 0,3,4
 327 94 327 94 204 314 c 0,5,6
 111 478 111 478 111 714 c 0,7,8
 111 1104 111 1104 349 1293 c 0,9,10
 472 1389 472 1389 637 1410 c 0,11,12
 691 1417 691 1417 869 1417 c 2,13,-1
 1753 1417 l 1,14,-1
 1753 1282 l 1,15,-1
 1170 1282 l 1,16,-1
 1170 786 l 1,17,-1
 1725 786 l 1,18,-1
 1725 651 l 1,19,-1
 1170 651 l 1,20,-1
 1170 135 l 1,21,-1
 1784 135 l 1,22,-1
 1784 0 l 1,0,-1
1006 1282 m 1,23,-1
 878 1282 l 2,24,25
 689 1282 689 1282 607 1258 c 0,26,27
 429 1207 429 1207 344 1018 c 0,28,29
 285 887 285 887 285 706 c 0,30,31
 285 388 285 388 458 241 c 0,32,33
 545 166 545 166 689 145 c 0,34,35
 756 135 756 135 878 135 c 2,36,-1
 1006 135 l 1,37,-1
 1006 1282 l 1,23,-1
EndSplineSet
EndChar

StartChar: oe
Encoding: 339 339 275
Width: 1846
VWidth: 1433
GlyphClass: 1
Flags: W
LayerCount: 2
Fore
SplineSet
968 188 m 1,0,1
 821 -20 821 -20 579 -20 c 0,2,3
 351 -20 351 -20 215 151 c 0,4,5
 100 296 100 296 100 520 c 0,6,7
 100 761 100 761 233 909 c 0,8,9
 368 1058 368 1058 578 1058 c 0,10,11
 823 1058 823 1058 965 855 c 1,12,13
 1085 1058 1085 1058 1323 1058 c 0,14,15
 1596 1058 1596 1058 1692 831 c 0,16,17
 1746 704 1746 704 1749 477 c 1,18,-1
 1043 477 l 1,19,20
 1059 303 1059 303 1121 218 c 0,21,22
 1204 105 1204 105 1368 105 c 0,23,24
 1510 105 1510 105 1651 203 c 1,25,-1
 1711 82 l 1,26,27
 1549 -20 1549 -20 1365 -20 c 0,28,29
 1101 -20 1101 -20 968 188 c 1,0,1
575 933 m 0,30,31
 478 933 478 933 402 874 c 0,32,33
 264 765 264 765 264 519 c 0,34,35
 264 347 264 347 336 237 c 0,36,37
 423 105 423 105 579 105 c 0,38,39
 747 105 747 105 833 257 c 0,40,41
 893 363 893 363 893 520 c 0,42,43
 893 691 893 691 821 801 c 0,44,45
 734 933 734 933 575 933 c 0,30,31
1584 602 m 1,46,47
 1580 717 1580 717 1543 794 c 0,48,49
 1477 933 1477 933 1317 933 c 0,50,51
 1167 933 1167 933 1093 796 c 0,52,53
 1051 717 1051 717 1047 602 c 1,54,-1
 1584 602 l 1,46,47
EndSplineSet
EndChar

StartChar: Scircumflex
Encoding: 348 348 284
Width: 1065
VWidth: 1433
GlyphClass: 1
Flags: W
LayerCount: 2
Fore
SplineSet
125 43 m 1,0,-1
 146 186 l 1,1,2
 342 115 342 115 492 115 c 0,3,4
 627 115 627 115 706 187 c 0,5,6
 781 255 781 255 781 368 c 0,7,8
 781 472 781 472 718 531 c 0,9,10
 666 580 666 580 492 657 c 0,11,12
 288 748 288 748 219 807 c 0,13,14
 111 898 111 898 111 1055 c 0,15,16
 111 1232 111 1232 232 1335 c 0,17,18
 352 1438 352 1438 556 1438 c 0,19,20
 697 1438 697 1438 889 1374 c 1,21,-1
 856 1227 l 1,22,23
 700 1303 700 1303 553 1303 c 0,24,25
 441 1303 441 1303 364 1245 c 0,26,27
 285 1186 285 1186 285 1085 c 0,28,29
 285 1004 285 1004 337 947 c 0,30,31
 395 884 395 884 558 816 c 0,32,33
 763 730 763 730 843 655 c 0,34,35
 955 550 955 550 955 381 c 0,36,37
 955 192 955 192 822 84 c 0,38,39
 695 -20 695 -20 486 -20 c 0,40,41
 323 -20 323 -20 125 43 c 1,0,-1
547 1747 m 1,42,-1
 397 1546 l 1,43,-1
 248 1546 l 1,44,-1
 452 1845 l 1,45,-1
 641 1845 l 1,46,-1
 846 1546 l 1,47,-1
 696 1546 l 1,48,-1
 547 1747 l 1,42,-1
EndSplineSet
EndChar

StartChar: scircumflex
Encoding: 349 349 285
Width: 862
VWidth: 1433
GlyphClass: 1
Flags: W
LayerCount: 2
Fore
SplineSet
100 51 m 1,0,-1
 147 174 l 1,1,2
 290 105 290 105 400 105 c 0,3,4
 478 105 478 105 536 148 c 0,5,6
 598 194 598 194 598 281 c 0,7,8
 598 348 598 348 557 385 c 0,9,10
 522 416 522 416 390 467 c 0,11,12
 244 524 244 524 183 580 c 0,13,14
 104 654 104 654 104 769 c 0,15,16
 104 906 104 906 211 989 c 0,17,18
 302 1059 302 1059 445 1059 c 0,19,20
 590 1059 590 1059 741 981 c 1,21,-1
 694 858 l 1,22,23
 581 934 581 934 459 934 c 0,24,25
 380 934 380 934 328 900 c 0,26,27
 268 861 268 861 268 782 c 0,28,29
 268 710 268 710 327 668 c 0,30,31
 370 638 370 638 480 593 c 0,32,33
 650 525 650 525 705 461 c 0,34,35
 762 396 762 396 762 291 c 0,36,37
 762 141 762 141 649 56 c 0,38,39
 549 -20 549 -20 397 -20 c 0,40,41
 250 -20 250 -20 100 51 c 1,0,-1
451 1399 m 1,42,-1
 302 1198 l 1,43,-1
 152 1198 l 1,44,-1
 357 1497 l 1,45,-1
 546 1497 l 1,46,-1
 750 1198 l 1,47,-1
 601 1198 l 1,48,-1
 451 1399 l 1,42,-1
EndSplineSet
EndChar

StartChar: Tbar
Encoding: 358 358 294
Width: 1055
VWidth: 1433
GlyphClass: 1
Flags: W
LayerCount: 2
Fore
SplineSet
443 711 m 1,0,-1
 230 711 l 1,1,-1
 230 830 l 1,2,-1
 443 830 l 1,3,-1
 443 1282 l 1,4,-1
 29 1282 l 1,5,-1
 29 1417 l 1,6,-1
 1027 1417 l 1,7,-1
 1027 1282 l 1,8,-1
 607 1282 l 1,9,-1
 607 830 l 1,10,-1
 826 830 l 1,11,-1
 826 711 l 1,12,-1
 607 711 l 1,13,-1
 607 0 l 1,14,-1
 443 0 l 1,15,-1
 443 711 l 1,0,-1
EndSplineSet
EndChar

StartChar: tbar
Encoding: 359 359 295
Width: 704
VWidth: 1433
GlyphClass: 1
Flags: W
LayerCount: 2
Fore
SplineSet
390 755 m 1,0,-1
 635 755 l 1,1,-1
 635 636 l 1,2,-1
 390 636 l 1,3,-1
 390 346 l 2,4,5
 390 217 390 217 412 170 c 0,6,7
 444 105 444 105 530 105 c 0,8,9
 582 105 582 105 650 136 c 1,10,-1
 664 12 l 1,11,12
 574 -20 574 -20 495 -20 c 0,13,14
 339 -20 339 -20 279 76 c 0,15,16
 234 147 234 147 234 315 c 2,17,-1
 234 636 l 1,18,-1
 66 636 l 1,19,-1
 66 755 l 1,20,-1
 234 755 l 1,21,-1
 234 913 l 1,22,-1
 66 913 l 1,23,-1
 66 1038 l 1,24,-1
 234 1038 l 1,25,-1
 234 1265 l 1,26,-1
 390 1298 l 1,27,-1
 390 1038 l 1,28,-1
 635 1038 l 1,29,-1
 635 913 l 1,30,-1
 390 913 l 1,31,-1
 390 755 l 1,0,-1
EndSplineSet
EndChar

StartChar: Utilde
Encoding: 360 360 296
Width: 1362
VWidth: 1433
GlyphClass: 1
Flags: W
LayerCount: 2
Fore
SplineSet
172 1417 m 1,0,-1
 336 1417 l 1,1,-1
 336 557 l 2,2,3
 336 318 336 318 411 221 c 0,4,5
 492 115 492 115 680 115 c 0,6,7
 887 115 887 115 969 237 c 0,8,9
 1034 334 1034 334 1034 526 c 2,10,-1
 1034 1417 l 1,11,-1
 1190 1417 l 1,12,-1
 1190 625 l 2,13,14
 1190 389 1190 389 1173 311 c 0,15,16
 1137 141 1137 141 989 52 c 0,17,18
 868 -20 868 -20 680 -20 c 0,19,20
 361 -20 361 -20 237 184 c 0,21,22
 183 272 183 272 176 431 c 0,23,24
 172 509 172 509 172 625 c 2,25,-1
 172 1417 l 1,0,-1
443 1585 m 1,26,-1
 337 1585 l 1,27,28
 346 1663 346 1663 380 1713 c 0,29,30
 435 1794 435 1794 528 1794 c 0,31,32
 596 1794 596 1794 711 1751 c 0,33,34
 792 1720 792 1720 828 1720 c 0,35,36
 872 1720 872 1720 899 1752 c 0,37,38
 917 1773 917 1773 921 1806 c 1,39,-1
 1025 1806 l 1,40,41
 1016 1727 1016 1727 985 1678 c 0,42,43
 932 1595 932 1595 832 1595 c 0,44,45
 770 1595 770 1595 659 1636 c 0,46,47
 569 1669 569 1669 531 1669 c 0,48,49
 469 1669 469 1669 443 1585 c 1,26,-1
EndSplineSet
EndChar

StartChar: utilde
Encoding: 361 361 297
Width: 1178
VWidth: 1433
GlyphClass: 1
Flags: W
LayerCount: 2
Fore
SplineSet
999 1038 m 1,0,-1
 999 338 l 2,1,2
 999 96 999 96 1007 0 c 1,3,-1
 853 0 l 1,4,-1
 847 166 l 1,5,6
 675 -20 675 -20 477 -20 c 0,7,8
 285 -20 285 -20 213 124 c 0,9,10
 170 210 170 210 170 438 c 2,11,-1
 170 1038 l 1,12,-1
 326 1038 l 1,13,-1
 326 435 l 2,14,15
 326 279 326 279 348 216 c 0,16,17
 386 105 386 105 521 105 c 0,18,19
 687 105 687 105 843 299 c 1,20,-1
 843 1038 l 1,21,-1
 999 1038 l 1,0,-1
351 1237 m 1,22,-1
 245 1237 l 1,23,24
 254 1315 254 1315 288 1365 c 0,25,26
 343 1446 343 1446 436 1446 c 0,27,28
 505 1446 505 1446 619 1403 c 0,29,30
 699 1372 699 1372 736 1372 c 0,31,32
 820 1372 820 1372 829 1458 c 1,33,-1
 933 1458 l 1,34,35
 924 1379 924 1379 893 1330 c 0,36,37
 840 1247 840 1247 741 1247 c 0,38,39
 679 1247 679 1247 567 1288 c 0,40,41
 477 1321 477 1321 438 1321 c 0,42,43
 377 1321 377 1321 351 1237 c 1,22,-1
EndSplineSet
EndChar

StartChar: Ubreve
Encoding: 364 364 300
Width: 1362
VWidth: 1433
GlyphClass: 1
Flags: W
LayerCount: 2
Fore
SplineSet
172 1417 m 1,0,-1
 336 1417 l 1,1,-1
 336 557 l 2,2,3
 336 318 336 318 411 221 c 0,4,5
 492 115 492 115 680 115 c 0,6,7
 887 115 887 115 969 237 c 0,8,9
 1034 334 1034 334 1034 526 c 2,10,-1
 1034 1417 l 1,11,-1
 1190 1417 l 1,12,-1
 1190 625 l 2,13,14
 1190 389 1190 389 1173 311 c 0,15,16
 1137 141 1137 141 989 52 c 0,17,18
 868 -20 868 -20 680 -20 c 0,19,20
 361 -20 361 -20 237 184 c 0,21,22
 183 272 183 272 176 431 c 0,23,24
 172 509 172 509 172 625 c 2,25,-1
 172 1417 l 1,0,-1
380 1845 m 1,26,-1
 515 1845 l 1,27,28
 530 1652 530 1652 681 1652 c 256,29,30
 832 1652 832 1652 847 1845 c 1,31,-1
 982 1845 l 1,32,33
 976 1736 976 1736 935 1669 c 0,34,35
 856 1541 856 1541 681 1541 c 256,36,37
 506 1541 506 1541 427 1669 c 0,38,39
 386 1736 386 1736 380 1845 c 1,26,-1
EndSplineSet
EndChar

StartChar: ubreve
Encoding: 365 365 301
Width: 1178
VWidth: 1433
GlyphClass: 1
Flags: W
LayerCount: 2
Fore
SplineSet
999 1038 m 1,0,-1
 999 338 l 2,1,2
 999 96 999 96 1007 0 c 1,3,-1
 853 0 l 1,4,-1
 847 166 l 1,5,6
 675 -20 675 -20 477 -20 c 0,7,8
 285 -20 285 -20 213 124 c 0,9,10
 170 210 170 210 170 438 c 2,11,-1
 170 1038 l 1,12,-1
 326 1038 l 1,13,-1
 326 435 l 2,14,15
 326 279 326 279 348 216 c 0,16,17
 386 105 386 105 521 105 c 0,18,19
 687 105 687 105 843 299 c 1,20,-1
 843 1038 l 1,21,-1
 999 1038 l 1,0,-1
288 1497 m 1,22,-1
 423 1497 l 1,23,24
 438 1304 438 1304 589 1304 c 0,25,26
 739 1304 739 1304 754 1497 c 1,27,-1
 889 1497 l 1,28,29
 884 1384 884 1384 838 1316 c 0,30,31
 757 1193 757 1193 589 1193 c 256,32,33
 421 1193 421 1193 339 1316 c 0,34,35
 294 1384 294 1384 288 1497 c 1,22,-1
EndSplineSet
EndChar

StartChar: Uogonek
Encoding: 370 370 306
Width: 1362
VWidth: 1433
GlyphClass: 1
Flags: W
LayerCount: 2
Fore
SplineSet
835 -7 m 1,0,1
 744 -66 744 -66 716 -90 c 0,2,3
 622 -168 622 -168 622 -245 c 0,4,5
 622 -289 622 -289 653 -314 c 0,6,7
 684 -338 684 -338 729 -338 c 0,8,9
 763 -338 763 -338 829 -322 c 1,10,-1
 845 -420 l 1,11,12
 750 -446 750 -446 695 -446 c 0,13,14
 607 -446 607 -446 550 -404 c 0,15,16
 485 -356 485 -356 485 -274 c 0,17,18
 485 -118 485 -118 698 -21 c 1,19,20
 427 -26 427 -26 285 121 c 0,21,22
 195 215 195 215 180 366 c 0,23,24
 172 452 172 452 172 624 c 2,25,-1
 172 1417 l 1,26,-1
 336 1417 l 1,27,-1
 336 557 l 2,28,29
 336 418 336 418 354 346 c 0,30,31
 390 203 390 203 495 150 c 0,32,33
 567 114 567 114 680 114 c 0,34,35
 887 114 887 114 969 236 c 0,36,37
 1034 333 1034 333 1034 526 c 2,38,-1
 1034 1417 l 1,39,-1
 1190 1417 l 1,40,-1
 1190 624 l 2,41,42
 1190 381 1190 381 1173 311 c 0,43,44
 1137 142 1137 142 989 52 c 0,45,46
 917 9 917 9 835 -7 c 1,0,1
EndSplineSet
EndChar

StartChar: uogonek
Encoding: 371 371 307
Width: 1178
VWidth: 1433
GlyphClass: 1
Flags: W
LayerCount: 2
Fore
SplineSet
853 0 m 1,0,-1
 847 166 l 1,1,2
 792 107 792 107 738 68 c 0,3,4
 615 -20 615 -20 478 -20 c 0,5,6
 285 -20 285 -20 213 124 c 0,7,8
 181 189 181 189 174 304 c 0,9,10
 170 371 170 371 170 438 c 2,11,-1
 170 1038 l 1,12,-1
 326 1038 l 1,13,-1
 326 435 l 2,14,15
 326 278 326 278 348 216 c 0,16,17
 386 105 386 105 521 105 c 0,18,19
 686 105 686 105 843 299 c 1,20,-1
 843 1038 l 1,21,-1
 999 1038 l 1,22,-1
 999 338 l 2,23,24
 1000 78 1000 78 1007 0 c 1,25,26
 908 -63 908 -63 876 -89 c 0,27,28
 782 -168 782 -168 782 -244 c 0,29,30
 782 -289 782 -289 813 -314 c 0,31,32
 844 -338 844 -338 890 -338 c 0,33,34
 924 -338 924 -338 991 -322 c 1,35,-1
 1007 -420 l 1,36,37
 912 -446 912 -446 856 -446 c 0,38,39
 768 -446 768 -446 711 -404 c 0,40,41
 646 -356 646 -356 646 -274 c 0,42,43
 646 -153 646 -153 777 -65 c 0,44,45
 818 -37 818 -37 908 0 c 1,46,-1
 853 0 l 1,0,-1
EndSplineSet
EndChar

StartChar: Wcircumflex
Encoding: 372 372 308
Width: 1759
VWidth: 1433
GlyphClass: 1
Flags: W
LayerCount: 2
Fore
SplineSet
387 0 m 1,0,-1
 70 1417 l 1,1,-1
 242 1417 l 1,2,-1
 445 458 l 2,3,4
 480 292 480 292 502 155 c 1,5,6
 524 282 524 282 564 461 c 2,7,-1
 779 1417 l 1,8,-1
 985 1417 l 1,9,-1
 1204 467 l 2,10,11
 1240 312 1240 312 1266 165 c 1,12,13
 1286 289 1286 289 1324 463 c 2,14,-1
 1532 1417 l 1,15,-1
 1690 1417 l 1,16,-1
 1370 0 l 1,17,-1
 1160 0 l 1,18,-1
 942 947 l 2,19,20
 902 1123 902 1123 879 1254 c 1,21,22
 856 1123 856 1123 816 945 c 2,23,-1
 598 0 l 1,24,-1
 387 0 l 1,0,-1
880 1747 m 1,25,-1
 731 1546 l 1,26,-1
 581 1546 l 1,27,-1
 786 1845 l 1,28,-1
 974 1845 l 1,29,-1
 1179 1546 l 1,30,-1
 1030 1546 l 1,31,-1
 880 1747 l 1,25,-1
EndSplineSet
EndChar

StartChar: wcircumflex
Encoding: 373 373 309
Width: 1612
VWidth: 1433
GlyphClass: 1
Flags: W
LayerCount: 2
Fore
SplineSet
342 0 m 1,0,-1
 57 1038 l 1,1,-1
 217 1038 l 1,2,-1
 388 388 l 2,3,4
 428 236 428 236 452 133 c 1,5,6
 483 255 483 255 523 395 c 2,7,-1
 704 1038 l 1,8,-1
 907 1038 l 1,9,-1
 1093 410 l 2,10,11
 1136 262 1136 262 1171 133 c 1,12,13
 1201 254 1201 254 1240 399 c 2,14,-1
 1413 1038 l 1,15,-1
 1554 1038 l 1,16,-1
 1263 0 l 1,17,-1
 1067 0 l 1,18,-1
 867 663 l 2,19,20
 826 799 826 799 796 909 c 1,21,22
 765 787 765 787 726 650 c 2,23,-1
 540 0 l 1,24,-1
 342 0 l 1,0,-1
806 1399 m 1,25,-1
 656 1198 l 1,26,-1
 507 1198 l 1,27,-1
 711 1497 l 1,28,-1
 900 1497 l 1,29,-1
 1105 1198 l 1,30,-1
 955 1198 l 1,31,-1
 806 1399 l 1,25,-1
EndSplineSet
EndChar

StartChar: Ycircumflex
Encoding: 374 374 310
Width: 1147
VWidth: 1433
GlyphClass: 1
Flags: W
LayerCount: 2
Fore
SplineSet
492 0 m 1,0,-1
 492 638 l 1,1,-1
 -4 1417 l 1,2,-1
 189 1417 l 1,3,-1
 484 946 l 2,4,5
 538 861 538 861 581 780 c 1,6,7
 643 892 643 892 680 951 c 2,8,-1
 971 1417 l 1,9,-1
 1151 1417 l 1,10,-1
 656 638 l 1,11,-1
 656 0 l 1,12,-1
 492 0 l 1,0,-1
578 1747 m 1,13,-1
 428 1546 l 1,14,-1
 279 1546 l 1,15,-1
 483 1845 l 1,16,-1
 672 1845 l 1,17,-1
 877 1546 l 1,18,-1
 727 1546 l 1,19,-1
 578 1747 l 1,13,-1
EndSplineSet
EndChar

StartChar: ycircumflex
Encoding: 375 375 311
Width: 1001
VWidth: 1433
GlyphClass: 1
Flags: W
LayerCount: 2
Fore
SplineSet
433 -14 m 1,0,-1
 24 1038 l 1,1,-1
 191 1038 l 1,2,-1
 428 417 l 2,3,4
 466 316 466 316 513 180 c 1,5,6
 558 313 558 313 600 424 c 2,7,-1
 830 1038 l 1,8,-1
 976 1038 l 1,9,-1
 554 -88 l 2,10,11
 488 -263 488 -263 413 -358 c 0,12,13
 331 -461 331 -461 174 -461 c 0,14,15
 103 -461 103 -461 21 -440 c 1,16,-1
 48 -313 l 1,17,18
 111 -336 111 -336 164 -336 c 0,19,20
 288 -336 288 -336 358 -201 c 0,21,22
 402 -117 402 -117 433 -14 c 1,0,-1
500 1399 m 1,23,-1
 351 1198 l 1,24,-1
 201 1198 l 1,25,-1
 406 1497 l 1,26,-1
 594 1497 l 1,27,-1
 799 1198 l 1,28,-1
 650 1198 l 1,29,-1
 500 1399 l 1,23,-1
EndSplineSet
EndChar

StartChar: florin
Encoding: 402 402 319
Width: 1180
VWidth: 1433
GlyphClass: 1
Flags: W
LayerCount: 2
Fore
SplineSet
460 674 m 1,0,-1
 264 674 l 1,1,-1
 264 793 l 1,2,-1
 481 793 l 1,3,-1
 518 1003 l 2,4,5
 560 1242 560 1242 632 1332 c 0,6,7
 716 1437 716 1437 879 1437 c 0,8,9
 962 1437 962 1437 1048 1412 c 1,10,-1
 1016 1290 l 1,11,12
 956 1310 956 1310 897 1310 c 0,13,14
 810 1310 810 1310 766 1265 c 0,15,16
 708 1206 708 1206 669 988 c 2,17,-1
 635 793 l 1,18,-1
 912 793 l 1,19,-1
 912 674 l 1,20,-1
 614 674 l 1,21,-1
 527 178 l 2,22,23
 500 28 500 28 487 -17 c 0,24,25
 417 -262 417 -262 169 -262 c 0,26,27
 106 -262 106 -262 6 -240 c 1,28,-1
 34 -114 l 1,29,30
 96 -134 96 -134 149 -134 c 0,31,32
 241 -134 241 -134 289 -76 c 0,33,34
 330 -27 330 -27 355 88 c 0,35,36
 365 134 365 134 388 266 c 2,37,-1
 460 674 l 1,0,-1
EndSplineSet
EndChar

StartChar: Ohorn
Encoding: 416 416 320
Width: 1475
VWidth: 1433
GlyphClass: 1
Flags: W
LayerCount: 2
Fore
SplineSet
1192 1235 m 1,0,-1
 1288 1543 l 1,1,-1
 1469 1543 l 1,2,-1
 1288 1084 l 1,3,-1
 1285 1084 l 1,4,5
 1364 916 1364 916 1364 708 c 0,6,7
 1364 379 1364 379 1176 164 c 0,8,9
 1016 -20 1016 -20 737 -20 c 0,10,11
 437 -20 437 -20 272 197 c 0,12,13
 111 409 111 409 111 709 c 0,14,15
 111 1039 111 1039 299 1254 c 0,16,17
 460 1438 460 1438 738 1438 c 0,18,19
 1030 1438 1030 1438 1192 1235 c 1,0,-1
732 1303 m 0,20,21
 518 1303 518 1303 395 1127 c 0,22,23
 285 969 285 969 285 709 c 0,24,25
 285 424 285 424 416 263 c 0,26,27
 538 115 538 115 737 115 c 0,28,29
 956 115 956 115 1079 291 c 0,30,31
 1190 449 1190 449 1190 710 c 0,32,33
 1190 994 1190 994 1059 1155 c 0,34,35
 937 1303 937 1303 732 1303 c 0,20,21
EndSplineSet
EndChar

StartChar: ohorn
Encoding: 417 417 321
Width: 1157
VWidth: 1433
GlyphClass: 1
Flags: W
LayerCount: 2
Fore
SplineSet
940 889 m 1,0,-1
 1023 1155 l 1,1,-1
 1204 1155 l 1,2,-1
 1030 715 l 1,3,4
 1056 627 1056 627 1056 519 c 0,5,6
 1056 278 1056 278 923 130 c 0,7,8
 788 -20 788 -20 578 -20 c 0,9,10
 351 -20 351 -20 215 152 c 0,11,12
 100 296 100 296 100 520 c 0,13,14
 100 762 100 762 233 910 c 0,15,16
 368 1059 368 1059 579 1059 c 0,17,18
 802 1059 802 1059 940 889 c 1,0,-1
574 934 m 0,19,20
 409 934 409 934 324 781 c 0,21,22
 264 675 264 675 264 520 c 0,23,24
 264 348 264 348 336 238 c 0,25,26
 422 105 422 105 578 105 c 0,27,28
 746 105 746 105 832 258 c 0,29,30
 892 364 892 364 892 520 c 0,31,32
 892 692 892 692 820 802 c 0,33,34
 733 934 733 934 574 934 c 0,19,20
EndSplineSet
EndChar

StartChar: Uhorn
Encoding: 431 431 322
Width: 1362
VWidth: 1433
GlyphClass: 1
Flags: W
LayerCount: 2
Fore
SplineSet
172 1417 m 1,0,-1
 336 1417 l 1,1,-1
 336 557 l 2,2,3
 336 318 336 318 411 221 c 0,4,5
 492 115 492 115 680 115 c 0,6,7
 887 115 887 115 969 237 c 0,8,9
 1034 334 1034 334 1034 526 c 2,10,-1
 1034 1417 l 1,11,-1
 1190 1417 l 1,12,-1
 1190 625 l 2,13,14
 1190 389 1190 389 1173 311 c 0,15,16
 1137 141 1137 141 989 52 c 0,17,18
 868 -20 868 -20 680 -20 c 0,19,20
 361 -20 361 -20 237 184 c 0,21,22
 183 272 183 272 176 431 c 0,23,24
 172 509 172 509 172 625 c 2,25,-1
 172 1417 l 1,0,-1
1384 1427 m 1,26,-1
 1566 1427 l 1,27,-1
 1384 968 l 1,28,-1
 1242 968 l 1,29,-1
 1384 1427 l 1,26,-1
EndSplineSet
EndChar

StartChar: uhorn
Encoding: 432 432 323
Width: 1178
VWidth: 1433
GlyphClass: 1
Flags: W
LayerCount: 2
Fore
SplineSet
999 1038 m 1,0,-1
 999 338 l 2,1,2
 999 96 999 96 1007 0 c 1,3,-1
 853 0 l 1,4,-1
 847 166 l 1,5,6
 675 -20 675 -20 477 -20 c 0,7,8
 285 -20 285 -20 213 124 c 0,9,10
 170 210 170 210 170 438 c 2,11,-1
 170 1038 l 1,12,-1
 326 1038 l 1,13,-1
 326 435 l 2,14,15
 326 279 326 279 348 216 c 0,16,17
 386 105 386 105 521 105 c 0,18,19
 687 105 687 105 843 299 c 1,20,-1
 843 1038 l 1,21,-1
 999 1038 l 1,0,-1
1202 1053 m 1,22,-1
 1383 1053 l 1,23,-1
 1202 594 l 1,24,-1
 1059 594 l 1,25,-1
 1202 1053 l 1,22,-1
EndSplineSet
EndChar

StartChar: uni01CD
Encoding: 461 461 324
Width: 1276
VWidth: 1433
GlyphClass: 1
Flags: W
LayerCount: 2
Fore
SplineSet
897 496 m 1,0,-1
 369 496 l 1,1,-1
 195 0 l 1,2,-1
 29 0 l 1,3,-1
 533 1417 l 1,4,-1
 740 1417 l 1,5,-1
 1248 0 l 1,6,-1
 1071 0 l 1,7,-1
 897 496 l 1,0,-1
848 631 m 1,8,-1
 722 1004 l 2,9,10
 674 1146 674 1146 635 1277 c 1,11,12
 599 1156 599 1156 547 1003 c 2,13,-1
 418 631 l 1,14,-1
 848 631 l 1,8,-1
638 1657 m 1,15,-1
 788 1858 l 1,16,-1
 937 1858 l 1,17,-1
 733 1559 l 1,18,-1
 544 1559 l 1,19,-1
 339 1858 l 1,20,-1
 489 1858 l 1,21,-1
 638 1657 l 1,15,-1
EndSplineSet
EndChar

StartChar: uni01CE
Encoding: 462 462 325
Width: 1051
VWidth: 1433
GlyphClass: 1
Flags: W
LayerCount: 2
Fore
SplineSet
728 121 m 1,0,1
 597 -20 597 -20 418 -20 c 0,2,3
 255 -20 255 -20 169 72 c 0,4,5
 93 153 93 153 93 286 c 0,6,7
 93 629 93 629 563 629 c 0,8,9
 601 629 601 629 716 625 c 1,10,-1
 716 653 l 2,11,12
 716 766 716 766 687 826 c 0,13,14
 635 934 635 934 481 934 c 0,15,16
 355 934 355 934 213 844 c 1,17,-1
 145 955 l 1,18,19
 307 1059 307 1059 498 1059 c 0,20,21
 734 1059 734 1059 821 918 c 0,22,23
 862 851 862 851 869 726 c 0,24,25
 872 681 872 681 872 598 c 2,26,-1
 872 259 l 2,27,28
 872 99 872 99 880 0 c 1,29,-1
 735 0 l 1,30,-1
 728 121 l 1,0,1
716 506 m 1,31,32
 659 510 659 510 600 510 c 0,33,34
 433 510 433 510 357 466 c 0,35,36
 257 409 257 409 257 290 c 0,37,38
 257 206 257 206 307 156 c 0,39,40
 359 105 359 105 446 105 c 0,41,42
 609 105 609 105 716 264 c 1,43,-1
 716 506 l 1,31,32
511 1296 m 1,44,-1
 661 1497 l 1,45,-1
 810 1497 l 1,46,-1
 606 1198 l 1,47,-1
 417 1198 l 1,48,-1
 212 1497 l 1,49,-1
 362 1497 l 1,50,-1
 511 1296 l 1,44,-1
EndSplineSet
EndChar

StartChar: uni01D3
Encoding: 467 467 326
Width: 1362
VWidth: 1433
GlyphClass: 1
Flags: W
LayerCount: 2
Fore
SplineSet
172 1417 m 1,0,-1
 336 1417 l 1,1,-1
 336 557 l 2,2,3
 336 318 336 318 411 221 c 0,4,5
 492 115 492 115 680 115 c 0,6,7
 887 115 887 115 969 237 c 0,8,9
 1034 334 1034 334 1034 526 c 2,10,-1
 1034 1417 l 1,11,-1
 1190 1417 l 1,12,-1
 1190 625 l 2,13,14
 1190 389 1190 389 1173 311 c 0,15,16
 1137 141 1137 141 989 52 c 0,17,18
 868 -20 868 -20 680 -20 c 0,19,20
 361 -20 361 -20 237 184 c 0,21,22
 183 272 183 272 176 431 c 0,23,24
 172 509 172 509 172 625 c 2,25,-1
 172 1417 l 1,0,-1
681 1657 m 1,26,-1
 831 1858 l 1,27,-1
 980 1858 l 1,28,-1
 775 1559 l 1,29,-1
 587 1559 l 1,30,-1
 382 1858 l 1,31,-1
 531 1858 l 1,32,-1
 681 1657 l 1,26,-1
EndSplineSet
EndChar

StartChar: uni01D4
Encoding: 468 468 327
Width: 1178
VWidth: 1433
GlyphClass: 1
Flags: W
LayerCount: 2
Fore
SplineSet
999 1038 m 1,0,-1
 999 338 l 2,1,2
 999 96 999 96 1007 0 c 1,3,-1
 853 0 l 1,4,-1
 847 166 l 1,5,6
 675 -20 675 -20 477 -20 c 0,7,8
 285 -20 285 -20 213 124 c 0,9,10
 170 210 170 210 170 438 c 2,11,-1
 170 1038 l 1,12,-1
 326 1038 l 1,13,-1
 326 435 l 2,14,15
 326 279 326 279 348 216 c 0,16,17
 386 105 386 105 521 105 c 0,18,19
 687 105 687 105 843 299 c 1,20,-1
 843 1038 l 1,21,-1
 999 1038 l 1,0,-1
589 1296 m 1,22,-1
 738 1497 l 1,23,-1
 888 1497 l 1,24,-1
 683 1198 l 1,25,-1
 495 1198 l 1,26,-1
 290 1497 l 1,27,-1
 439 1497 l 1,28,-1
 589 1296 l 1,22,-1
EndSplineSet
EndChar

StartChar: uni01E6
Encoding: 486 486 328
Width: 1378
VWidth: 1433
GlyphClass: 1
Flags: W
LayerCount: 2
Fore
SplineSet
1207 731 m 1,0,-1
 1207 61 l 1,1,2
 999 -20 999 -20 776 -20 c 0,3,4
 490 -20 490 -20 311 158 c 0,5,6
 111 357 111 357 111 691 c 0,7,8
 111 1040 111 1040 312 1248 c 0,9,10
 495 1438 495 1438 782 1438 c 0,11,12
 981 1438 981 1438 1197 1337 c 1,13,-1
 1149 1206 l 1,14,15
 962 1303 962 1303 778 1303 c 0,16,17
 537 1303 537 1303 408 1122 c 0,18,19
 285 948 285 948 285 692 c 0,20,21
 285 402 285 402 454 240 c 0,22,23
 584 115 584 115 792 115 c 0,24,25
 915 115 915 115 1043 160 c 1,26,-1
 1043 596 l 1,27,-1
 764 596 l 1,28,-1
 764 731 l 1,29,-1
 1207 731 l 1,0,-1
772 1657 m 1,30,-1
 922 1858 l 1,31,-1
 1071 1858 l 1,32,-1
 866 1559 l 1,33,-1
 678 1559 l 1,34,-1
 473 1858 l 1,35,-1
 623 1858 l 1,36,-1
 772 1657 l 1,30,-1
EndSplineSet
EndChar

StartChar: uni01E7
Encoding: 487 487 329
Width: 1153
VWidth: 1433
GlyphClass: 1
Flags: W
LayerCount: 2
Fore
SplineSet
830 1038 m 1,0,-1
 982 1038 l 1,1,2
 974 787 974 787 974 629 c 2,3,-1
 974 110 l 2,4,5
 974 -66 974 -66 953 -157 c 0,6,7
 919 -302 919 -302 789 -389 c 0,8,9
 680 -461 680 -461 528 -461 c 0,10,11
 320 -461 320 -461 135 -348 c 1,12,-1
 202 -228 l 1,13,14
 360 -336 360 -336 524 -336 c 0,15,16
 707 -336 707 -336 778 -188 c 0,17,18
 818 -105 818 -105 818 96 c 2,19,-1
 818 182 l 1,20,21
 673 18 673 18 501 18 c 0,22,23
 327 18 327 18 212 159 c 0,24,25
 99 296 99 296 99 530 c 0,26,27
 99 784 99 784 225 933 c 0,28,29
 331 1059 331 1059 504 1059 c 0,30,31
 709 1059 709 1059 824 879 c 1,32,-1
 830 1038 l 1,0,-1
818 733 m 1,33,34
 712 934 712 934 537 934 c 0,35,36
 398 934 398 934 326 808 c 0,37,38
 263 696 263 696 263 532 c 0,39,40
 263 373 263 373 329 265 c 0,41,42
 405 143 405 143 543 143 c 0,43,44
 710 143 710 143 818 326 c 1,45,-1
 818 733 l 1,33,34
576 1296 m 1,46,-1
 726 1497 l 1,47,-1
 875 1497 l 1,48,-1
 670 1198 l 1,49,-1
 482 1198 l 1,50,-1
 277 1497 l 1,51,-1
 427 1497 l 1,52,-1
 576 1296 l 1,46,-1
EndSplineSet
EndChar

StartChar: uni01F4
Encoding: 500 500 330
Width: 1378
VWidth: 1433
GlyphClass: 1
Flags: W
LayerCount: 2
Fore
SplineSet
1207 731 m 1,0,-1
 1207 61 l 1,1,2
 999 -20 999 -20 776 -20 c 0,3,4
 490 -20 490 -20 311 158 c 0,5,6
 111 357 111 357 111 691 c 0,7,8
 111 1040 111 1040 312 1248 c 0,9,10
 495 1438 495 1438 782 1438 c 0,11,12
 981 1438 981 1438 1197 1337 c 1,13,-1
 1149 1206 l 1,14,15
 962 1303 962 1303 778 1303 c 0,16,17
 537 1303 537 1303 408 1122 c 0,18,19
 285 948 285 948 285 692 c 0,20,21
 285 402 285 402 454 240 c 0,22,23
 584 115 584 115 792 115 c 0,24,25
 915 115 915 115 1043 160 c 1,26,-1
 1043 596 l 1,27,-1
 764 596 l 1,28,-1
 764 731 l 1,29,-1
 1207 731 l 1,0,-1
857 1845 m 1,30,-1
 1055 1845 l 1,31,-1
 756 1546 l 1,32,-1
 607 1546 l 1,33,-1
 857 1845 l 1,30,-1
EndSplineSet
EndChar

StartChar: uni01F5
Encoding: 501 501 331
Width: 1153
VWidth: 1433
GlyphClass: 1
Flags: W
LayerCount: 2
Fore
SplineSet
830 1038 m 1,0,-1
 982 1038 l 1,1,2
 974 787 974 787 974 629 c 2,3,-1
 974 110 l 2,4,5
 974 -66 974 -66 953 -157 c 0,6,7
 919 -302 919 -302 789 -389 c 0,8,9
 680 -461 680 -461 528 -461 c 0,10,11
 320 -461 320 -461 135 -348 c 1,12,-1
 202 -228 l 1,13,14
 360 -336 360 -336 524 -336 c 0,15,16
 707 -336 707 -336 778 -188 c 0,17,18
 818 -105 818 -105 818 96 c 2,19,-1
 818 182 l 1,20,21
 673 18 673 18 501 18 c 0,22,23
 327 18 327 18 212 159 c 0,24,25
 99 296 99 296 99 530 c 0,26,27
 99 784 99 784 225 933 c 0,28,29
 331 1059 331 1059 504 1059 c 0,30,31
 709 1059 709 1059 824 879 c 1,32,-1
 830 1038 l 1,0,-1
818 733 m 1,33,34
 712 934 712 934 537 934 c 0,35,36
 398 934 398 934 326 808 c 0,37,38
 263 696 263 696 263 532 c 0,39,40
 263 373 263 373 329 265 c 0,41,42
 405 143 405 143 543 143 c 0,43,44
 710 143 710 143 818 326 c 1,45,-1
 818 733 l 1,33,34
678 1497 m 1,46,-1
 877 1497 l 1,47,-1
 578 1198 l 1,48,-1
 428 1198 l 1,49,-1
 678 1497 l 1,46,-1
EndSplineSet
EndChar

StartChar: Scommaaccent
Encoding: 536 536 332
Width: 1065
VWidth: 1433
GlyphClass: 1
Flags: W
LayerCount: 2
Fore
SplineSet
125 43 m 1,0,-1
 146 186 l 1,1,2
 342 115 342 115 492 115 c 0,3,4
 627 115 627 115 706 187 c 0,5,6
 781 255 781 255 781 368 c 0,7,8
 781 472 781 472 718 531 c 0,9,10
 666 580 666 580 492 657 c 0,11,12
 288 748 288 748 219 807 c 0,13,14
 111 898 111 898 111 1055 c 0,15,16
 111 1232 111 1232 232 1335 c 0,17,18
 352 1438 352 1438 556 1438 c 0,19,20
 697 1438 697 1438 889 1374 c 1,21,-1
 856 1227 l 1,22,23
 700 1303 700 1303 553 1303 c 0,24,25
 441 1303 441 1303 364 1245 c 0,26,27
 285 1186 285 1186 285 1085 c 0,28,29
 285 1004 285 1004 337 947 c 0,30,31
 395 884 395 884 558 816 c 0,32,33
 763 730 763 730 843 655 c 0,34,35
 955 550 955 550 955 381 c 0,36,37
 955 192 955 192 822 84 c 0,38,39
 695 -20 695 -20 486 -20 c 0,40,41
 323 -20 323 -20 125 43 c 1,0,-1
456 -70 m 1,42,-1
 642 -70 l 1,43,-1
 366 -371 l 1,44,-1
 214 -371 l 1,45,-1
 456 -70 l 1,42,-1
EndSplineSet
EndChar

StartChar: scommaaccent
Encoding: 537 537 333
Width: 862
VWidth: 1433
GlyphClass: 1
Flags: W
LayerCount: 2
Fore
SplineSet
100 51 m 1,0,-1
 147 174 l 1,1,2
 290 105 290 105 400 105 c 0,3,4
 478 105 478 105 536 148 c 0,5,6
 598 194 598 194 598 281 c 0,7,8
 598 348 598 348 557 385 c 0,9,10
 522 416 522 416 390 467 c 0,11,12
 244 524 244 524 183 580 c 0,13,14
 104 654 104 654 104 769 c 0,15,16
 104 906 104 906 211 989 c 0,17,18
 302 1059 302 1059 445 1059 c 0,19,20
 590 1059 590 1059 741 981 c 1,21,-1
 694 858 l 1,22,23
 581 934 581 934 459 934 c 0,24,25
 380 934 380 934 328 900 c 0,26,27
 268 861 268 861 268 782 c 0,28,29
 268 710 268 710 327 668 c 0,30,31
 370 638 370 638 480 593 c 0,32,33
 650 525 650 525 705 461 c 0,34,35
 762 396 762 396 762 291 c 0,36,37
 762 141 762 141 649 56 c 0,38,39
 549 -20 549 -20 397 -20 c 0,40,41
 250 -20 250 -20 100 51 c 1,0,-1
365 -70 m 1,42,-1
 552 -70 l 1,43,-1
 275 -371 l 1,44,-1
 124 -371 l 1,45,-1
 365 -70 l 1,42,-1
EndSplineSet
EndChar

StartChar: uni02BC
Encoding: 700 700 334
Width: 344
VWidth: 1433
GlyphClass: 1
Flags: W
LayerCount: 2
Fore
SplineSet
156 1497 m 1,0,-1
 338 1497 l 1,1,-1
 156 1038 l 1,2,-1
 14 1038 l 1,3,-1
 156 1497 l 1,0,-1
EndSplineSet
EndChar

StartChar: circumflex
Encoding: 710 710 335
Width: 1024
VWidth: 1433
GlyphClass: 1
Flags: W
LayerCount: 2
Fore
SplineSet
512 1399 m 1,0,-1
 363 1198 l 1,1,-1
 213 1198 l 1,2,-1
 418 1497 l 1,3,-1
 606 1497 l 1,4,-1
 811 1198 l 1,5,-1
 662 1198 l 1,6,-1
 512 1399 l 1,0,-1
EndSplineSet
EndChar

StartChar: caron
Encoding: 711 711 336
Width: 1024
VWidth: 1433
GlyphClass: 1
Flags: W
LayerCount: 2
Fore
SplineSet
512 1296 m 1,0,-1
 662 1497 l 1,1,-1
 811 1497 l 1,2,-1
 606 1198 l 1,3,-1
 418 1198 l 1,4,-1
 213 1497 l 1,5,-1
 363 1497 l 1,6,-1
 512 1296 l 1,0,-1
EndSplineSet
EndChar

StartChar: uni02C9
Encoding: 713 713 337
Width: 1024
VWidth: 1433
GlyphClass: 1
Flags: W
LayerCount: 2
Fore
SplineSet
214 1282 m 1,0,-1
 214 1401 l 1,1,-1
 809 1401 l 1,2,-1
 809 1282 l 1,3,-1
 214 1282 l 1,0,-1
EndSplineSet
EndChar

StartChar: breve
Encoding: 728 728 338
Width: 1024
VWidth: 1433
GlyphClass: 1
Flags: W
LayerCount: 2
Fore
SplineSet
211 1497 m 1,0,-1
 346 1497 l 1,1,2
 352 1414 352 1414 386 1367 c 0,3,4
 431 1304 431 1304 512 1304 c 0,5,6
 599 1304 599 1304 645 1378 c 0,7,8
 671 1422 671 1422 677 1497 c 1,9,-1
 812 1497 l 1,10,11
 806 1384 806 1384 761 1316 c 0,12,13
 679 1193 679 1193 512 1193 c 0,14,15
 344 1193 344 1193 262 1316 c 0,16,17
 217 1384 217 1384 211 1497 c 1,0,-1
EndSplineSet
EndChar

StartChar: dotaccent
Encoding: 729 729 339
Width: 1024
VWidth: 1433
GlyphClass: 1
Flags: W
LayerCount: 2
Fore
SplineSet
514 1454 m 0,0,1
 566 1454 566 1454 596 1416 c 0,2,3
 619 1388 619 1388 619 1347 c 0,4,5
 619 1307 619 1307 596 1279 c 0,6,7
 566 1241 566 1241 513 1241 c 0,8,9
 458 1241 458 1241 429 1280 c 0,10,11
 406 1309 406 1309 406 1350 c 0,12,13
 406 1390 406 1390 429 1417 c 0,14,15
 459 1454 459 1454 514 1454 c 0,0,1
EndSplineSet
EndChar

StartChar: ring
Encoding: 730 730 340
Width: 1024
VWidth: 1433
GlyphClass: 1
Flags: W
LayerCount: 2
Fore
SplineSet
515 1567 m 0,0,1
 597 1567 597 1567 656 1509 c 0,2,3
 716 1450 716 1450 716 1362 c 256,4,5
 716 1274 716 1274 656 1215 c 0,6,7
 597 1157 597 1157 512 1157 c 256,8,9
 427 1157 427 1157 368 1215 c 0,10,11
 308 1274 308 1274 308 1362 c 0,12,13
 308 1452 308 1452 368 1509 c 0,14,15
 429 1567 429 1567 515 1567 c 0,0,1
510 1485 m 0,16,17
 454 1485 454 1485 421 1443 c 0,18,19
 394 1408 394 1408 394 1362 c 256,20,21
 394 1316 394 1316 421 1281 c 0,22,23
 454 1239 454 1239 512 1239 c 256,24,25
 570 1239 570 1239 603 1281 c 0,26,27
 630 1316 630 1316 630 1362 c 256,28,29
 630 1408 630 1408 603 1443 c 0,30,31
 570 1485 570 1485 510 1485 c 0,16,17
EndSplineSet
EndChar

StartChar: ogonek
Encoding: 731 731 341
Width: 1024
VWidth: 1433
GlyphClass: 1
Flags: W
LayerCount: 2
Fore
SplineSet
573 -322 m 1,0,-1
 590 -420 l 1,1,2
 495 -446 495 -446 440 -446 c 0,3,4
 351 -446 351 -446 294 -404 c 0,5,6
 229 -356 229 -356 229 -274 c 0,7,8
 229 -151 229 -151 363 -63 c 0,9,10
 404 -36 404 -36 491 0 c 1,11,-1
 590 0 l 1,12,13
 493 -62 493 -62 460 -89 c 0,14,15
 366 -168 366 -168 366 -245 c 0,16,17
 366 -289 366 -289 397 -314 c 0,18,19
 428 -338 428 -338 474 -338 c 0,20,21
 508 -338 508 -338 573 -322 c 1,0,-1
EndSplineSet
EndChar

StartChar: tilde
Encoding: 732 732 342
Width: 1024
VWidth: 1433
GlyphClass: 1
Flags: W
LayerCount: 2
Fore
SplineSet
274 1237 m 1,0,-1
 168 1237 l 1,1,2
 177 1315 177 1315 211 1365 c 0,3,4
 266 1446 266 1446 360 1446 c 0,5,6
 427 1446 427 1446 542 1403 c 0,7,8
 622 1372 622 1372 659 1372 c 0,9,10
 703 1372 703 1372 731 1404 c 0,11,12
 748 1424 748 1424 752 1458 c 1,13,-1
 856 1458 l 1,14,15
 847 1379 847 1379 816 1330 c 0,16,17
 764 1247 764 1247 663 1247 c 0,18,19
 602 1247 602 1247 490 1288 c 0,20,21
 400 1321 400 1321 362 1321 c 0,22,23
 300 1321 300 1321 274 1237 c 1,0,-1
EndSplineSet
EndChar

StartChar: hungarumlaut
Encoding: 733 733 343
Width: 1024
VWidth: 1433
GlyphClass: 1
Flags: W
LayerCount: 2
Fore
SplineSet
466 1497 m 1,0,-1
 656 1497 l 1,1,-1
 398 1198 l 1,2,-1
 257 1198 l 1,3,-1
 466 1497 l 1,0,-1
786 1497 m 1,4,-1
 976 1497 l 1,5,-1
 718 1198 l 1,6,-1
 577 1198 l 1,7,-1
 786 1497 l 1,4,-1
EndSplineSet
EndChar

StartChar: uni0374
Encoding: 884 884 344
Width: 328
VWidth: 1433
GlyphClass: 1
Flags: W
LayerCount: 2
Fore
SplineSet
166 1497 m 1,0,-1
 352 1497 l 1,1,-1
 166 956 l 1,2,-1
 59 956 l 1,3,-1
 166 1497 l 1,0,-1
EndSplineSet
EndChar

StartChar: uni0375
Encoding: 885 885 345
Width: 328
VWidth: 1433
GlyphClass: 1
Flags: W
LayerCount: 2
Fore
SplineSet
109 209 m 1,0,-1
 295 209 l 1,1,-1
 109 -332 l 1,2,-1
 2 -332 l 1,3,-1
 109 209 l 1,0,-1
EndSplineSet
EndChar

StartChar: uni037A
Encoding: 890 890 346
Width: 1024
VWidth: 1433
GlyphClass: 1
Flags: W
LayerCount: 2
Fore
SplineSet
765 -322 m 1,0,-1
 781 -420 l 1,1,2
 704 -446 704 -446 629 -446 c 0,3,4
 535 -446 535 -446 480 -399 c 0,5,6
 420 -348 420 -348 420 -215 c 2,7,-1
 420 0 l 1,8,-1
 557 0 l 1,9,-1
 557 -190 l 2,10,11
 557 -277 557 -277 582 -306 c 0,12,13
 610 -338 610 -338 667 -338 c 0,14,15
 706 -338 706 -338 765 -322 c 1,0,-1
EndSplineSet
EndChar

StartChar: uni037E
Encoding: 894 894 347
Width: 590
VWidth: 1433
GlyphClass: 1
Flags: W
LayerCount: 2
Fore
SplineSet
233 209 m 1,0,-1
 431 209 l 1,1,-1
 254 -250 l 1,2,-1
 93 -250 l 1,3,-1
 233 209 l 1,0,-1
340 983 m 0,4,5
 388 983 388 983 423 950 c 0,6,7
 459 914 459 914 459 862 c 256,8,9
 459 810 459 810 423 774 c 0,10,11
 389 741 389 741 338 741 c 256,12,13
 287 741 287 741 253 774 c 0,14,15
 217 810 217 810 217 862 c 0,16,17
 217 915 217 915 253 950 c 0,18,19
 288 983 288 983 340 983 c 0,4,5
EndSplineSet
EndChar

StartChar: tonos
Encoding: 900 900 348
Width: 1024
VWidth: 1433
GlyphClass: 1
Flags: W
LayerCount: 2
Fore
SplineSet
548 1518 m 1,0,-1
 734 1518 l 1,1,-1
 548 1182 l 1,2,-1
 441 1182 l 1,3,-1
 548 1518 l 1,0,-1
EndSplineSet
EndChar

StartChar: dieresistonos
Encoding: 901 901 349
Width: 1024
VWidth: 1433
GlyphClass: 1
Flags: W
LayerCount: 2
Fore
SplineSet
290 1441 m 0,0,1
 337 1441 337 1441 363 1408 c 0,2,3
 383 1383 383 1383 383 1347 c 256,4,5
 383 1311 383 1311 363 1286 c 0,6,7
 337 1253 337 1253 289 1253 c 256,8,9
 241 1253 241 1253 215 1287 c 0,10,11
 195 1314 195 1314 195 1349 c 0,12,13
 195 1385 195 1385 215 1409 c 0,14,15
 241 1441 241 1441 290 1441 c 0,0,1
736 1441 m 0,16,17
 783 1441 783 1441 809 1408 c 0,18,19
 829 1383 829 1383 829 1347 c 256,20,21
 829 1311 829 1311 809 1286 c 0,22,23
 783 1253 783 1253 735 1253 c 256,24,25
 687 1253 687 1253 661 1287 c 0,26,27
 641 1314 641 1314 641 1349 c 0,28,29
 641 1385 641 1385 661 1409 c 0,30,31
 687 1441 687 1441 736 1441 c 0,16,17
456 1184 m 1,32,-1
 429 1521 l 1,33,-1
 596 1521 l 1,34,-1
 568 1184 l 1,35,-1
 456 1184 l 1,32,-1
EndSplineSet
EndChar

StartChar: Alphatonos
Encoding: 902 902 350
Width: 1288
VWidth: 1433
GlyphClass: 1
Flags: W
LayerCount: 2
Fore
SplineSet
903 496 m 1,0,-1
 375 496 l 1,1,-1
 201 0 l 1,2,-1
 35 0 l 1,3,-1
 539 1417 l 1,4,-1
 746 1417 l 1,5,-1
 1254 0 l 1,6,-1
 1077 0 l 1,7,-1
 903 496 l 1,0,-1
854 631 m 1,8,-1
 728 1004 l 2,9,10
 681 1143 681 1143 641 1277 c 1,11,12
 604 1155 604 1155 553 1004 c 2,13,-1
 424 631 l 1,14,-1
 854 631 l 1,8,-1
191 1497 m 1,15,-1
 377 1497 l 1,16,-1
 191 1079 l 1,17,-1
 84 1079 l 1,18,-1
 191 1497 l 1,15,-1
EndSplineSet
EndChar

StartChar: anoteleia
Encoding: 903 903 351
Width: 590
VWidth: 1433
GlyphClass: 1
Flags: W
LayerCount: 2
Fore
SplineSet
297 694 m 0,0,1
 346 694 346 694 380 661 c 0,2,3
 416 626 416 626 416 573 c 0,4,5
 416 521 416 521 380 485 c 0,6,7
 346 452 346 452 295 452 c 256,8,9
 244 452 244 452 210 485 c 0,10,11
 174 521 174 521 174 573 c 0,12,13
 174 626 174 626 210 661 c 0,14,15
 245 694 245 694 297 694 c 0,0,1
EndSplineSet
EndChar

StartChar: Epsilontonos
Encoding: 904 904 352
Width: 1346
VWidth: 1433
GlyphClass: 1
Flags: W
LayerCount: 2
Fore
SplineSet
91 1497 m 1,0,-1
 277 1497 l 1,1,-1
 91 1079 l 1,2,-1
 -16 1079 l 1,3,-1
 91 1497 l 1,0,-1
440 0 m 1,4,-1
 440 1417 l 1,5,-1
 1188 1417 l 1,6,-1
 1188 1282 l 1,7,-1
 604 1282 l 1,8,-1
 604 786 l 1,9,-1
 1159 786 l 1,10,-1
 1159 651 l 1,11,-1
 604 651 l 1,12,-1
 604 135 l 1,13,-1
 1218 135 l 1,14,-1
 1218 0 l 1,15,-1
 440 0 l 1,4,-1
EndSplineSet
EndChar

StartChar: Etatonos
Encoding: 905 905 353
Width: 1640
VWidth: 1433
GlyphClass: 1
Flags: W
LayerCount: 2
Fore
SplineSet
91 1497 m 1,0,-1
 277 1497 l 1,1,-1
 91 1079 l 1,2,-1
 -16 1079 l 1,3,-1
 91 1497 l 1,0,-1
440 0 m 1,4,-1
 440 1417 l 1,5,-1
 604 1417 l 1,6,-1
 604 793 l 1,7,-1
 1286 793 l 1,8,-1
 1286 1417 l 1,9,-1
 1450 1417 l 1,10,-1
 1450 0 l 1,11,-1
 1286 0 l 1,12,-1
 1286 658 l 1,13,-1
 604 658 l 1,14,-1
 604 0 l 1,15,-1
 440 0 l 1,4,-1
EndSplineSet
EndChar

StartChar: Iotatonos
Encoding: 906 906 354
Width: 836
VWidth: 1433
GlyphClass: 1
Flags: W
LayerCount: 2
Fore
SplineSet
91 1497 m 1,0,-1
 277 1497 l 1,1,-1
 91 1079 l 1,2,-1
 -16 1079 l 1,3,-1
 91 1497 l 1,0,-1
460 0 m 1,4,-1
 460 1417 l 1,5,-1
 624 1417 l 1,6,-1
 624 0 l 1,7,-1
 460 0 l 1,4,-1
EndSplineSet
EndChar

StartChar: Omicrontonos
Encoding: 908 908 355
Width: 1667
VWidth: 1433
GlyphClass: 1
Flags: W
LayerCount: 2
Fore
SplineSet
91 1497 m 1,0,-1
 277 1497 l 1,1,-1
 91 1079 l 1,2,-1
 -16 1079 l 1,3,-1
 91 1497 l 1,0,-1
931 1438 m 0,4,5
 1225 1438 1225 1438 1389 1221 c 0,6,7
 1550 1008 1550 1008 1550 709 c 0,8,9
 1550 379 1550 379 1362 164 c 0,10,11
 1202 -20 1202 -20 924 -20 c 0,12,13
 623 -20 623 -20 458 197 c 0,14,15
 297 409 297 409 297 710 c 0,16,17
 297 1040 297 1040 485 1254 c 0,18,19
 646 1438 646 1438 931 1438 c 0,4,5
918 1303 m 0,20,21
 705 1303 705 1303 582 1127 c 0,22,23
 471 969 471 969 471 709 c 0,24,25
 471 424 471 424 602 263 c 0,26,27
 724 115 724 115 923 115 c 0,28,29
 1142 115 1142 115 1265 291 c 0,30,31
 1376 449 1376 449 1376 710 c 0,32,33
 1376 994 1376 994 1245 1155 c 0,34,35
 1123 1303 1123 1303 918 1303 c 0,20,21
EndSplineSet
EndChar

StartChar: Upsilontonos
Encoding: 910 910 356
Width: 1485
VWidth: 1433
GlyphClass: 1
Flags: W
LayerCount: 2
Fore
SplineSet
91 1497 m 1,0,-1
 277 1497 l 1,1,-1
 91 1079 l 1,2,-1
 -16 1079 l 1,3,-1
 91 1497 l 1,0,-1
822 0 m 1,4,-1
 822 638 l 1,5,-1
 326 1417 l 1,6,-1
 519 1417 l 1,7,-1
 814 946 l 2,8,9
 868 861 868 861 911 780 c 1,10,11
 967 882 967 882 1010 951 c 2,12,-1
 1301 1417 l 1,13,-1
 1482 1417 l 1,14,-1
 986 638 l 1,15,-1
 986 0 l 1,16,-1
 822 0 l 1,4,-1
EndSplineSet
EndChar

StartChar: Omegatonos
Encoding: 911 911 357
Width: 1749
VWidth: 1433
GlyphClass: 1
Flags: W
LayerCount: 2
Fore
SplineSet
91 1497 m 1,0,-1
 277 1497 l 1,1,-1
 91 1079 l 1,2,-1
 -16 1079 l 1,3,-1
 91 1497 l 1,0,-1
304 0 m 1,4,-1
 304 135 l 1,5,-1
 728 135 l 1,6,-1
 728 211 l 1,7,8
 547 277 547 277 463 361 c 0,9,10
 296 529 296 529 296 800 c 0,11,12
 296 1091 296 1091 497 1277 c 0,13,14
 670 1438 670 1438 963 1438 c 0,15,16
 1282 1438 1282 1438 1460 1248 c 0,17,18
 1631 1065 1631 1065 1631 800 c 0,19,20
 1631 501 1631 501 1434 333 c 0,21,22
 1359 270 1359 270 1199 211 c 1,23,-1
 1199 135 l 1,24,-1
 1623 135 l 1,25,-1
 1623 0 l 1,26,-1
 1057 0 l 1,27,-1
 1057 312 l 1,28,29
 1231 355 1231 355 1319 439 c 0,30,31
 1457 569 1457 569 1457 793 c 0,32,33
 1457 1042 1457 1042 1313 1178 c 0,34,35
 1178 1303 1178 1303 963 1303 c 0,36,37
 728 1303 728 1303 591 1154 c 0,38,39
 470 1022 470 1022 470 793 c 0,40,41
 470 547 470 547 634 415 c 0,42,43
 716 350 716 350 870 312 c 1,44,-1
 870 0 l 1,45,-1
 304 0 l 1,4,-1
EndSplineSet
EndChar

StartChar: iotadieresistonos
Encoding: 912 912 358
Width: 635
VWidth: 1433
GlyphClass: 1
Flags: W
LayerCount: 2
Fore
SplineSet
194 1038 m 1,0,-1
 350 1038 l 1,1,-1
 350 307 l 2,2,3
 350 193 350 193 377 155 c 0,4,5
 408 111 408 111 475 111 c 0,6,7
 514 111 514 111 568 123 c 1,8,-1
 585 -7 l 1,9,10
 518 -20 518 -20 457 -20 c 0,11,12
 271 -20 271 -20 218 117 c 0,13,14
 194 180 194 180 194 399 c 2,15,-1
 194 1038 l 1,0,-1
50 1441 m 0,16,17
 97 1441 97 1441 123 1408 c 0,18,19
 143 1383 143 1383 143 1347 c 256,20,21
 143 1311 143 1311 123 1286 c 0,22,23
 97 1253 97 1253 49 1253 c 256,24,25
 1 1253 1 1253 -25 1287 c 0,26,27
 -45 1314 -45 1314 -45 1349 c 0,28,29
 -45 1385 -45 1385 -25 1409 c 0,30,31
 1 1441 1 1441 50 1441 c 0,16,17
496 1441 m 0,32,33
 543 1441 543 1441 569 1408 c 0,34,35
 589 1383 589 1383 589 1347 c 256,36,37
 589 1311 589 1311 569 1286 c 0,38,39
 543 1253 543 1253 495 1253 c 256,40,41
 447 1253 447 1253 421 1287 c 0,42,43
 401 1314 401 1314 401 1349 c 0,44,45
 401 1385 401 1385 421 1409 c 0,46,47
 447 1441 447 1441 496 1441 c 0,32,33
216 1184 m 1,48,-1
 189 1521 l 1,49,-1
 356 1521 l 1,50,-1
 328 1184 l 1,51,-1
 216 1184 l 1,48,-1
EndSplineSet
EndChar

StartChar: Alpha
Encoding: 913 913 359
Width: 1288
VWidth: 1433
GlyphClass: 1
Flags: W
LayerCount: 2
Fore
SplineSet
903 496 m 1,0,-1
 375 496 l 1,1,-1
 201 0 l 1,2,-1
 35 0 l 1,3,-1
 539 1417 l 1,4,-1
 746 1417 l 1,5,-1
 1254 0 l 1,6,-1
 1077 0 l 1,7,-1
 903 496 l 1,0,-1
854 631 m 1,8,-1
 728 1004 l 2,9,10
 681 1143 681 1143 641 1277 c 1,11,12
 604 1155 604 1155 553 1004 c 2,13,-1
 424 631 l 1,14,-1
 854 631 l 1,8,-1
EndSplineSet
EndChar

StartChar: Beta
Encoding: 914 914 360
Width: 1139
VWidth: 1433
GlyphClass: 1
Flags: W
LayerCount: 2
Fore
SplineSet
190 0 m 1,0,-1
 190 1417 l 1,1,-1
 411 1417 l 2,2,3
 680 1417 680 1417 795 1371 c 0,4,5
 898 1329 898 1329 947 1226 c 0,6,7
 983 1151 983 1151 983 1051 c 0,8,9
 983 881 983 881 882 797 c 0,10,11
 819 745 819 745 696 722 c 1,12,13
 1022 685 1022 685 1022 377 c 0,14,15
 1022 143 1022 143 841 52 c 0,16,17
 764 14 764 14 658 4 c 0,18,19
 616 0 616 0 471 0 c 2,20,-1
 190 0 l 1,0,-1
354 782 m 1,21,-1
 428 782 l 2,22,23
 630 782 630 782 704 824 c 0,24,25
 809 884 809 884 809 1031 c 0,26,27
 809 1187 809 1187 711 1241 c 0,28,29
 634 1284 634 1284 428 1284 c 2,30,-1
 354 1284 l 1,31,-1
 354 782 l 1,21,-1
354 133 m 1,32,-1
 428 133 l 2,33,34
 575 133 575 133 649 144 c 0,35,36
 848 174 848 174 848 396 c 0,37,38
 848 562 848 562 712 620 c 0,39,40
 629 655 629 655 428 655 c 2,41,-1
 354 655 l 1,42,-1
 354 133 l 1,32,-1
EndSplineSet
EndChar

StartChar: Gamma
Encoding: 915 915 361
Width: 997
VWidth: 1433
GlyphClass: 1
Flags: W
LayerCount: 2
Fore
SplineSet
190 0 m 1,0,-1
 190 1417 l 1,1,-1
 962 1417 l 1,2,-1
 962 1282 l 1,3,-1
 354 1282 l 1,4,-1
 354 0 l 1,5,-1
 190 0 l 1,0,-1
EndSplineSet
EndChar

StartChar: Delta
Encoding: 916 916 362
Width: 1316
VWidth: 1433
GlyphClass: 1
Flags: W
LayerCount: 2
Fore
SplineSet
47 0 m 1,0,-1
 47 127 l 1,1,-1
 556 1417 l 1,2,-1
 763 1417 l 1,3,-1
 1269 127 l 1,4,-1
 1269 0 l 1,5,-1
 47 0 l 1,0,-1
224 135 m 1,6,-1
 1088 135 l 1,7,-1
 761 984 l 2,8,9
 721 1088 721 1088 658 1277 c 1,10,11
 643 1235 643 1235 608 1133 c 0,12,13
 585 1067 585 1067 556 992 c 2,14,-1
 224 135 l 1,6,-1
EndSplineSet
EndChar

StartChar: Epsilon
Encoding: 917 917 363
Width: 1096
VWidth: 1433
GlyphClass: 1
Flags: W
LayerCount: 2
Fore
SplineSet
190 0 m 1,0,-1
 190 1417 l 1,1,-1
 938 1417 l 1,2,-1
 938 1282 l 1,3,-1
 354 1282 l 1,4,-1
 354 786 l 1,5,-1
 909 786 l 1,6,-1
 909 651 l 1,7,-1
 354 651 l 1,8,-1
 354 135 l 1,9,-1
 968 135 l 1,10,-1
 968 0 l 1,11,-1
 190 0 l 1,0,-1
EndSplineSet
EndChar

StartChar: Zeta
Encoding: 918 918 364
Width: 1127
VWidth: 1433
GlyphClass: 1
Flags: W
LayerCount: 2
Fore
SplineSet
86 0 m 1,0,-1
 86 135 l 1,1,-1
 828 1282 l 1,2,-1
 110 1282 l 1,3,-1
 110 1417 l 1,4,-1
 1015 1417 l 1,5,-1
 1015 1282 l 1,6,-1
 276 135 l 1,7,-1
 1036 135 l 1,8,-1
 1036 0 l 1,9,-1
 86 0 l 1,0,-1
EndSplineSet
EndChar

StartChar: Eta
Encoding: 919 919 365
Width: 1391
VWidth: 1433
GlyphClass: 1
Flags: W
LayerCount: 2
Fore
SplineSet
190 0 m 1,0,-1
 190 1417 l 1,1,-1
 354 1417 l 1,2,-1
 354 793 l 1,3,-1
 1036 793 l 1,4,-1
 1036 1417 l 1,5,-1
 1200 1417 l 1,6,-1
 1200 0 l 1,7,-1
 1036 0 l 1,8,-1
 1036 658 l 1,9,-1
 354 658 l 1,10,-1
 354 0 l 1,11,-1
 190 0 l 1,0,-1
EndSplineSet
EndChar

StartChar: Theta
Encoding: 920 920 366
Width: 1487
VWidth: 1433
GlyphClass: 1
Flags: W
LayerCount: 2
Fore
SplineSet
465 651 m 1,0,-1
 465 786 l 1,1,-1
 1022 786 l 1,2,-1
 1022 651 l 1,3,-1
 465 651 l 1,0,-1
751 1438 m 0,4,5
 1045 1438 1045 1438 1209 1221 c 0,6,7
 1370 1008 1370 1008 1370 709 c 0,8,9
 1370 379 1370 379 1182 164 c 0,10,11
 1022 -20 1022 -20 743 -20 c 0,12,13
 443 -20 443 -20 278 197 c 0,14,15
 117 409 117 409 117 710 c 0,16,17
 117 1040 117 1040 305 1254 c 0,18,19
 466 1438 466 1438 751 1438 c 0,4,5
738 1303 m 0,20,21
 524 1303 524 1303 401 1127 c 0,22,23
 291 969 291 969 291 709 c 0,24,25
 291 424 291 424 422 263 c 0,26,27
 544 115 544 115 744 115 c 0,28,29
 962 115 962 115 1085 291 c 0,30,31
 1196 449 1196 449 1196 710 c 0,32,33
 1196 994 1196 994 1065 1155 c 0,34,35
 943 1303 943 1303 738 1303 c 0,20,21
EndSplineSet
EndChar

StartChar: Iota
Encoding: 921 921 367
Width: 586
VWidth: 1433
GlyphClass: 1
Flags: W
LayerCount: 2
Fore
SplineSet
211 0 m 1,0,-1
 211 1417 l 1,1,-1
 375 1417 l 1,2,-1
 375 0 l 1,3,-1
 211 0 l 1,0,-1
EndSplineSet
EndChar

StartChar: Kappa
Encoding: 922 922 368
Width: 1199
VWidth: 1433
GlyphClass: 1
Flags: W
LayerCount: 2
Fore
SplineSet
190 0 m 1,0,-1
 190 1417 l 1,1,-1
 354 1417 l 1,2,-1
 354 741 l 1,3,-1
 955 1417 l 1,4,-1
 1151 1417 l 1,5,-1
 554 741 l 1,6,-1
 1178 0 l 1,7,-1
 967 0 l 1,8,-1
 354 731 l 1,9,-1
 354 0 l 1,10,-1
 190 0 l 1,0,-1
EndSplineSet
EndChar

StartChar: Lambda
Encoding: 923 923 369
Width: 1239
VWidth: 1433
GlyphClass: 1
Flags: W
LayerCount: 2
Fore
SplineSet
35 0 m 1,0,-1
 514 1417 l 1,1,-1
 721 1417 l 1,2,-1
 1204 0 l 1,3,-1
 1028 0 l 1,4,-1
 698 1004 l 2,5,6
 659 1124 659 1124 617 1277 c 1,7,8
 574 1126 574 1126 533 1004 c 2,9,-1
 201 0 l 1,10,-1
 35 0 l 1,0,-1
EndSplineSet
EndChar

StartChar: Mu
Encoding: 924 924 370
Width: 1757
VWidth: 1433
GlyphClass: 1
Flags: W
LayerCount: 2
Fore
SplineSet
190 0 m 1,0,-1
 190 1417 l 1,1,-1
 418 1417 l 1,2,-1
 819 345 l 2,3,4
 850 263 850 263 888 147 c 1,5,6
 919 242 919 242 956 345 c 2,7,-1
 1347 1417 l 1,8,-1
 1566 1417 l 1,9,-1
 1566 0 l 1,10,-1
 1402 0 l 1,11,-1
 1402 1180 l 1,12,13
 1327 940 1327 940 1282 818 c 2,14,-1
 976 0 l 1,15,-1
 786 0 l 1,16,-1
 474 809 l 2,17,18
 423 941 423 941 346 1180 c 1,19,-1
 346 0 l 1,20,-1
 190 0 l 1,0,-1
EndSplineSet
EndChar

StartChar: Nu
Encoding: 925 925 371
Width: 1425
VWidth: 1433
GlyphClass: 1
Flags: W
LayerCount: 2
Fore
SplineSet
190 0 m 1,0,-1
 190 1417 l 1,1,-1
 379 1417 l 1,2,-1
 924 515 l 2,3,4
 976 428 976 428 1053 287 c 2,5,-1
 1082 233 l 1,6,7
 1078 323 1078 323 1078 443 c 2,8,-1
 1078 1417 l 1,9,-1
 1234 1417 l 1,10,-1
 1234 0 l 1,11,-1
 1043 0 l 1,12,-1
 493 911 l 2,13,14
 416 1038 416 1038 342 1182 c 1,15,16
 346 1077 346 1077 346 915 c 2,17,-1
 346 0 l 1,18,-1
 190 0 l 1,0,-1
EndSplineSet
EndChar

StartChar: Xi
Encoding: 926 926 372
Width: 1221
VWidth: 1433
GlyphClass: 1
Flags: W
LayerCount: 2
Fore
SplineSet
141 0 m 1,0,-1
 141 135 l 1,1,-1
 1079 135 l 1,2,-1
 1079 0 l 1,3,-1
 141 0 l 1,0,-1
260 651 m 1,4,-1
 260 786 l 1,5,-1
 960 786 l 1,6,-1
 960 651 l 1,7,-1
 260 651 l 1,4,-1
172 1282 m 1,8,-1
 172 1417 l 1,9,-1
 1048 1417 l 1,10,-1
 1048 1282 l 1,11,-1
 172 1282 l 1,8,-1
EndSplineSet
EndChar

StartChar: Omicron
Encoding: 927 927 373
Width: 1487
VWidth: 1433
GlyphClass: 1
Flags: W
LayerCount: 2
Fore
SplineSet
751 1438 m 0,0,1
 1045 1438 1045 1438 1209 1221 c 0,2,3
 1370 1008 1370 1008 1370 709 c 0,4,5
 1370 379 1370 379 1182 164 c 0,6,7
 1022 -20 1022 -20 743 -20 c 0,8,9
 443 -20 443 -20 278 197 c 0,10,11
 117 409 117 409 117 710 c 0,12,13
 117 1040 117 1040 305 1254 c 0,14,15
 466 1438 466 1438 751 1438 c 0,0,1
738 1303 m 0,16,17
 524 1303 524 1303 401 1127 c 0,18,19
 291 969 291 969 291 709 c 0,20,21
 291 424 291 424 422 263 c 0,22,23
 544 115 544 115 744 115 c 0,24,25
 962 115 962 115 1085 291 c 0,26,27
 1196 449 1196 449 1196 710 c 0,28,29
 1196 994 1196 994 1065 1155 c 0,30,31
 943 1303 943 1303 738 1303 c 0,16,17
EndSplineSet
EndChar

StartChar: Pi
Encoding: 928 928 374
Width: 1378
VWidth: 1433
GlyphClass: 1
Flags: W
LayerCount: 2
Fore
SplineSet
211 0 m 1,0,-1
 211 1282 l 1,1,-1
 92 1282 l 1,2,-1
 92 1417 l 1,3,-1
 1286 1417 l 1,4,-1
 1286 1282 l 1,5,-1
 1167 1282 l 1,6,-1
 1167 0 l 1,7,-1
 1003 0 l 1,8,-1
 1003 1282 l 1,9,-1
 375 1282 l 1,10,-1
 375 0 l 1,11,-1
 211 0 l 1,0,-1
EndSplineSet
EndChar

StartChar: Rho
Encoding: 929 929 375
Width: 1055
VWidth: 1433
GlyphClass: 1
Flags: W
LayerCount: 2
Fore
SplineSet
190 0 m 1,0,-1
 190 1417 l 1,1,-1
 464 1417 l 2,2,3
 718 1417 718 1417 835 1342 c 0,4,5
 999 1238 999 1238 999 1004 c 0,6,7
 999 852 999 852 919 751 c 0,8,9
 840 653 840 653 690 619 c 0,10,11
 592 598 592 598 445 598 c 2,12,-1
 354 598 l 1,13,-1
 354 0 l 1,14,-1
 190 0 l 1,0,-1
354 733 m 1,15,-1
 421 733 l 2,16,17
 626 733 626 733 709 775 c 0,18,19
 825 834 825 834 825 1004 c 0,20,21
 825 1158 825 1158 724 1227 c 0,22,23
 645 1282 645 1282 447 1282 c 2,24,-1
 354 1282 l 1,25,-1
 354 733 l 1,15,-1
EndSplineSet
EndChar

StartChar: Sigma
Encoding: 931 931 376
Width: 1102
VWidth: 1433
GlyphClass: 1
Flags: W
LayerCount: 2
Fore
SplineSet
100 0 m 1,0,-1
 100 135 l 1,1,-1
 586 734 l 1,2,-1
 120 1282 l 1,3,-1
 120 1417 l 1,4,-1
 993 1417 l 1,5,-1
 993 1282 l 1,6,-1
 307 1282 l 1,7,-1
 747 773 l 1,8,-1
 747 699 l 1,9,-1
 277 135 l 1,10,-1
 1034 135 l 1,11,-1
 1034 0 l 1,12,-1
 100 0 l 1,0,-1
EndSplineSet
EndChar

StartChar: Tau
Encoding: 932 932 377
Width: 1067
VWidth: 1433
GlyphClass: 1
Flags: W
LayerCount: 2
Fore
SplineSet
449 0 m 1,0,-1
 449 1282 l 1,1,-1
 35 1282 l 1,2,-1
 35 1417 l 1,3,-1
 1033 1417 l 1,4,-1
 1033 1282 l 1,5,-1
 613 1282 l 1,6,-1
 613 0 l 1,7,-1
 449 0 l 1,0,-1
EndSplineSet
EndChar

StartChar: Upsilon
Encoding: 933 933 378
Width: 1159
VWidth: 1433
GlyphClass: 1
Flags: W
LayerCount: 2
Fore
SplineSet
498 0 m 1,0,-1
 498 638 l 1,1,-1
 2 1417 l 1,2,-1
 195 1417 l 1,3,-1
 490 946 l 2,4,5
 544 861 544 861 587 780 c 1,6,7
 649 892 649 892 686 951 c 2,8,-1
 977 1417 l 1,9,-1
 1157 1417 l 1,10,-1
 662 638 l 1,11,-1
 662 0 l 1,12,-1
 498 0 l 1,0,-1
EndSplineSet
EndChar

StartChar: Phi
Encoding: 934 934 379
Width: 1673
VWidth: 1433
GlyphClass: 1
Flags: W
LayerCount: 2
Fore
SplineSet
760 -61 m 1,0,-1
 760 114 l 1,1,2
 549 128 549 128 402 213 c 0,3,4
 254 297 254 297 179 443 c 0,5,6
 117 564 117 564 117 709 c 0,7,8
 117 916 117 916 241 1068 c 0,9,10
 413 1280 413 1280 760 1303 c 1,11,-1
 760 1479 l 1,12,-1
 914 1479 l 1,13,-1
 914 1303 l 1,14,15
 1125 1289 1125 1289 1272 1205 c 0,16,17
 1420 1120 1420 1120 1495 974 c 0,18,19
 1557 853 1557 853 1557 709 c 0,20,21
 1557 501 1557 501 1433 349 c 0,22,23
 1262 137 1262 137 914 114 c 1,24,-1
 914 -61 l 1,25,-1
 760 -61 l 1,0,-1
914 240 m 1,26,27
 1050 252 1050 252 1165 313 c 0,28,29
 1389 434 1389 434 1389 709 c 0,30,31
 1389 983 1389 983 1165 1104 c 0,32,33
 1050 1166 1050 1166 914 1177 c 1,34,-1
 914 240 l 1,26,27
760 240 m 1,35,-1
 760 1177 l 1,36,37
 623 1165 623 1165 509 1104 c 0,38,39
 285 983 285 983 285 709 c 0,40,41
 285 434 285 434 509 313 c 0,42,43
 623 252 623 252 760 240 c 1,35,-1
EndSplineSet
EndChar

StartChar: Chi
Encoding: 935 935 380
Width: 1272
VWidth: 1433
GlyphClass: 1
Flags: W
LayerCount: 2
Fore
SplineSet
25 0 m 1,0,-1
 536 730 l 1,1,-1
 80 1417 l 1,2,-1
 270 1417 l 1,3,-1
 641 858 l 1,4,-1
 1020 1417 l 1,5,-1
 1200 1417 l 1,6,-1
 731 726 l 1,7,-1
 1216 0 l 1,8,-1
 1020 0 l 1,9,-1
 628 594 l 1,10,-1
 217 0 l 1,11,-1
 25 0 l 1,0,-1
EndSplineSet
EndChar

StartChar: Psi
Encoding: 936 936 381
Width: 1645
VWidth: 1433
GlyphClass: 1
Flags: W
LayerCount: 2
Fore
SplineSet
740 0 m 1,0,-1
 740 392 l 1,1,-1
 668 392 l 2,2,3
 492 392 492 392 397 430 c 0,4,5
 204 509 204 509 152 697 c 0,6,7
 129 781 129 781 129 1038 c 2,8,-1
 129 1417 l 1,9,-1
 293 1417 l 1,10,-1
 293 969 l 2,11,12
 293 799 293 799 327 708 c 0,13,14
 374 581 374 581 496 545 c 0,15,16
 560 527 560 527 670 527 c 2,17,-1
 740 527 l 1,18,-1
 740 1417 l 1,19,-1
 904 1417 l 1,20,-1
 904 527 l 1,21,-1
 974 527 l 2,22,23
 1159 527 1159 527 1237 592 c 0,24,25
 1315 656 1315 656 1340 785 c 0,26,27
 1352 850 1352 850 1352 969 c 2,28,-1
 1352 1417 l 1,29,-1
 1516 1417 l 1,30,-1
 1516 1038 l 2,31,32
 1516 780 1516 780 1493 697 c 0,33,34
 1441 508 1441 508 1248 430 c 0,35,36
 1153 392 1153 392 977 392 c 2,37,-1
 904 392 l 1,38,-1
 904 0 l 1,39,-1
 740 0 l 1,0,-1
EndSplineSet
EndChar

StartChar: uni03A9
Encoding: 937 937 382
Width: 1569
VWidth: 1433
GlyphClass: 1
Flags: W
LayerCount: 2
Fore
SplineSet
125 0 m 1,0,-1
 125 135 l 1,1,-1
 549 135 l 1,2,-1
 549 211 l 1,3,4
 368 277 368 277 284 361 c 0,5,6
 117 529 117 529 117 800 c 0,7,8
 117 1091 117 1091 318 1277 c 0,9,10
 491 1438 491 1438 785 1438 c 0,11,12
 1103 1438 1103 1438 1281 1248 c 0,13,14
 1452 1065 1452 1065 1452 800 c 0,15,16
 1452 501 1452 501 1255 333 c 0,17,18
 1181 270 1181 270 1020 211 c 1,19,-1
 1020 135 l 1,20,-1
 1444 135 l 1,21,-1
 1444 0 l 1,22,-1
 878 0 l 1,23,-1
 878 312 l 1,24,25
 1052 355 1052 355 1140 439 c 0,26,27
 1278 569 1278 569 1278 793 c 0,28,29
 1278 1043 1278 1043 1133 1178 c 0,30,31
 999 1303 999 1303 785 1303 c 0,32,33
 548 1303 548 1303 412 1154 c 0,34,35
 291 1022 291 1022 291 793 c 0,36,37
 291 547 291 547 455 415 c 0,38,39
 537 350 537 350 691 312 c 1,40,-1
 691 0 l 1,41,-1
 125 0 l 1,0,-1
EndSplineSet
EndChar

StartChar: Iotadieresis
Encoding: 938 938 383
Width: 586
VWidth: 1433
GlyphClass: 1
Flags: W
LayerCount: 2
Fore
SplineSet
211 0 m 1,0,-1
 211 1417 l 1,1,-1
 375 1417 l 1,2,-1
 375 0 l 1,3,-1
 211 0 l 1,0,-1
100 1802 m 0,4,5
 152 1802 152 1802 182 1764 c 0,6,7
 205 1736 205 1736 205 1695 c 0,8,9
 205 1655 205 1655 182 1627 c 0,10,11
 153 1589 153 1589 99 1589 c 0,12,13
 44 1589 44 1589 15 1628 c 0,14,15
 -8 1657 -8 1657 -8 1698 c 0,16,17
 -8 1738 -8 1738 15 1765 c 0,18,19
 45 1802 45 1802 100 1802 c 0,4,5
489 1802 m 0,20,21
 541 1802 541 1802 571 1764 c 0,22,23
 594 1736 594 1736 594 1695 c 0,24,25
 594 1655 594 1655 571 1627 c 0,26,27
 542 1589 542 1589 488 1589 c 0,28,29
 433 1589 433 1589 404 1628 c 0,30,31
 381 1657 381 1657 381 1698 c 0,32,33
 381 1738 381 1738 404 1765 c 0,34,35
 434 1802 434 1802 489 1802 c 0,20,21
EndSplineSet
EndChar

StartChar: Upsilondieresis
Encoding: 939 939 384
Width: 1159
VWidth: 1433
GlyphClass: 1
Flags: W
LayerCount: 2
Fore
SplineSet
498 0 m 1,0,-1
 498 638 l 1,1,-1
 2 1417 l 1,2,-1
 195 1417 l 1,3,-1
 490 946 l 2,4,5
 544 861 544 861 587 780 c 1,6,7
 649 892 649 892 686 951 c 2,8,-1
 977 1417 l 1,9,-1
 1157 1417 l 1,10,-1
 662 638 l 1,11,-1
 662 0 l 1,12,-1
 498 0 l 1,0,-1
386 1802 m 0,13,14
 438 1802 438 1802 468 1764 c 0,15,16
 491 1736 491 1736 491 1695 c 0,17,18
 491 1655 491 1655 468 1627 c 0,19,20
 438 1589 438 1589 384 1589 c 256,21,22
 330 1589 330 1589 300 1628 c 0,23,24
 278 1657 278 1657 278 1698 c 0,25,26
 278 1738 278 1738 300 1765 c 0,27,28
 331 1802 331 1802 386 1802 c 0,13,14
775 1802 m 0,29,30
 828 1802 828 1802 858 1764 c 0,31,32
 881 1736 881 1736 881 1695 c 0,33,34
 881 1655 881 1655 858 1627 c 0,35,36
 828 1589 828 1589 774 1589 c 256,37,38
 720 1589 720 1589 690 1628 c 0,39,40
 668 1657 668 1657 668 1698 c 0,41,42
 668 1738 668 1738 690 1765 c 0,43,44
 721 1802 721 1802 775 1802 c 0,29,30
EndSplineSet
EndChar

StartChar: alphatonos
Encoding: 940 940 385
Width: 1194
VWidth: 1433
GlyphClass: 1
Flags: W
LayerCount: 2
Fore
SplineSet
884 228 m 1,0,1
 823 111 823 111 762 60 c 0,2,3
 664 -21 664 -21 510 -21 c 0,4,5
 293 -21 293 -21 191 146 c 0,6,7
 106 283 106 283 106 509 c 0,8,9
 106 784 106 784 231 929 c 0,10,11
 343 1059 343 1059 522 1059 c 0,12,13
 686 1059 686 1059 789 947 c 0,14,15
 830 902 830 902 871 816 c 1,16,17
 881 920 881 920 903 1047 c 1,18,-1
 1053 1026 l 1,19,20
 1009 792 1009 792 1009 527 c 0,21,22
 1009 232 1009 232 1094 13 c 1,23,-1
 936 -20 l 1,24,25
 906 81 906 81 884 228 c 1,0,1
854 389 m 1,26,-1
 854 575 l 1,27,28
 758 934 758 934 535 934 c 0,29,30
 399 934 399 934 337 824 c 0,31,32
 270 705 270 705 270 509 c 0,33,34
 270 104 270 104 534 104 c 0,35,36
 748 104 748 104 854 389 c 1,26,-1
605 1518 m 1,37,-1
 791 1518 l 1,38,-1
 605 1182 l 1,39,-1
 498 1182 l 1,40,-1
 605 1518 l 1,37,-1
EndSplineSet
EndChar

StartChar: epsilontonos
Encoding: 941 941 386
Width: 989
VWidth: 1433
GlyphClass: 1
Flags: W
LayerCount: 2
Fore
SplineSet
272 477 m 1,0,1
 293 105 293 105 593 105 c 0,2,3
 737 105 737 105 864 187 c 1,4,-1
 924 68 l 1,5,6
 780 -20 780 -20 594 -20 c 0,7,8
 359 -20 359 -20 233 114 c 0,9,10
 106 249 106 249 106 505 c 0,11,12
 106 785 106 785 239 933 c 0,13,14
 353 1059 353 1059 564 1059 c 0,15,16
 731 1059 731 1059 901 972 c 1,17,-1
 843 852 l 1,18,19
 708 934 708 934 575 934 c 0,20,21
 296 934 296 934 272 602 c 1,22,-1
 795 602 l 1,23,-1
 795 477 l 1,24,-1
 272 477 l 1,0,1
586 1518 m 1,25,-1
 772 1518 l 1,26,-1
 586 1182 l 1,27,-1
 478 1182 l 1,28,-1
 586 1518 l 1,25,-1
EndSplineSet
EndChar

StartChar: etatonos
Encoding: 942 942 387
Width: 1190
VWidth: 1433
GlyphClass: 1
Flags: W
LayerCount: 2
Fore
SplineSet
184 0 m 1,0,-1
 184 700 l 2,1,2
 184 937 184 937 176 1038 c 1,3,-1
 330 1038 l 1,4,-1
 336 873 l 1,5,6
 394 935 394 935 446 973 c 0,7,8
 562 1059 562 1059 707 1059 c 0,9,10
 900 1059 900 1059 972 915 c 0,11,12
 1014 829 1014 829 1014 600 c 2,13,-1
 1014 -440 l 1,14,-1
 858 -440 l 1,15,-1
 858 603 l 2,16,17
 858 759 858 759 837 823 c 0,18,19
 799 934 799 934 663 934 c 0,20,21
 498 934 498 934 340 739 c 1,22,-1
 340 0 l 1,23,-1
 184 0 l 1,0,-1
634 1518 m 1,24,-1
 820 1518 l 1,25,-1
 634 1182 l 1,26,-1
 527 1182 l 1,27,-1
 634 1518 l 1,24,-1
EndSplineSet
EndChar

StartChar: iotatonos
Encoding: 943 943 388
Width: 635
VWidth: 1433
GlyphClass: 1
Flags: W
LayerCount: 2
Fore
SplineSet
195 1038 m 1,0,-1
 351 1038 l 1,1,-1
 351 307 l 2,2,3
 351 193 351 193 378 155 c 0,4,5
 409 111 409 111 476 111 c 0,6,7
 515 111 515 111 569 123 c 1,8,-1
 586 -7 l 1,9,10
 519 -20 519 -20 458 -20 c 0,11,12
 272 -20 272 -20 219 117 c 0,13,14
 195 179 195 179 195 399 c 2,15,-1
 195 1038 l 1,0,-1
333 1518 m 1,16,-1
 520 1518 l 1,17,-1
 333 1182 l 1,18,-1
 226 1182 l 1,19,-1
 333 1518 l 1,16,-1
EndSplineSet
EndChar

StartChar: upsilondieresistonos
Encoding: 944 944 389
Width: 1171
VWidth: 1433
GlyphClass: 1
Flags: W
LayerCount: 2
Fore
SplineSet
176 1038 m 1,0,-1
 332 1038 l 1,1,-1
 332 507 l 2,2,3
 332 319 332 319 357 241 c 0,4,5
 385 156 385 156 452 127 c 0,6,7
 504 105 504 105 587 105 c 0,8,9
 711 105 711 105 765 157 c 0,10,11
 820 209 820 209 832 331 c 0,12,13
 839 401 839 401 839 507 c 2,14,-1
 839 1038 l 1,15,-1
 995 1038 l 1,16,-1
 995 507 l 2,17,18
 995 248 995 248 949 146 c 256,19,20
 903 44 903 44 789 6 c 0,21,22
 710 -20 710 -20 587 -20 c 0,23,24
 393 -20 393 -20 299 48 c 0,25,26
 208 114 208 114 189 261 c 0,27,28
 176 361 176 361 176 507 c 2,29,-1
 176 1038 l 1,0,-1
363 1441 m 0,30,31
 410 1441 410 1441 436 1408 c 0,32,33
 456 1383 456 1383 456 1347 c 256,34,35
 456 1311 456 1311 436 1286 c 0,36,37
 410 1253 410 1253 363 1253 c 0,38,39
 314 1253 314 1253 288 1287 c 0,40,41
 268 1314 268 1314 268 1349 c 0,42,43
 268 1385 268 1385 288 1409 c 0,44,45
 314 1441 314 1441 363 1441 c 0,30,31
810 1441 m 0,46,47
 857 1441 857 1441 883 1408 c 0,48,49
 903 1383 903 1383 903 1347 c 256,50,51
 903 1311 903 1311 883 1286 c 0,52,53
 857 1253 857 1253 810 1253 c 0,54,55
 761 1253 761 1253 735 1287 c 0,56,57
 715 1314 715 1314 715 1349 c 0,58,59
 715 1385 715 1385 735 1409 c 0,60,61
 761 1441 761 1441 810 1441 c 0,46,47
530 1184 m 1,62,-1
 502 1521 l 1,63,-1
 669 1521 l 1,64,-1
 641 1184 l 1,65,-1
 530 1184 l 1,62,-1
EndSplineSet
EndChar

StartChar: alpha
Encoding: 945 945 390
Width: 1194
VWidth: 1433
GlyphClass: 1
Flags: W
LayerCount: 2
Fore
SplineSet
884 228 m 1,0,1
 823 111 823 111 762 60 c 0,2,3
 664 -21 664 -21 510 -21 c 0,4,5
 293 -21 293 -21 191 146 c 0,6,7
 106 283 106 283 106 509 c 0,8,9
 106 784 106 784 231 929 c 0,10,11
 343 1059 343 1059 522 1059 c 0,12,13
 686 1059 686 1059 789 947 c 0,14,15
 830 902 830 902 871 816 c 1,16,17
 881 920 881 920 903 1047 c 1,18,-1
 1053 1026 l 1,19,20
 1009 792 1009 792 1009 527 c 0,21,22
 1009 232 1009 232 1094 13 c 1,23,-1
 936 -20 l 1,24,25
 906 81 906 81 884 228 c 1,0,1
854 389 m 1,26,-1
 854 575 l 1,27,28
 758 934 758 934 535 934 c 0,29,30
 399 934 399 934 337 824 c 0,31,32
 270 705 270 705 270 509 c 0,33,34
 270 104 270 104 534 104 c 0,35,36
 748 104 748 104 854 389 c 1,26,-1
EndSplineSet
EndChar

StartChar: beta
Encoding: 946 946 391
Width: 1208
VWidth: 1433
GlyphClass: 1
Flags: W
LayerCount: 2
Fore
SplineSet
178 -440 m 1,0,-1
 178 1038 l 2,1,2
 178 1152 178 1152 187 1211 c 0,3,4
 211 1367 211 1367 342 1452 c 0,5,6
 444 1518 444 1518 596 1518 c 0,7,8
 790 1518 790 1518 908 1411 c 0,9,10
 1024 1307 1024 1307 1024 1150 c 0,11,12
 1024 982 1024 982 902 890 c 0,13,14
 827 835 827 835 720 823 c 1,15,16
 880 820 880 820 975 737 c 0,17,18
 1102 625 1102 625 1102 428 c 0,19,20
 1102 239 1102 239 991 116 c 0,21,22
 867 -21 867 -21 654 -21 c 0,23,24
 521 -21 521 -21 416 51 c 0,25,26
 382 74 382 74 334 118 c 1,27,-1
 334 -440 l 1,28,-1
 178 -440 l 1,0,-1
334 251 m 1,29,30
 488 108 488 108 641 108 c 0,31,32
 772 108 772 108 852 189 c 0,33,34
 938 274 938 274 938 430 c 0,35,36
 938 598 938 598 832 682 c 0,37,38
 740 756 740 756 600 756 c 0,39,40
 587 756 587 756 561 755 c 1,41,-1
 561 880 l 1,42,43
 688 884 688 884 757 934 c 0,44,45
 860 1008 860 1008 860 1147 c 0,46,47
 860 1247 860 1247 797 1314 c 0,48,49
 722 1393 722 1393 597 1393 c 0,50,51
 432 1393 432 1393 369 1270 c 0,52,53
 334 1203 334 1203 334 1022 c 2,54,-1
 334 251 l 1,29,30
EndSplineSet
EndChar

StartChar: gamma
Encoding: 947 947 392
Width: 1020
VWidth: 1433
GlyphClass: 1
Flags: W
LayerCount: 2
Fore
SplineSet
431 -440 m 1,0,-1
 431 -164 l 2,1,2
 431 67 431 67 382 236 c 0,3,4
 310 481 310 481 32 982 c 1,5,-1
 161 1057 l 1,6,7
 442 571 442 571 514 302 c 1,8,9
 593 582 593 582 867 1057 c 1,10,-1
 988 985 l 1,11,12
 819 686 819 686 707 430 c 0,13,14
 630 252 630 252 605 98 c 0,15,16
 587 -17 587 -17 587 -164 c 2,17,-1
 587 -440 l 1,18,-1
 431 -440 l 1,0,-1
EndSplineSet
EndChar

StartChar: delta
Encoding: 948 948 393
Width: 1145
VWidth: 1433
GlyphClass: 1
Flags: W
LayerCount: 2
Fore
SplineSet
450 1003 m 1,0,1
 357 1053 357 1053 322 1082 c 0,2,3
 229 1162 229 1162 229 1272 c 0,4,5
 229 1518 229 1518 566 1518 c 0,6,7
 736 1518 736 1518 934 1456 c 1,8,-1
 897 1328 l 1,9,10
 739 1393 739 1393 563 1393 c 0,11,12
 378 1393 378 1393 378 1273 c 0,13,14
 378 1213 378 1213 428 1171 c 0,15,16
 472 1134 472 1134 629 1056 c 0,17,18
 778 982 778 982 847 928 c 0,19,20
 1038 777 1038 777 1038 489 c 0,21,22
 1038 258 1038 258 909 119 c 256,23,24
 780 -20 780 -20 575 -20 c 0,25,26
 341 -20 341 -20 214 133 c 0,27,28
 106 262 106 262 106 483 c 0,29,30
 106 889 106 889 450 1003 c 1,0,1
556 946 m 1,31,32
 270 866 270 866 270 475 c 0,33,34
 270 316 270 316 340 218 c 0,35,36
 422 105 422 105 575 105 c 0,37,38
 736 105 736 105 817 242 c 0,39,40
 874 339 874 339 874 481 c 0,41,42
 874 637 874 637 812 747 c 0,43,44
 776 812 776 812 711 858 c 0,45,46
 680 880 680 880 606 919 c 0,47,48
 594 926 594 926 556 946 c 1,31,32
EndSplineSet
EndChar

StartChar: epsilon
Encoding: 949 949 394
Width: 989
VWidth: 1433
GlyphClass: 1
Flags: W
LayerCount: 2
Fore
SplineSet
272 477 m 1,0,1
 293 105 293 105 593 105 c 0,2,3
 737 105 737 105 864 187 c 1,4,-1
 924 68 l 1,5,6
 780 -20 780 -20 594 -20 c 0,7,8
 359 -20 359 -20 233 114 c 0,9,10
 106 249 106 249 106 505 c 0,11,12
 106 785 106 785 239 933 c 0,13,14
 353 1059 353 1059 564 1059 c 0,15,16
 731 1059 731 1059 901 972 c 1,17,-1
 843 852 l 1,18,19
 708 934 708 934 575 934 c 0,20,21
 296 934 296 934 272 602 c 1,22,-1
 795 602 l 1,23,-1
 795 477 l 1,24,-1
 272 477 l 1,0,1
EndSplineSet
EndChar

StartChar: zeta
Encoding: 950 950 395
Width: 801
VWidth: 1433
GlyphClass: 1
Flags: W
LayerCount: 2
Fore
SplineSet
129 1386 m 1,0,-1
 138 1511 l 1,1,2
 267 1497 267 1497 455 1497 c 2,3,-1
 798 1497 l 1,4,-1
 798 1340 l 1,5,6
 612 1134 612 1134 509 984 c 0,7,8
 372 784 372 784 319 637 c 0,9,10
 268 495 268 495 268 359 c 0,11,12
 268 261 268 261 297 210 c 0,13,14
 328 155 328 155 440 129 c 0,15,16
 635 84 635 84 687 52 c 0,17,18
 786 -9 786 -9 786 -154 c 0,19,20
 786 -295 786 -295 694 -469 c 1,21,-1
 565 -412 l 1,22,23
 636 -261 636 -261 636 -178 c 0,24,25
 636 -100 636 -100 592 -62 c 0,26,27
 562 -36 562 -36 457 -13 c 0,28,29
 346 11 346 11 315 21 c 0,30,31
 106 84 106 84 106 342 c 0,32,33
 106 812 106 812 683 1372 c 1,34,-1
 488 1372 l 2,35,36
 276 1372 276 1372 129 1386 c 1,0,-1
EndSplineSet
EndChar

StartChar: eta
Encoding: 951 951 396
Width: 1190
VWidth: 1433
GlyphClass: 1
Flags: W
LayerCount: 2
Fore
SplineSet
184 0 m 1,0,-1
 184 700 l 2,1,2
 184 937 184 937 176 1038 c 1,3,-1
 330 1038 l 1,4,-1
 336 873 l 1,5,6
 394 935 394 935 446 973 c 0,7,8
 562 1059 562 1059 707 1059 c 0,9,10
 900 1059 900 1059 972 915 c 0,11,12
 1014 829 1014 829 1014 600 c 2,13,-1
 1014 -440 l 1,14,-1
 858 -440 l 1,15,-1
 858 603 l 2,16,17
 858 759 858 759 837 823 c 0,18,19
 799 934 799 934 663 934 c 0,20,21
 498 934 498 934 340 739 c 1,22,-1
 340 0 l 1,23,-1
 184 0 l 1,0,-1
EndSplineSet
EndChar

StartChar: theta
Encoding: 952 952 397
Width: 1174
VWidth: 1433
GlyphClass: 1
Flags: W
LayerCount: 2
Fore
SplineSet
593 1518 m 0,0,1
 819 1518 819 1518 945 1271 c 0,2,3
 1049 1069 1049 1069 1049 745 c 0,4,5
 1049 404 1049 404 931 194 c 0,6,7
 810 -20 810 -20 587 -20 c 0,8,9
 348 -20 348 -20 227 225 c 0,10,11
 125 430 125 430 125 746 c 0,12,13
 125 1097 125 1097 245 1303 c 0,14,15
 371 1518 371 1518 593 1518 c 0,0,1
289 722 m 1,16,17
 291 546 291 546 323 406 c 0,18,19
 391 105 391 105 587 105 c 256,20,21
 783 105 783 105 851 406 c 0,22,23
 882 546 882 546 885 722 c 1,24,-1
 289 722 l 1,16,17
292 847 m 1,25,-1
 882 847 l 1,26,27
 873 987 873 987 849 1088 c 0,28,29
 778 1393 778 1393 587 1393 c 256,30,31
 396 1393 396 1393 324 1088 c 0,32,33
 301 987 301 987 292 847 c 1,25,-1
EndSplineSet
EndChar

StartChar: iota
Encoding: 953 953 398
Width: 635
VWidth: 1433
GlyphClass: 1
Flags: W
LayerCount: 2
Fore
SplineSet
195 1038 m 1,0,-1
 351 1038 l 1,1,-1
 351 307 l 2,2,3
 351 193 351 193 378 155 c 0,4,5
 409 111 409 111 476 111 c 0,6,7
 515 111 515 111 569 123 c 1,8,-1
 586 -7 l 1,9,10
 519 -20 519 -20 458 -20 c 0,11,12
 272 -20 272 -20 219 117 c 0,13,14
 195 179 195 179 195 399 c 2,15,-1
 195 1038 l 1,0,-1
EndSplineSet
EndChar

StartChar: kappa
Encoding: 954 954 399
Width: 1053
VWidth: 1433
GlyphClass: 1
Flags: W
LayerCount: 2
Fore
SplineSet
184 0 m 1,0,-1
 184 1038 l 1,1,-1
 340 1038 l 1,2,-1
 340 598 l 1,3,-1
 803 1038 l 1,4,-1
 1006 1038 l 1,5,-1
 507 571 l 1,6,-1
 1028 0 l 1,7,-1
 833 0 l 1,8,-1
 340 536 l 1,9,-1
 340 0 l 1,10,-1
 184 0 l 1,0,-1
EndSplineSet
EndChar

StartChar: lambda
Encoding: 955 955 400
Width: 1020
VWidth: 1433
GlyphClass: 1
Flags: W
LayerCount: 2
Fore
SplineSet
11 10 m 1,0,-1
 449 1056 l 1,1,-1
 428 1112 l 2,2,3
 371 1261 371 1261 325 1314 c 0,4,5
 276 1370 276 1370 164 1383 c 1,6,-1
 184 1522 l 1,7,8
 335 1514 335 1514 422 1436 c 0,9,10
 496 1369 496 1369 565 1176 c 2,11,-1
 839 408 l 2,12,13
 896 247 896 247 945 166 c 0,14,15
 972 121 972 121 1018 69 c 1,16,-1
 893 -29 l 1,17,18
 840 18 840 18 799 94 c 0,19,20
 757 172 757 172 683 386 c 2,21,-1
 601 621 l 2,22,23
 555 754 555 754 517 875 c 1,24,25
 473 752 473 752 383 529 c 2,26,-1
 154 -33 l 1,27,-1
 11 10 l 1,0,-1
EndSplineSet
EndChar

StartChar: uni03BC
Encoding: 956 956 401
Width: 1196
VWidth: 1433
GlyphClass: 1
Flags: W
LayerCount: 2
Fore
SplineSet
190 -440 m 1,0,-1
 190 1038 l 1,1,-1
 346 1038 l 1,2,-1
 346 493 l 2,3,4
 346 311 346 311 372 235 c 0,5,6
 417 105 417 105 568 105 c 0,7,8
 672 105 672 105 762 190 c 0,9,10
 810 235 810 235 855 299 c 1,11,-1
 855 1038 l 1,12,-1
 1011 1038 l 1,13,-1
 1011 338 l 2,14,15
 1011 96 1011 96 1019 0 c 1,16,-1
 865 0 l 1,17,-1
 859 166 l 1,18,19
 714 -20 714 -20 552 -20 c 0,20,21
 427 -20 427 -20 346 81 c 1,22,-1
 346 -440 l 1,23,-1
 190 -440 l 1,0,-1
EndSplineSet
EndChar

StartChar: nu
Encoding: 957 957 402
Width: 1020
VWidth: 1433
GlyphClass: 1
Flags: W
LayerCount: 2
Fore
SplineSet
412 0 m 1,0,-1
 39 1038 l 1,1,-1
 203 1038 l 1,2,-1
 457 336 l 2,3,4
 490 248 490 248 524 139 c 1,5,6
 551 228 551 228 587 330 c 2,7,-1
 838 1038 l 1,8,-1
 981 1038 l 1,9,-1
 612 0 l 1,10,-1
 412 0 l 1,0,-1
EndSplineSet
EndChar

StartChar: xi
Encoding: 958 958 403
Width: 915
VWidth: 1433
GlyphClass: 1
Flags: W
LayerCount: 2
Fore
SplineSet
143 1378 m 1,0,-1
 152 1507 l 1,1,2
 381 1497 381 1497 487 1497 c 2,3,-1
 881 1497 l 1,4,-1
 881 1372 l 1,5,-1
 838 1372 l 2,6,7
 369 1372 369 1372 369 1112 c 0,8,9
 369 1018 369 1018 431 951 c 0,10,11
 507 870 507 870 682 870 c 2,12,-1
 801 870 l 1,13,-1
 801 745 l 1,14,-1
 698 745 l 2,15,16
 498 745 498 745 409 682 c 0,17,18
 289 596 289 596 289 414 c 0,19,20
 289 258 289 258 379 188 c 0,21,22
 428 149 428 149 565 121 c 0,23,24
 676 98 676 98 720 77 c 0,25,26
 860 12 860 12 860 -152 c 0,27,28
 860 -295 860 -295 768 -469 c 1,29,-1
 639 -412 l 1,30,31
 711 -259 711 -259 711 -171 c 0,32,33
 711 -99 711 -99 662 -57 c 0,34,35
 629 -30 629 -30 505 -5 c 0,36,37
 340 29 340 29 266 83 c 0,38,39
 125 187 125 187 125 410 c 0,40,41
 125 752 125 752 435 816 c 1,42,43
 349 841 349 841 299 886 c 0,44,45
 208 968 208 968 208 1091 c 0,46,47
 208 1222 208 1222 308 1303 c 0,48,49
 353 1339 353 1339 442 1372 c 1,50,-1
 372 1372 l 2,51,52
 263 1372 263 1372 143 1378 c 1,0,-1
EndSplineSet
EndChar

StartChar: omicron
Encoding: 959 959 404
Width: 1169
VWidth: 1433
GlyphClass: 1
Flags: W
LayerCount: 2
Fore
SplineSet
590 1059 m 0,0,1
 811 1059 811 1059 947 888 c 0,2,3
 1062 743 1062 743 1062 520 c 0,4,5
 1062 278 1062 278 929 130 c 0,6,7
 795 -20 795 -20 584 -20 c 0,8,9
 357 -20 357 -20 221 152 c 0,10,11
 106 296 106 296 106 521 c 0,12,13
 106 762 106 762 239 910 c 0,14,15
 373 1059 373 1059 590 1059 c 0,0,1
580 934 m 0,16,17
 415 934 415 934 330 781 c 0,18,19
 270 675 270 675 270 520 c 0,20,21
 270 348 270 348 342 238 c 0,22,23
 428 105 428 105 584 105 c 0,24,25
 752 105 752 105 838 258 c 0,26,27
 898 364 898 364 898 520 c 0,28,29
 898 692 898 692 826 802 c 0,30,31
 739 934 739 934 580 934 c 0,16,17
EndSplineSet
EndChar

StartChar: pi
Encoding: 960 960 405
Width: 1178
VWidth: 1433
GlyphClass: 1
Flags: W
LayerCount: 2
Fore
SplineSet
207 0 m 1,0,-1
 207 913 l 1,1,-1
 45 913 l 1,2,-1
 45 1038 l 1,3,-1
 1132 1038 l 1,4,-1
 1132 913 l 1,5,-1
 971 913 l 1,6,-1
 971 0 l 1,7,-1
 815 0 l 1,8,-1
 815 913 l 1,9,-1
 363 913 l 1,10,-1
 363 0 l 1,11,-1
 207 0 l 1,0,-1
EndSplineSet
EndChar

StartChar: rho
Encoding: 961 961 406
Width: 1202
VWidth: 1433
GlyphClass: 1
Flags: W
LayerCount: 2
Fore
SplineSet
340 125 m 1,0,-1
 340 -440 l 1,1,-1
 184 -440 l 1,2,-1
 184 461 l 2,3,4
 184 726 184 726 272 866 c 0,5,6
 394 1059 394 1059 640 1059 c 0,7,8
 865 1059 865 1059 989 887 c 0,9,10
 1096 739 1096 739 1096 515 c 0,11,12
 1096 287 1096 287 991 144 c 0,13,14
 871 -20 871 -20 653 -20 c 0,15,16
 456 -20 456 -20 340 125 c 1,0,-1
340 300 m 1,17,18
 441 105 441 105 638 105 c 0,19,20
 800 105 800 105 878 256 c 0,21,22
 932 362 932 362 932 518 c 0,23,24
 932 690 932 690 867 800 c 0,25,26
 787 934 787 934 639 934 c 0,27,28
 475 934 475 934 395 784 c 0,29,30
 340 680 340 680 340 523 c 2,31,-1
 340 300 l 1,17,18
EndSplineSet
EndChar

StartChar: sigma1
Encoding: 962 962 407
Width: 982
VWidth: 1433
GlyphClass: 1
Flags: W
LayerCount: 2
Fore
SplineSet
597 -412 m 1,0,1
 668 -249 668 -249 668 -163 c 0,2,3
 668 -118 668 -118 648 -90 c 0,4,5
 619 -50 619 -50 375 51 c 0,6,7
 236 109 236 109 171 211 c 256,8,9
 106 313 106 313 106 485 c 0,10,11
 106 780 106 780 260 931 c 0,12,13
 391 1059 391 1059 599 1059 c 0,14,15
 760 1059 760 1059 913 979 c 1,16,-1
 854 856 l 1,17,18
 728 934 728 934 600 934 c 0,19,20
 432 934 432 934 350 807 c 0,21,22
 270 683 270 683 270 489 c 0,23,24
 270 340 270 340 331 265 c 0,25,26
 381 202 381 202 533 139 c 0,27,28
 689 74 689 74 741 28 c 0,29,30
 818 -41 818 -41 818 -142 c 0,31,32
 818 -284 818 -284 727 -469 c 1,33,-1
 597 -412 l 1,0,1
EndSplineSet
EndChar

StartChar: sigma
Encoding: 963 963 408
Width: 1194
VWidth: 1433
GlyphClass: 1
Flags: W
LayerCount: 2
Fore
SplineSet
870 920 m 1,0,1
 1038 771 1038 771 1038 505 c 0,2,3
 1038 262 1038 262 924 123 c 0,4,5
 806 -21 806 -21 587 -21 c 0,6,7
 341 -21 341 -21 215 146 c 0,8,9
 106 289 106 289 106 520 c 0,10,11
 106 764 106 764 233 914 c 0,12,13
 356 1059 356 1059 557 1059 c 0,14,15
 620 1059 620 1059 731 1047 c 0,16,17
 815 1038 815 1038 848 1038 c 2,18,-1
 1095 1038 l 1,19,-1
 1095 911 l 1,20,-1
 870 920 l 1,0,1
564 934 m 0,21,22
 401 934 401 934 325 784 c 0,23,24
 270 676 270 676 270 519 c 0,25,26
 270 346 270 346 338 234 c 0,27,28
 417 104 417 104 585 104 c 0,29,30
 874 104 874 104 874 511 c 0,31,32
 874 686 874 686 806 798 c 0,33,34
 724 934 724 934 564 934 c 0,21,22
EndSplineSet
EndChar

StartChar: tau
Encoding: 964 964 409
Width: 885
VWidth: 1433
GlyphClass: 1
Flags: W
LayerCount: 2
Fore
SplineSet
320 913 m 1,0,-1
 2 913 l 1,1,-1
 2 1038 l 1,2,-1
 854 1038 l 1,3,-1
 854 913 l 1,4,-1
 476 913 l 1,5,-1
 476 342 l 2,6,7
 476 211 476 211 494 170 c 0,8,9
 521 109 521 109 603 109 c 0,10,11
 658 109 658 109 730 134 c 1,12,-1
 750 11 l 1,13,14
 650 -20 650 -20 569 -20 c 0,15,16
 419 -20 419 -20 362 70 c 0,17,18
 320 137 320 137 320 295 c 2,19,-1
 320 913 l 1,0,-1
EndSplineSet
EndChar

StartChar: upsilon
Encoding: 965 965 410
Width: 1171
VWidth: 1433
GlyphClass: 1
Flags: W
LayerCount: 2
Fore
SplineSet
176 1038 m 1,0,-1
 332 1038 l 1,1,-1
 332 507 l 2,2,3
 332 319 332 319 357 241 c 0,4,5
 385 156 385 156 452 127 c 0,6,7
 504 105 504 105 587 105 c 0,8,9
 711 105 711 105 765 157 c 0,10,11
 820 209 820 209 832 331 c 0,12,13
 839 401 839 401 839 507 c 2,14,-1
 839 1038 l 1,15,-1
 995 1038 l 1,16,-1
 995 507 l 2,17,18
 995 248 995 248 949 146 c 256,19,20
 903 44 903 44 789 6 c 0,21,22
 710 -20 710 -20 587 -20 c 0,23,24
 393 -20 393 -20 299 48 c 0,25,26
 208 114 208 114 189 261 c 0,27,28
 176 361 176 361 176 507 c 2,29,-1
 176 1038 l 1,0,-1
EndSplineSet
EndChar

StartChar: phi
Encoding: 966 966 411
Width: 1450
VWidth: 1433
GlyphClass: 1
Flags: W
LayerCount: 2
Fore
SplineSet
649 -440 m 1,0,-1
 649 -13 l 1,1,2
 414 15 414 15 295 97 c 0,3,4
 106 225 106 225 106 510 c 0,5,6
 106 928 106 928 481 1031 c 1,7,-1
 514 924 l 1,8,9
 403 875 403 875 357 823 c 0,10,11
 266 721 266 721 266 515 c 0,12,13
 266 130 266 130 649 102 c 1,14,-1
 649 1054 l 1,15,16
 688 1059 688 1059 739 1059 c 0,17,18
 1023 1059 1023 1059 1170 929 c 0,19,20
 1343 776 1343 776 1343 527 c 0,21,22
 1343 341 1343 341 1240 201 c 0,23,24
 1136 62 1136 62 940 12 c 0,25,26
 878 -4 878 -4 794 -13 c 1,27,-1
 794 -440 l 1,28,-1
 649 -440 l 1,0,-1
794 103 m 1,29,30
 944 117 944 117 1034 185 c 0,31,32
 1183 299 1183 299 1183 525 c 0,33,34
 1183 699 1183 699 1092 811 c 0,35,36
 988 940 988 940 794 947 c 1,37,-1
 794 103 l 1,29,30
EndSplineSet
EndChar

StartChar: chi
Encoding: 967 967 412
Width: 944
VWidth: 1433
GlyphClass: 1
Flags: W
LayerCount: 2
Fore
SplineSet
392 373 m 1,0,-1
 289 598 l 2,1,2
 219 750 219 750 158 819 c 0,3,4
 109 875 109 875 24 917 c 1,5,-1
 66 1055 l 1,6,7
 187 1007 187 1007 265 919 c 0,8,9
 341 833 341 833 426 648 c 2,10,-1
 496 495 l 1,11,-1
 772 1061 l 1,12,-1
 898 1004 l 1,13,-1
 570 336 l 1,14,-1
 744 -43 l 2,15,16
 817 -203 817 -203 864 -268 c 0,17,18
 900 -318 900 -318 946 -358 c 1,19,-1
 846 -469 l 1,20,21
 785 -416 785 -416 741 -353 c 0,22,23
 694 -284 694 -284 611 -102 c 2,24,-1
 465 215 l 1,25,-1
 112 -469 l 1,26,-1
 -14 -412 l 1,27,-1
 392 373 l 1,0,-1
EndSplineSet
EndChar

StartChar: psi
Encoding: 968 968 413
Width: 1454
VWidth: 1433
GlyphClass: 1
Flags: W
LayerCount: 2
Fore
SplineSet
653 -440 m 1,0,-1
 653 -20 l 1,1,2
 552 -15 552 -15 487 -7 c 0,3,4
 338 13 338 13 246 99 c 0,5,6
 125 211 125 211 125 517 c 0,7,8
 125 732 125 732 182 1051 c 1,9,-1
 329 1028 l 1,10,11
 281 734 281 734 281 535 c 0,12,13
 281 256 281 256 400 169 c 0,14,15
 482 110 482 110 653 105 c 1,16,-1
 653 1038 l 1,17,-1
 800 1038 l 1,18,-1
 800 105 l 1,19,20
 971 110 971 110 1053 169 c 0,21,22
 1172 256 1172 256 1172 535 c 0,23,24
 1172 734 1172 734 1124 1028 c 1,25,-1
 1271 1051 l 1,26,27
 1328 732 1328 732 1328 517 c 0,28,29
 1328 292 1328 292 1264 172 c 0,30,31
 1212 76 1212 76 1085 24 c 0,32,33
 995 -11 995 -11 800 -20 c 1,34,-1
 800 -440 l 1,35,-1
 653 -440 l 1,0,-1
EndSplineSet
EndChar

StartChar: omega
Encoding: 969 969 414
Width: 1428
VWidth: 1433
GlyphClass: 1
Flags: W
LayerCount: 2
Fore
SplineSet
714 165 m 1,0,1
 624 -20 624 -20 447 -20 c 0,2,3
 256 -20 256 -20 173 147 c 0,4,5
 106 280 106 280 106 491 c 0,6,7
 106 718 106 718 206 897 c 0,8,9
 249 973 249 973 324 1059 c 1,10,-1
 432 1016 l 1,11,12
 370 918 370 918 334 832 c 0,13,14
 271 678 271 678 271 489 c 0,15,16
 271 105 271 105 459 105 c 0,17,18
 572 105 572 105 614 212 c 0,19,20
 636 268 636 268 636 417 c 2,21,-1
 636 773 l 1,22,-1
 792 773 l 1,23,-1
 792 417 l 2,24,25
 792 255 792 255 821 197 c 0,26,27
 866 105 866 105 969 105 c 0,28,29
 1157 105 1157 105 1157 489 c 0,30,31
 1157 690 1157 690 1083 855 c 0,32,33
 1048 935 1048 935 996 1016 c 1,34,-1
 1104 1059 l 1,35,36
 1185 967 1185 967 1232 878 c 0,37,38
 1322 708 1322 708 1322 491 c 0,39,40
 1322 280 1322 280 1255 147 c 0,41,42
 1172 -20 1172 -20 981 -20 c 0,43,44
 804 -20 804 -20 714 165 c 1,0,1
EndSplineSet
EndChar

StartChar: iotadieresis
Encoding: 970 970 415
Width: 635
VWidth: 1433
GlyphClass: 1
Flags: W
LayerCount: 2
Fore
SplineSet
195 1038 m 1,0,-1
 351 1038 l 1,1,-1
 351 307 l 2,2,3
 351 193 351 193 378 155 c 0,4,5
 409 111 409 111 476 111 c 0,6,7
 515 111 515 111 569 123 c 1,8,-1
 586 -7 l 1,9,10
 519 -20 519 -20 458 -20 c 0,11,12
 272 -20 272 -20 219 117 c 0,13,14
 195 180 195 180 195 399 c 2,15,-1
 195 1038 l 1,0,-1
98 1454 m 0,16,17
 150 1454 150 1454 180 1416 c 0,18,19
 203 1388 203 1388 203 1347 c 0,20,21
 203 1307 203 1307 180 1279 c 0,22,23
 150 1241 150 1241 97 1241 c 0,24,25
 42 1241 42 1241 13 1280 c 0,26,27
 -10 1309 -10 1309 -10 1350 c 0,28,29
 -10 1390 -10 1390 13 1417 c 0,30,31
 43 1454 43 1454 98 1454 c 0,16,17
487 1454 m 0,32,33
 539 1454 539 1454 569 1416 c 0,34,35
 592 1388 592 1388 592 1347 c 0,36,37
 592 1307 592 1307 569 1279 c 0,38,39
 539 1241 539 1241 486 1241 c 0,40,41
 431 1241 431 1241 402 1280 c 0,42,43
 379 1309 379 1309 379 1350 c 0,44,45
 379 1390 379 1390 402 1417 c 0,46,47
 432 1454 432 1454 487 1454 c 0,32,33
EndSplineSet
EndChar

StartChar: upsilondieresis
Encoding: 971 971 416
Width: 1171
VWidth: 1433
GlyphClass: 1
Flags: W
LayerCount: 2
Fore
SplineSet
176 1038 m 1,0,-1
 332 1038 l 1,1,-1
 332 507 l 2,2,3
 332 319 332 319 357 241 c 0,4,5
 385 156 385 156 452 127 c 0,6,7
 504 105 504 105 587 105 c 0,8,9
 711 105 711 105 765 157 c 0,10,11
 820 209 820 209 832 331 c 0,12,13
 839 401 839 401 839 507 c 2,14,-1
 839 1038 l 1,15,-1
 995 1038 l 1,16,-1
 995 507 l 2,17,18
 995 248 995 248 949 146 c 256,19,20
 903 44 903 44 789 6 c 0,21,22
 710 -20 710 -20 587 -20 c 0,23,24
 393 -20 393 -20 299 48 c 0,25,26
 208 114 208 114 189 261 c 0,27,28
 176 361 176 361 176 507 c 2,29,-1
 176 1038 l 1,0,-1
393 1454 m 0,30,31
 445 1454 445 1454 475 1416 c 0,32,33
 498 1388 498 1388 498 1347 c 0,34,35
 498 1307 498 1307 475 1279 c 0,36,37
 445 1241 445 1241 392 1241 c 0,38,39
 337 1241 337 1241 307 1280 c 0,40,41
 285 1309 285 1309 285 1350 c 0,42,43
 285 1390 285 1390 307 1417 c 0,44,45
 338 1454 338 1454 393 1454 c 0,30,31
782 1454 m 0,46,47
 834 1454 834 1454 865 1416 c 0,48,49
 887 1388 887 1388 887 1347 c 0,50,51
 887 1307 887 1307 865 1279 c 0,52,53
 835 1241 835 1241 781 1241 c 0,54,55
 726 1241 726 1241 696 1280 c 0,56,57
 674 1309 674 1309 674 1350 c 0,58,59
 674 1390 674 1390 696 1417 c 0,60,61
 727 1454 727 1454 782 1454 c 0,46,47
EndSplineSet
EndChar

